<svg width="51" height="51" viewBox="0 0 51 51" fill="none" xmlns="http://www.w3.org/2000/svg">
<g id="Group 92">
<circle id="Ellipse 7" cx="25.6777" cy="25.9434" r="24.5" fill="url(#paint0_linear_1_13410)" stroke="#F35E21"/>
<g id="phone-svgrepo-com (2) 1">
<path id="Vector" d="M18.1777 20.5267C18.1777 27.6604 23.9607 33.4434 31.0944 33.4434C31.4162 33.4434 31.7353 33.4316 32.0513 33.4084C32.4139 33.3819 32.5952 33.3686 32.7602 33.2736C32.8969 33.1949 33.0265 33.0554 33.095 32.9134C33.1777 32.7419 33.1777 32.5418 33.1777 32.1417V29.7939C33.1777 29.4574 33.1777 29.2892 33.1223 29.145C33.0735 29.0176 32.994 28.9042 32.891 28.8147C32.7744 28.7134 32.6162 28.6559 32.3001 28.5409L29.6277 27.5691C29.2598 27.4354 29.0758 27.3684 28.9013 27.3798C28.7474 27.3898 28.5993 27.4424 28.4735 27.5315C28.3308 27.6326 28.2302 27.8004 28.0287 28.1362L27.3444 29.2767C25.1362 28.2766 23.346 26.4841 22.3444 24.2767L23.4849 23.5924C23.8206 23.391 23.9885 23.2903 24.0896 23.1476C24.1787 23.0218 24.2313 22.8737 24.2413 22.7198C24.2527 22.5453 24.1857 22.3613 24.052 21.9934L23.0802 19.321C22.9652 19.0048 22.9077 18.8467 22.8064 18.7301C22.7169 18.6271 22.6035 18.5477 22.4761 18.4987C22.3319 18.4434 22.1636 18.4434 21.8272 18.4434H19.4794C19.0793 18.4434 18.8792 18.4434 18.7077 18.5261C18.5657 18.5946 18.4262 18.7242 18.3475 18.8609C18.2525 19.0259 18.2392 19.2072 18.2126 19.5698C18.1895 19.8857 18.1777 20.2048 18.1777 20.5267Z" stroke="white" stroke-width="1.5" stroke-linecap="round" stroke-linejoin="round"/>
</g>
</g>
<defs>
<linearGradient id="paint0_linear_1_13410" x1="-3.2312" y1="74.6447" x2="69.0644" y2="72.0908" gradientUnits="userSpaceOnUse">
<stop stop-color="#DD2C00"/>
<stop offset="0.547234" stop-color="#FF3F00"/>
<stop offset="1" stop-color="#FA9D04"/>
</linearGradient>
</defs>
</svg>
