<svg width="13" height="27" viewBox="0 0 13 27" fill="none" xmlns="http://www.w3.org/2000/svg">
<path d="M7.64071 7.08638C7.64071 7.35299 7.64071 8.22198 7.64071 9.45655H11.8854L11.4252 13.2404H7.64071C7.64071 19.0758 7.64071 26.8955 7.64071 26.8955H2.61746C2.61746 26.8955 2.61746 19.1793 2.61746 13.2404H0V9.45655H2.61746C2.61746 7.95598 2.61746 6.88896 2.61746 6.59187C2.61746 5.17636 2.51081 4.50474 3.11227 3.40785C3.71404 2.31102 5.41142 0.861222 8.34718 0.896126C11.2837 0.932302 12.5214 1.21479 12.5214 1.21479L11.8854 5.24744C11.8854 5.24744 10.0103 4.75232 9.08989 4.92878C8.17073 5.10528 7.64071 5.67148 7.64071 7.08638Z" fill="#EAEAEA"/>
</svg>
