<svg width="27" height="27" viewBox="0 0 27 27" fill="none" xmlns="http://www.w3.org/2000/svg">
<path fill-rule="evenodd" clip-rule="evenodd" d="M0.878906 6.09551C0.878906 3.22363 3.20702 0.895508 6.07891 0.895508H21.6789C24.5507 0.895508 26.8789 3.22363 26.8789 6.09551V21.6955C26.8789 24.5673 24.5507 26.8955 21.6789 26.8955H6.07891C3.20702 26.8955 0.878906 24.5673 0.878906 21.6955V6.09551ZM6.07891 3.49551C4.64297 3.49551 3.47891 4.65957 3.47891 6.09551V21.6955C3.47891 23.1315 4.64297 24.2955 6.07891 24.2955H21.6789C23.1149 24.2955 24.2789 23.1315 24.2789 21.6955V6.09551C24.2789 4.65957 23.1149 3.49551 21.6789 3.49551H6.07891ZM13.8789 9.99551C11.7249 9.99551 9.97891 11.7415 9.97891 13.8955C9.97891 16.0495 11.7249 17.7955 13.8789 17.7955C16.0329 17.7955 17.7789 16.0495 17.7789 13.8955C17.7789 11.7415 16.0329 9.99551 13.8789 9.99551ZM7.37891 13.8955C7.37891 10.3057 10.2891 7.39551 13.8789 7.39551C17.4687 7.39551 20.3789 10.3057 20.3789 13.8955C20.3789 17.4853 17.4687 20.3955 13.8789 20.3955C10.2891 20.3955 7.37891 17.4853 7.37891 13.8955ZM21.0289 8.69551C22.1058 8.69551 22.9789 7.82247 22.9789 6.74551C22.9789 5.66855 22.1058 4.79551 21.0289 4.79551C19.952 4.79551 19.0789 5.66855 19.0789 6.74551C19.0789 7.82247 19.952 8.69551 21.0289 8.69551Z" fill="#EAEAEA"/>
</svg>
