<svg width="28" height="27" viewBox="0 0 28 27" fill="none" xmlns="http://www.w3.org/2000/svg">
<path fill-rule="evenodd" clip-rule="evenodd" d="M6.41228 26.8955V9.35248H0.581973V26.8954H6.41228V26.8955ZM3.49774 6.95816C5.53025 6.95816 6.79634 5.60994 6.79634 3.92652C6.75791 2.20568 5.53025 0.895508 3.53585 0.895508C1.54114 0.895561 0.237305 2.20573 0.237305 3.92657C0.237305 5.60999 1.5027 6.95822 3.45936 6.95822L3.49774 6.95816ZM9.63912 26.8955C9.63912 26.8955 9.71561 10.9985 9.63912 9.35253H15.4703V11.8966H15.4316C16.1984 10.6995 17.5797 8.94058 20.7249 8.94058C24.562 8.94058 27.4381 11.4479 27.4381 16.8364V26.8955H21.6079V17.5105C21.6079 15.1523 20.7643 13.5432 18.6537 13.5432C17.0433 13.5432 16.0835 14.628 15.6621 15.6767C15.5079 16.0499 15.4703 16.5742 15.4703 17.0985V26.8955H9.63912Z" fill="#EAEAEA"/>
</svg>
