<svg xmlns="http://www.w3.org/2000/svg" width="18" height="25" viewBox="0 0 18 25" fill="none">
    <path d="M9 0.667236C4.02975 0.667236 0 4.69699 0 9.66724C0 11.6244 0.641625 13.4202 1.70813 14.891C1.72725 14.9262 1.73025 14.9656 1.752 14.9994L7.752 23.9994C8.03025 24.4167 8.499 24.6672 9 24.6672C9.501 24.6672 9.96975 24.4167 10.248 23.9994L16.248 14.9994C16.2701 14.9656 16.2727 14.9262 16.2919 14.891C17.3584 13.4202 18 11.6244 18 9.66724C18 4.69699 13.9703 0.667236 9 0.667236ZM9 12.6672C7.34325 12.6672 6 11.324 6 9.66724C6 8.01049 7.34325 6.66724 9 6.66724C10.6567 6.66724 12 8.01049 12 9.66724C12 11.324 10.6567 12.6672 9 12.6672Z" fill="url(#paint0_linear_1_1197)"/>
    <defs>
      <linearGradient id="paint0_linear_1_1197" x1="0" y1="12.6672" x2="18" y2="12.6672" gradientUnits="userSpaceOnUse">
        <stop stop-color="#F04B12"/>
        <stop offset="1" stop-color="#FB8843"/>
      </linearGradient>
    </defs>
  </svg>