<svg width="51" height="51" viewBox="0 0 51 51" fill="none" xmlns="http://www.w3.org/2000/svg">
<circle cx="25.6777" cy="25.7344" r="24.5" fill="url(#paint0_linear_1_13417)" stroke="#F35E21"/>
<path d="M16.0352 21.4487L21.8744 25.3415C23.249 26.2579 23.9364 26.7161 24.6792 26.8942C25.3358 27.0515 26.0202 27.0515 26.6768 26.8942C27.4196 26.7161 28.1071 26.2579 29.4817 25.3415L35.3209 21.4487M19.4637 33.2344H31.8923C33.0924 33.2344 33.6925 33.2344 34.1509 33.0008C34.5541 32.7954 34.8819 32.4676 35.0873 32.0644C35.3209 31.606 35.3209 31.0059 35.3209 29.8058V21.6629C35.3209 20.4628 35.3209 19.8628 35.0873 19.4044C34.8819 19.0012 34.5541 18.6734 34.1509 18.4679C33.6925 18.2344 33.0924 18.2344 31.8923 18.2344H19.4637C18.2636 18.2344 17.6636 18.2344 17.2052 18.4679C16.802 18.6734 16.4742 19.0012 16.2687 19.4044C16.0352 19.8628 16.0352 20.4628 16.0352 21.6629V29.8058C16.0352 31.0059 16.0352 31.606 16.2687 32.0644C16.4742 32.4676 16.802 32.7954 17.2052 33.0008C17.6636 33.2344 18.2636 33.2344 19.4637 33.2344Z" stroke="white" stroke-width="2" stroke-linecap="round" stroke-linejoin="round"/>
<defs>
<linearGradient id="paint0_linear_1_13417" x1="-3.2312" y1="74.4357" x2="69.0644" y2="71.8818" gradientUnits="userSpaceOnUse">
<stop stop-color="#DD2C00"/>
<stop offset="0.547234" stop-color="#FF3F00"/>
<stop offset="1" stop-color="#FA9D04"/>
</linearGradient>
</defs>
</svg>
