<svg width="51" height="51" viewBox="0 0 51 51" fill="none" xmlns="http://www.w3.org/2000/svg">
    <circle cx="25.6777" cy="25.7334" r="25" fill="#EAEAEA"/>
    <path d="M16.0352 21.4477L21.8744 25.3405C23.249 26.2569 23.9364 26.7151 24.6792 26.8932C25.3358 27.0505 26.0202 27.0505 26.6768 26.8932C27.4196 26.7151 28.1071 26.2569 29.4817 25.3405L35.3209 21.4477M19.4637 33.2334H31.8923C33.0924 33.2334 33.6925 33.2334 34.1509 32.9998C34.5541 32.7944 34.8819 32.4666 35.0873 32.0634C35.3209 31.605 35.3209 31.0049 35.3209 29.8048V21.662C35.3209 20.4619 35.3209 19.8618 35.0873 19.4034C34.8819 19.0002 34.5541 18.6724 34.1509 18.467C33.6925 18.2334 33.0924 18.2334 31.8923 18.2334H19.4637C18.2636 18.2334 17.6636 18.2334 17.2052 18.467C16.802 18.6724 16.4742 19.0002 16.2687 19.4034C16.0352 19.8618 16.0352 20.4619 16.0352 21.662V29.8048C16.0352 31.0049 16.0352 31.605 16.2687 32.0634C16.4742 32.4666 16.802 32.7944 17.2052 32.9998C17.6636 33.2334 18.2636 33.2334 19.4637 33.2334Z" stroke="#333333" stroke-width="2" stroke-linecap="round" stroke-linejoin="round"/>
    </svg>
    