<svg xmlns="http://www.w3.org/2000/svg" width="27" height="26" viewBox="0 0 27 26" fill="none">
    <path d="M18.759 16.9912L18.0891 17.6571C18.0891 17.6571 16.4971 19.2402 12.1515 14.9191C7.8059 10.5983 9.39794 9.01526 9.39794 9.01526L9.81971 8.59586C10.8588 7.56271 10.9568 5.90398 10.0501 4.69305L8.19582 2.21599C7.07378 0.717219 4.90566 0.519233 3.61961 1.79797L1.31137 4.09311C0.673694 4.72717 0.246369 5.5491 0.298193 6.4609C0.430767 8.79357 1.48617 13.8125 7.37537 19.6683C13.6206 25.878 19.4805 26.1248 21.8768 25.9014C22.6347 25.8308 23.2939 25.4448 23.825 24.9165L25.9142 22.8395C27.3243 21.4372 26.9267 19.0334 25.1224 18.0527L22.3128 16.5253C21.1281 15.8814 19.6849 16.0705 18.759 16.9912Z" fill="url(#paint0_linear_1_1209)"/>
    <defs>
      <linearGradient id="paint0_linear_1_1209" x1="0.293945" y1="13.4526" x2="26.7646" y2="13.4526" gradientUnits="userSpaceOnUse">
        <stop stop-color="#F04B12"/>
        <stop offset="1" stop-color="#FB8843"/>
      </linearGradient>
    </defs>
  </svg>