<svg xmlns="http://www.w3.org/2000/svg" width="24" height="26" viewBox="0 0 24 26" fill="none">
    <path fill-rule="evenodd" clip-rule="evenodd" d="M13.8449 13.0473L16.9252 14.8998C17.2259 15.0807 17.3231 15.4916 17.1538 15.797C16.9794 16.1117 16.603 16.2254 16.2936 16.0394L13.1611 14.1555C12.8404 14.4149 12.4375 14.5694 12 14.5694C10.9536 14.5694 10.1053 13.6857 10.1053 12.5957C10.1053 11.7363 10.6325 11.0053 11.3684 10.7343V4.70546C11.3684 4.33963 11.6614 4.04307 12 4.04307C12.3488 4.04307 12.6316 4.34952 12.6316 4.70546V10.7343C13.3675 11.0053 13.8947 11.7363 13.8947 12.5957C13.8947 12.7511 13.8775 12.9023 13.8449 13.0473ZM12 25.0957C18.6274 25.0957 24 19.4993 24 12.5957C24 5.69214 18.6274 0.0957031 12 0.0957031C5.37258 0.0957031 0 5.69214 0 12.5957C0 19.4993 5.37258 25.0957 12 25.0957Z" fill="url(#paint0_linear_1_1175)"/>
    <defs>
      <linearGradient id="paint0_linear_1_1175" x1="0" y1="12.5957" x2="24" y2="12.5957" gradientUnits="userSpaceOnUse">
        <stop stop-color="#F04B12"/>
        <stop offset="1" stop-color="#FB8843"/>
      </linearGradient>
    </defs>
  </svg>