<svg width="41" height="57" viewBox="0 0 41 57" fill="none" xmlns="http://www.w3.org/2000/svg">
<path fill-rule="evenodd" clip-rule="evenodd" d="M19.6716 46.6979H5.41935C4.92669 46.6979 4.53959 46.3109 4.53959 45.8182C4.53959 44.0938 2.95601 42.7214 0.879765 42.7214C0.387097 42.7214 0 42.3343 0 41.8768V4.78592C0 4.29326 0.387097 3.94135 0.879765 3.94135C2.88563 3.94135 4.53959 2.56891 4.53959 0.879765C4.53959 0.387097 4.92669 0 5.41935 0H35.5777C36.0704 0 36.4575 0.387097 36.4575 0.879765C36.4575 2.56891 38.0762 3.94135 40.0821 3.94135C40.5396 3.94135 40.9619 4.32845 40.9619 4.78592V41.912C40.9619 42.4047 40.5396 42.7918 40.0821 42.7918C39.7654 42.7918 38.6041 43.1789 36.563 43.9179C36.3167 44.0235 36.176 44.0587 36.0704 44.0938C35.6129 44.2346 35.1554 44.0235 34.9795 43.566C34.8387 43.1437 35.085 42.651 35.5425 42.5103C35.6129 42.4399 35.7889 42.4047 36.0352 42.3343C37.5836 41.8064 38.6041 41.4545 39.2375 41.2786V5.66569C37.0557 5.31378 35.2258 3.7654 34.8387 1.79472H6.19355C5.80645 3.80059 4.01173 5.34897 1.82991 5.66569V41.173C4.04692 41.5249 5.80645 43.0733 6.19355 45.044H19.7067C20.1994 45.044 20.5865 45.4311 20.5865 45.9238C20.5865 46.3812 20.1642 46.6979 19.6716 46.6979Z" fill="white"/>
<path fill-rule="evenodd" clip-rule="evenodd" d="M28.2587 6.22877H12.7396C12.247 6.22877 11.8599 5.84167 11.8599 5.349C11.8599 4.89153 12.247 4.46924 12.7396 4.46924H28.2587C28.7514 4.46924 29.1385 4.89153 29.1385 5.349C29.1385 5.84167 28.7514 6.22877 28.2587 6.22877Z" fill="white"/>
<path fill-rule="evenodd" clip-rule="evenodd" d="M32.2704 11.4016H8.79822C8.30555 11.4016 7.91846 11.0145 7.91846 10.5219C7.91846 10.0644 8.30555 9.64209 8.79822 9.64209H32.3056C32.7982 9.64209 33.1853 10.0644 33.1853 10.5219C33.1853 11.0145 32.763 11.4016 32.2704 11.4016Z" fill="white"/>
<path fill-rule="evenodd" clip-rule="evenodd" d="M32.2704 16.5746H8.79822C8.30555 16.5746 7.91846 16.1875 7.91846 15.6948C7.91846 15.2374 8.30555 14.8151 8.79822 14.8151H32.3056C32.7982 14.8151 33.1853 15.2374 33.1853 15.6948C33.1853 16.1875 32.763 16.5746 32.2704 16.5746Z" fill="white"/>
<path fill-rule="evenodd" clip-rule="evenodd" d="M32.2704 21.7478H8.79822C8.30555 21.7478 7.91846 21.3607 7.91846 20.868C7.91846 20.3754 8.30555 19.9883 8.79822 19.9883H32.3056C32.7982 19.9883 33.1853 20.3754 33.1853 20.868C33.1853 21.3607 32.763 21.7478 32.2704 21.7478Z" fill="white"/>
<path fill-rule="evenodd" clip-rule="evenodd" d="M32.2704 26.9207H8.79822C8.30555 26.9207 7.91846 26.5336 7.91846 26.0409C7.91846 25.5482 8.30555 25.1611 8.79822 25.1611H32.3056C32.7982 25.1611 33.1853 25.5482 33.1853 26.0409C33.1853 26.5336 32.763 26.9207 32.2704 26.9207Z" fill="white"/>
<path fill-rule="evenodd" clip-rule="evenodd" d="M21.7132 32.1642H8.79822C8.30555 32.1642 7.91846 31.7771 7.91846 31.2844C7.91846 30.7918 8.30555 30.4047 8.79822 30.4047H21.7836C22.2762 30.4047 22.6633 30.7918 22.6633 31.2844C22.6633 31.7771 22.2058 32.1642 21.7132 32.1642Z" fill="white"/>
<path fill-rule="evenodd" clip-rule="evenodd" d="M19.2498 37.337H8.79822C8.30555 37.337 7.91846 36.9148 7.91846 36.4573C7.91846 35.9646 8.30555 35.5775 8.79822 35.5775H19.285C19.7777 35.5775 20.1648 35.9646 20.1648 36.4573C20.1648 36.9148 19.7073 37.337 19.2498 37.337Z" fill="white"/>
<path fill-rule="evenodd" clip-rule="evenodd" d="M28.1529 48.8442C28.0825 48.8442 27.9769 48.8442 27.8362 48.7739L24.3523 47.3662L20.9388 45.9234C20.7629 45.8178 20.5517 45.6771 20.5165 45.4659L19.0737 42.0524L17.6661 38.639C17.5605 38.4278 17.5605 38.2167 17.6661 37.9703L20.5165 31.1082C20.5869 30.9322 20.7629 30.7211 20.9388 30.6859L24.3523 29.2079L27.8362 27.8002C28.0121 27.6947 28.2585 27.6947 28.4696 27.8002L35.2966 30.6507C35.4725 30.7211 35.6837 30.897 35.7189 31.073L38.5693 37.9C38.6397 38.1111 38.6397 38.3574 38.5693 38.5334L35.7189 45.3604C35.6133 45.5715 35.4725 45.7475 35.2966 45.8178L28.4696 48.6331C28.364 48.7739 28.2585 48.8442 28.1529 48.8442ZM21.9593 44.4806L25.0561 45.8178L28.1529 47.0847L34.3464 44.4806L36.8802 38.2871L34.3464 32.0935L28.1529 29.5246L25.0561 30.7915L21.9593 32.0935L19.3904 38.2871L20.6925 41.3838L21.9593 44.4806Z" fill="white"/>
<path fill-rule="evenodd" clip-rule="evenodd" d="M28.1527 44.5863C24.6336 44.5863 21.8184 41.7711 21.8184 38.2872C21.8184 34.7681 24.6336 31.9529 28.1527 31.9529C31.6365 31.9529 34.4518 34.7681 34.4518 38.2872C34.4518 41.7711 31.6365 44.5863 28.1527 44.5863ZM28.1527 33.7124C25.6189 33.7124 23.5427 35.8238 23.5427 38.3576C23.5427 40.8913 25.6189 42.9324 28.1527 42.9324C30.6864 42.9324 32.7626 40.8913 32.7626 38.3576C32.7626 35.7535 30.6864 33.7124 28.1527 33.7124Z" fill="white"/>
<path fill-rule="evenodd" clip-rule="evenodd" d="M33.2201 56.6921C32.9385 56.6921 32.657 56.5513 32.5162 56.2698L27.8711 48.2111C27.6248 47.824 27.7655 47.261 28.1526 47.0146C28.5397 46.8035 29.1028 46.9443 29.3491 47.3314L33.0793 53.8064L34.311 50.7448C34.4517 50.3577 34.8388 50.1466 35.2259 50.217L38.4986 50.7448L34.8036 44.305C34.5573 43.9179 34.6981 43.3548 35.0852 43.1437C35.4723 42.8973 36.0353 43.0381 36.2464 43.4252L40.8564 51.3783C40.9972 51.6598 40.9972 52.0117 40.786 52.2932C40.6101 52.6099 40.3286 52.6803 39.9767 52.6451L35.613 51.9765L34.0294 56.0586C33.9239 56.3401 33.6423 56.5865 33.2904 56.5865C33.2201 56.6921 33.2201 56.6921 33.2201 56.6921Z" fill="white"/>
<path fill-rule="evenodd" clip-rule="evenodd" d="M23.0855 56.6922H23.0503C22.6984 56.657 22.4168 56.4458 22.3113 56.1643L20.7629 52.047L16.3993 52.7508C16.0473 52.786 15.7658 52.6452 15.5899 52.3989C15.3787 52.1526 15.3787 51.7655 15.5195 51.4839L20.1295 43.5309C20.3406 43.1438 20.9037 42.9678 21.2907 43.2141C21.6778 43.4605 21.8186 44.0235 21.5723 44.4106L17.8773 50.7801L21.15 50.2523C21.5371 50.2171 21.9242 50.393 22.0649 50.7801L23.2262 53.8769L26.9916 47.3666C27.238 46.9795 27.7658 46.8388 28.1529 47.0851C28.54 47.3315 28.716 47.8593 28.4696 48.2464L23.8245 56.2699C23.6837 56.5514 23.367 56.6922 23.0855 56.6922Z" fill="white"/>
</svg>
