<svg width="48" height="60" viewBox="0 0 48 60" fill="none" xmlns="http://www.w3.org/2000/svg">
<path fill-rule="evenodd" clip-rule="evenodd" d="M20.3511 59.9999C17.7149 59.9999 15.8168 59.1211 15.6762 59.0508L5.79922 54.2354C5.37743 54.0245 5.20168 53.4972 5.41258 53.1106C5.62347 52.6536 6.15071 52.513 6.53736 52.7239L16.3792 57.5394C16.3792 57.5394 20.1402 59.2617 24.112 57.5394C33.8133 52.6185 44.3581 46.8188 45.1314 45.5886C45.2017 45.5535 45.2017 45.4832 45.2368 45.448C46.3616 44.0772 46.5022 42.7415 45.7289 41.7925C44.8853 40.7732 43.0576 40.2811 41.1946 41.2301L26.924 49.3496C26.7834 49.4551 26.6428 49.4902 26.5374 49.5956C25.6586 50.0877 25.518 50.0877 24.2878 50.0877H22.3897C21.7219 50.0877 21.0189 49.7714 20.5971 49.3496C20.2105 48.963 20.0699 48.4357 20.105 47.8733C20.2456 46.7485 21.2298 46.0456 22.5303 45.9401C22.7764 45.9401 22.917 45.9401 23.0224 45.9401C23.3388 45.9401 23.3388 45.9401 23.9715 45.7995C28.0136 44.6747 28.8924 43.5851 29.1384 43.1633C29.3142 42.7064 29.5251 42.1088 29.1384 41.7925C28.8924 41.5464 28.2597 41.687 27.2755 41.9331C25.5532 42.3197 23.2685 42.9173 20.6323 41.1598C18.9451 39.9647 15.5707 38.0667 12.3019 38.2775H12.2316H6.18586C5.69377 38.2775 5.30713 37.8909 5.30713 37.3988C5.30713 36.9067 5.69377 36.5201 6.18586 36.5201H12.1964C15.9925 36.274 19.7184 38.4181 21.5813 39.6835C23.5848 41.0543 25.3423 40.5974 26.8537 40.2108C28.0488 39.9296 29.3142 39.6484 30.2983 40.5271C30.685 40.9138 31.5286 42.0385 30.6498 43.8663C29.9468 45.2371 27.9082 46.4322 24.3932 47.3812C23.6551 47.6273 23.5145 47.6273 23.0224 47.6273C22.917 47.6273 22.7764 47.6273 22.6358 47.6273C22.6006 47.6273 21.8976 47.6976 21.8625 48.0842C21.8625 48.0842 21.8625 48.1194 21.8976 48.2248C22.0031 48.3303 22.2491 48.4357 22.46 48.4357H24.2878C25.1665 48.4357 25.1665 48.4357 25.6586 48.1194C25.7641 48.0842 25.9047 47.9788 26.0453 47.8733L40.4214 39.6835C42.7412 38.4181 45.5883 38.8048 47.0997 40.5974C48.1191 41.8628 48.576 44.042 46.6428 46.4322C45.0962 48.7169 29.6657 56.6255 24.9205 59.0508H24.8853C23.2333 59.7538 21.7219 59.9999 20.3511 59.9999Z" fill="white"/>
<path fill-rule="evenodd" clip-rule="evenodd" d="M5.06151 57.2935H2.00352C0.878735 57.2935 0 56.4147 0 55.2899V35.5711C0 34.4464 0.913884 33.5676 2.00352 33.5676H5.06151C6.18629 33.5676 7.06503 34.5167 7.06503 35.5711V55.2899C7.06503 56.3796 6.15114 57.2935 5.06151 57.2935ZM1.93322 35.2899C1.79262 35.2899 1.65202 35.4305 1.65202 35.5711V55.2899C1.65202 55.4657 1.79262 55.6063 1.93322 55.6063H5.02636C5.16696 55.6063 5.30756 55.5008 5.30756 55.2899V35.5711C5.30756 35.4305 5.16696 35.2899 5.02636 35.2899H1.93322Z" fill="white"/>
<path fill-rule="evenodd" clip-rule="evenodd" d="M19.7187 56.3445C17.3286 56.3445 15.4656 55.7821 14.2003 55.2197C13.7433 55.0088 13.5676 54.5167 13.7433 54.0949C13.9542 53.638 14.4463 53.4622 14.8681 53.638C16.8365 54.5167 20.1054 55.2548 24.8505 53.7786C25.2723 53.638 25.7644 53.884 25.905 54.3761C26.0456 54.8682 25.7996 55.29 25.3426 55.4657C23.2337 56.0984 21.3356 56.3445 19.7187 56.3445Z" fill="white"/>
<path fill-rule="evenodd" clip-rule="evenodd" d="M31.564 31.0368C31.0719 31.0368 30.6852 30.6502 30.6852 30.1581C30.6852 24.253 32.1615 22.3197 33.4269 20.5974C34.3408 19.3672 35.0789 18.4182 35.0789 15.782C35.0789 11.0719 31.2828 7.31096 26.643 7.31096C22.0033 7.31096 18.2072 11.1422 18.2072 15.782C18.2072 18.3479 18.9453 19.332 19.8592 20.5974C21.1246 22.3197 22.6009 24.253 22.6009 30.1581C22.6009 30.6502 22.2142 31.0368 21.7221 31.0368C21.23 31.0368 20.8785 30.6502 20.8785 30.1581C20.8785 24.8505 19.6483 23.1985 18.4884 21.6168C17.5042 20.3162 16.4849 18.9454 16.4849 15.8171C16.4849 10.1932 21.0191 5.65894 26.643 5.65894C32.2669 5.65894 36.8012 10.1932 36.8012 15.8171C36.8012 18.9806 35.7819 20.3514 34.7977 21.6168C33.6378 23.1985 32.4075 24.8505 32.4075 30.1581C32.4427 30.6502 32.056 31.0368 31.564 31.0368Z" fill="white"/>
<path fill-rule="evenodd" clip-rule="evenodd" d="M20.7381 18.0668C20.246 18.0668 19.8594 17.6802 19.8594 17.1881C19.8594 12.7241 23.4798 9.0686 27.9789 9.0686C28.4358 9.0686 28.8225 9.45525 28.8225 9.91219C28.8225 10.334 28.4358 10.7909 27.9789 10.7909C24.4639 10.7909 21.5817 13.6732 21.5817 17.1881C21.5817 17.6802 21.1599 18.0668 20.7381 18.0668Z" fill="white"/>
<path fill-rule="evenodd" clip-rule="evenodd" d="M26.6434 4.25308C26.1513 4.25308 25.7646 3.86643 25.7646 3.40949V0.843585C25.7646 0.351494 26.1513 0 26.6434 0C27.1355 0 27.5221 0.386643 27.5221 0.843585V3.40949C27.5221 3.86643 27.1355 4.25308 26.6434 4.25308Z" fill="white"/>
<path fill-rule="evenodd" clip-rule="evenodd" d="M34.1652 6.25646C34.0246 6.25646 33.884 6.18616 33.7083 6.15101C33.3216 5.90496 33.181 5.41287 33.3919 4.99108L34.6573 2.74152C34.9033 2.35488 35.3954 2.17913 35.8172 2.39003C36.2039 2.63607 36.3445 3.12816 36.1687 3.54995L34.9033 5.79952C34.7627 6.11586 34.4464 6.25646 34.1652 6.25646Z" fill="white"/>
<path fill-rule="evenodd" clip-rule="evenodd" d="M39.578 11.7751C39.2968 11.7751 38.9804 11.6345 38.8398 11.3181C38.5938 10.9315 38.7344 10.4043 39.1562 10.1582L41.3706 8.82254C41.7572 8.57649 42.3196 8.75224 42.5657 9.13888C42.8117 9.52552 42.636 10.0528 42.2493 10.2988L40.0349 11.6345C39.8592 11.7048 39.7186 11.7751 39.578 11.7751Z" fill="white"/>
<path fill-rule="evenodd" clip-rule="evenodd" d="M19.2265 6.25654C18.9453 6.25654 18.629 6.11594 18.4884 5.7996L17.1878 3.55004C16.9418 3.16339 17.0824 2.63615 17.469 2.39011C17.8557 2.14406 18.3829 2.28466 18.629 2.6713L19.9646 4.92086C20.2107 5.3075 20.0701 5.86989 19.6483 6.11594C19.5077 6.25654 19.3671 6.25654 19.2265 6.25654Z" fill="white"/>
<path fill-rule="evenodd" clip-rule="evenodd" d="M13.7082 11.775C13.5676 11.775 13.427 11.7047 13.2864 11.6696L11.0368 10.3339C10.6502 10.0879 10.4744 9.56063 10.7205 9.17399C10.9665 8.78734 11.5289 8.64675 11.9156 8.89279L14.1651 10.1933C14.5518 10.4394 14.6924 10.9666 14.4463 11.3884C14.3057 11.6344 13.9894 11.775 13.7082 11.775Z" fill="white"/>
<path fill-rule="evenodd" clip-rule="evenodd" d="M32.6886 33.7787C32.1965 33.7787 31.8099 33.392 31.8099 32.8999C31.8099 32.4078 32.1965 32.0212 32.6886 32.0212C32.8995 32.0212 33.1456 31.8103 33.1456 31.494C33.1456 31.2479 32.9347 30.9316 32.6886 30.9316H20.5972C20.3512 30.9316 20.1403 31.1776 20.1403 31.494C20.1403 31.8103 20.3863 32.0212 20.5972 32.0212C21.0893 32.0212 21.476 32.4078 21.476 32.8999C21.476 33.392 21.0893 33.7787 20.5972 33.7787C19.4022 33.7787 18.4531 32.7945 18.4531 31.5291C18.4531 30.2989 19.4022 29.2795 20.5972 29.2795H32.6886C33.8837 29.2795 34.8327 30.2989 34.8327 31.5291C34.8327 32.7945 33.8837 33.7787 32.6886 33.7787Z" fill="white"/>
<path fill-rule="evenodd" clip-rule="evenodd" d="M32.6535 36.5201H20.7027C19.4725 36.5201 18.4531 35.5359 18.4531 34.2706C18.4531 33.0403 19.4725 32.021 20.7027 32.021H32.6535C33.8837 32.021 34.903 33.0403 34.903 34.2706C34.8327 35.5359 33.8837 36.5201 32.6535 36.5201ZM20.7027 33.7785C20.4566 33.7785 20.1403 34.0245 20.1403 34.3057C20.1403 34.6572 20.3863 34.8681 20.7027 34.8681H32.6535C32.8995 34.8681 33.1807 34.6572 33.1807 34.3057C33.1807 34.0597 32.9347 33.7785 32.6535 33.7785H20.7027Z" fill="white"/>
<path fill-rule="evenodd" clip-rule="evenodd" d="M27.6273 39.2268H25.659C23.6554 39.2268 22.0386 37.6451 22.0386 35.6416C22.0386 35.1495 22.4604 34.7628 22.9173 34.7628C23.4094 34.7628 23.796 35.1495 23.796 35.6416C23.796 36.6609 24.6396 37.5396 25.7293 37.5396H27.6625C28.6818 37.5396 29.5605 36.696 29.5605 35.6416C29.5605 35.1495 29.9472 34.7628 30.4393 34.7628C30.9314 34.7628 31.318 35.1495 31.318 35.6416C31.2477 37.6451 29.6308 39.2268 27.6273 39.2268Z" fill="white"/>
<path fill-rule="evenodd" clip-rule="evenodd" d="M26.6434 31.0369C26.1513 31.0369 25.7646 30.6502 25.7646 30.1581V22.355C25.7646 22.0738 25.9052 21.7574 26.2216 21.6168L29.2444 19.8594C29.6311 19.6133 30.1583 19.7539 30.4044 20.1757C30.6504 20.5623 30.5098 21.0896 30.1232 21.3356L27.5221 22.847V30.1581C27.5221 30.6502 27.1355 31.0369 26.6434 31.0369Z" fill="white"/>
<path fill-rule="evenodd" clip-rule="evenodd" d="M26.6432 23.2337C26.5026 23.2337 26.362 23.1985 26.2214 23.1283L23.1634 21.3708C22.7767 21.1247 22.6361 20.5975 22.8822 20.2109C23.1282 19.8242 23.6555 19.6836 24.0421 19.9297L27.1001 21.6871C27.4867 21.9332 27.6273 22.4604 27.3813 22.8471C27.2407 23.0931 26.9244 23.2337 26.6432 23.2337Z" fill="white"/>
</svg>
