<svg width="54" height="40" viewBox="0 0 54 40" fill="none" xmlns="http://www.w3.org/2000/svg">
<path d="M0.833324 2.50616H46.7633C46.9648 1.71922 47.4467 1.03295 48.1186 0.576344C48.7904 0.119737 49.6059 -0.0757728 50.4118 0.0265581C51.2176 0.128889 51.9584 0.522015 52.4948 1.13205C53.0312 1.74209 53.3263 2.52703 53.3247 3.33935V35.834C53.3247 36.9389 52.8858 37.9985 52.1045 38.7798C51.3232 39.5611 50.2636 40 49.1587 40H4.99931C4.77833 40 4.5664 39.9122 4.41014 39.756C4.25389 39.5997 4.16611 39.3878 4.16611 39.1668V36.6672H0.833324C0.612347 36.6672 0.400417 36.5794 0.244164 36.4232C0.0879097 36.2669 0.000125885 36.055 0.000125885 35.834V3.33935C0.000125885 3.11838 0.0879097 2.90645 0.244164 2.7502C0.400417 2.59394 0.612347 2.50616 0.833324 2.50616ZM49.9919 1.67296C49.55 1.67296 49.1261 1.84853 48.8136 2.16104C48.5011 2.47355 48.3255 2.8974 48.3255 3.33935V32.9491C48.8318 32.6554 49.4067 32.5008 49.9919 32.5008C50.5772 32.5008 51.152 32.6554 51.6583 32.9491V3.33935C51.6583 2.8974 51.4827 2.47355 51.1702 2.16104C50.8577 1.84853 50.4339 1.67296 49.9919 1.67296ZM5.8325 38.3336H49.1587C49.8217 38.3336 50.4574 38.0703 50.9262 37.6015C51.395 37.1327 51.6583 36.4969 51.6583 35.834C51.6583 35.3921 51.4827 34.9682 51.1702 34.6557C50.8577 34.3432 50.4339 34.1676 49.9919 34.1676C49.55 34.1676 49.1261 34.3432 48.8136 34.6557C48.5011 34.9682 48.3255 35.3921 48.3255 35.834C48.3255 36.055 48.2377 36.2669 48.0815 36.4232C47.9252 36.5794 47.7133 36.6672 47.4923 36.6672H5.8325V38.3336ZM1.66652 35.0008H46.6591V4.17255H1.66652V35.0008Z" fill="white"/>
<path d="M24.9956 15.0033C25.2166 15.0033 25.4285 15.0911 25.5848 15.2473C25.741 15.4036 25.8288 15.6155 25.8288 15.8365V18.3361H34.994C35.2149 18.3361 35.4269 18.4239 35.5831 18.5801C35.7394 18.7364 35.8271 18.9483 35.8271 19.1693V32.5004C35.8271 32.7214 35.7394 32.9333 35.5831 33.0896C35.4269 33.2458 35.2149 33.3336 34.994 33.3336H24.9956C24.7746 33.3336 24.5627 33.2458 24.4064 33.0896C24.2502 32.9333 24.1624 32.7214 24.1624 32.5004V28.3344H19.9964V30.834C19.9964 31.055 19.9086 31.2669 19.7524 31.4232C19.5961 31.5794 19.3842 31.6672 19.1632 31.6672H12.4977C12.2767 31.6672 12.0647 31.5794 11.9085 31.4232C11.7522 31.2669 11.6645 31.055 11.6645 30.834V28.3344H9.16487C9.05542 28.3345 8.94702 28.313 8.84587 28.2712C8.74473 28.2294 8.65281 28.1681 8.57538 28.0907L5.24259 24.7579C5.16524 24.6805 5.10391 24.5886 5.06209 24.4874C5.02028 24.3863 4.9988 24.2779 4.99888 24.1685V19.1693C4.9988 19.0598 5.02028 18.9514 5.06209 18.8503C5.10391 18.7491 5.16524 18.6572 5.24259 18.5798L8.57538 15.247C8.65281 15.1697 8.74473 15.1083 8.84587 15.0665C8.94702 15.0247 9.05542 15.0032 9.16487 15.0033H24.9956ZM6.66528 19.514V23.8237L9.5096 26.668H11.6645V23.3353C11.6645 23.1143 11.7522 22.9024 11.9085 22.7461C12.0647 22.5898 12.2767 22.5021 12.4977 22.5021H13.3308V21.6689C13.3308 21.4479 13.4186 21.236 13.5749 21.0797C13.7311 20.9235 13.9431 20.8357 14.164 20.8357C14.385 20.8357 14.5969 20.9235 14.7532 21.0797C14.9095 21.236 14.9972 21.4479 14.9972 21.6689V23.3353C14.9972 23.5562 14.9095 23.7682 14.7532 23.9244C14.5969 24.0807 14.385 24.1685 14.164 24.1685H13.3308V30.0008H18.33V23.3353C18.33 23.1143 18.4178 22.9024 18.5741 22.7461C18.7303 22.5898 18.9422 22.5021 19.1632 22.5021C19.3842 22.5021 19.5961 22.5898 19.7524 22.7461C19.9086 22.9024 19.9964 23.1143 19.9964 23.3353V26.668H24.9956C25.2166 26.668 25.4285 26.7558 25.5848 26.9121C25.741 27.0683 25.8288 27.2803 25.8288 27.5012V31.6672H34.1608V25.8348H32.4944C32.2734 25.8348 32.0615 25.7471 31.9052 25.5908C31.7489 25.4346 31.6612 25.2226 31.6612 25.0017C31.6612 24.7807 31.7489 24.5687 31.9052 24.4125C32.0615 24.2562 32.2734 24.1685 32.4944 24.1685H34.1608V20.0025H25.8288V24.1685H27.4952C27.7162 24.1685 27.9281 24.2562 28.0843 24.4125C28.2406 24.5687 28.3284 24.7807 28.3284 25.0017C28.3284 25.2226 28.2406 25.4346 28.0843 25.5908C27.9281 25.7471 27.7162 25.8348 27.4952 25.8348H24.9956C24.7746 25.8348 24.5627 25.7471 24.4064 25.5908C24.2502 25.4346 24.1624 25.2226 24.1624 25.0017V16.6697H19.9964V18.3361C19.9964 18.5571 19.9086 18.769 19.7524 18.9252C19.5961 19.0815 19.3842 19.1693 19.1632 19.1693C18.9422 19.1693 18.7303 19.0815 18.5741 18.9252C18.4178 18.769 18.33 18.5571 18.33 18.3361V16.6697H14.9972V17.5029C14.9972 17.7239 14.9095 17.9358 14.7532 18.092C14.5969 18.2483 14.385 18.3361 14.164 18.3361C13.9431 18.3361 13.7311 18.2483 13.5749 18.092C13.4186 17.9358 13.3308 17.7239 13.3308 17.5029V16.6697H9.5096L6.66528 19.514Z" fill="white"/>
<path d="M42.4913 18.3373C41.9746 18.3372 41.4705 18.1768 41.0487 17.8784C40.6268 17.58 40.3077 17.1581 40.1355 16.6709H38.3254C38.1044 16.6709 37.8924 16.5831 37.7362 16.4269C37.5799 16.2706 37.4922 16.0587 37.4922 15.8377C37.4922 15.6167 37.5799 15.4048 37.7362 15.2486C37.8924 15.0923 38.1044 15.0045 38.3254 15.0045H40.1355C40.2882 14.5725 40.5568 14.1907 40.9119 13.901C41.267 13.6113 41.6949 13.4247 42.1489 13.3618C42.6028 13.2989 43.0653 13.362 43.4859 13.5442C43.9064 13.7264 44.2687 14.0207 44.5332 14.3949C44.7978 14.7691 44.9543 15.2089 44.9858 15.6661C45.0173 16.1233 44.9224 16.5804 44.7117 16.9873C44.5009 17.3942 44.1823 17.7354 43.7907 17.9735C43.3991 18.2116 42.9496 18.3375 42.4913 18.3373ZM42.4913 15.0045C42.3265 15.0045 42.1655 15.0534 42.0284 15.1449C41.8914 15.2365 41.7846 15.3666 41.7216 15.5189C41.6585 15.6711 41.642 15.8386 41.6741 16.0003C41.7063 16.1619 41.7857 16.3104 41.9022 16.4269C42.0187 16.5434 42.1672 16.6228 42.3288 16.6549C42.4904 16.6871 42.6579 16.6706 42.8102 16.6075C42.9624 16.5444 43.0926 16.4376 43.1841 16.3006C43.2757 16.1636 43.3245 16.0025 43.3245 15.8377C43.3245 15.6167 43.2367 15.4048 43.0805 15.2486C42.9242 15.0923 42.7123 15.0045 42.4913 15.0045Z" fill="white"/>
<path d="M35.8253 10.6948V12.505C35.8253 12.7259 35.7375 12.9379 35.5813 13.0941C35.425 13.2504 35.2131 13.3382 34.9921 13.3382C34.7711 13.3382 34.5592 13.2504 34.4029 13.0941C34.2467 12.9379 34.1589 12.7259 34.1589 12.505V10.6948C33.603 10.4983 33.1344 10.1116 32.8361 9.60296C32.5378 9.09437 32.4288 8.49668 32.5285 7.91553C32.6282 7.33438 32.9302 6.80718 33.381 6.42713C33.8318 6.04707 34.4025 5.83862 34.9921 5.83862C35.5817 5.83862 36.1524 6.04707 36.6032 6.42713C37.054 6.80718 37.356 7.33438 37.4557 7.91553C37.5554 8.49668 37.4465 9.09437 37.1481 9.60296C36.8498 10.1116 36.3812 10.4983 35.8253 10.6948ZM34.9921 7.50579C34.8273 7.50579 34.6662 7.55465 34.5292 7.64621C34.3922 7.73776 34.2854 7.86789 34.2223 8.02013C34.1593 8.17238 34.1428 8.33991 34.1749 8.50153C34.2071 8.66316 34.2864 8.81162 34.4029 8.92814C34.5195 9.04467 34.6679 9.12402 34.8296 9.15617C34.9912 9.18832 35.1587 9.17182 35.311 9.10876C35.4632 9.0457 35.5933 8.9389 35.6849 8.80188C35.7764 8.66487 35.8253 8.50378 35.8253 8.33898C35.8253 8.11801 35.7375 7.90608 35.5813 7.74983C35.425 7.59357 35.2131 7.50579 34.9921 7.50579Z" fill="white"/>
<path d="M25.8312 10.6948V12.505C25.8312 12.7259 25.7434 12.9379 25.5871 13.0941C25.4309 13.2504 25.2189 13.3382 24.998 13.3382C24.777 13.3382 24.5651 13.2504 24.4088 13.0941C24.2526 12.9379 24.1648 12.7259 24.1648 12.505V10.6948C23.6088 10.4983 23.1403 10.1116 22.842 9.60296C22.5436 9.09437 22.4347 8.49668 22.5344 7.91553C22.6341 7.33438 22.936 6.80718 23.3868 6.42713C23.8377 6.04707 24.4083 5.83862 24.998 5.83862C25.5876 5.83862 26.1583 6.04707 26.6091 6.42713C27.0599 6.80718 27.3618 7.33438 27.4616 7.91553C27.5613 8.49668 27.4523 9.09437 27.154 9.60296C26.8556 10.1116 26.3871 10.4983 25.8312 10.6948ZM24.998 7.50579C24.8332 7.50579 24.6721 7.55465 24.5351 7.64621C24.398 7.73776 24.2913 7.86789 24.2282 8.02013C24.1651 8.17238 24.1486 8.33991 24.1808 8.50153C24.2129 8.66316 24.2923 8.81162 24.4088 8.92814C24.5253 9.04467 24.6738 9.12402 24.8354 9.15617C24.997 9.18832 25.1646 9.17182 25.3168 9.10876C25.4691 9.0457 25.5992 8.9389 25.6907 8.80188C25.7823 8.66487 25.8312 8.50378 25.8312 8.33898C25.8312 8.11801 25.7434 7.90608 25.5871 7.74983C25.4309 7.59357 25.2189 7.50579 24.998 7.50579Z" fill="white"/>
<path d="M19.1622 10.6948V12.505C19.1622 12.7259 19.0744 12.9379 18.9182 13.0941C18.7619 13.2504 18.55 13.3382 18.329 13.3382C18.108 13.3382 17.8961 13.2504 17.7399 13.0941C17.5836 12.9379 17.4958 12.7259 17.4958 12.505V10.6948C16.9399 10.4983 16.4714 10.1116 16.173 9.60296C15.8747 9.09437 15.7657 8.49668 15.8654 7.91553C15.9651 7.33438 16.2671 6.80718 16.7179 6.42713C17.1687 6.04707 17.7394 5.83862 18.329 5.83862C18.9187 5.83862 19.4893 6.04707 19.9401 6.42713C20.391 6.80718 20.6929 7.33438 20.7926 7.91553C20.8923 8.49668 20.7834 9.09437 20.485 9.60296C20.1867 10.1116 19.7181 10.4983 19.1622 10.6948ZM18.329 7.50579C18.1642 7.50579 18.0031 7.55465 17.8661 7.64621C17.7291 7.73776 17.6223 7.86789 17.5592 8.02013C17.4962 8.17238 17.4797 8.33991 17.5118 8.50153C17.544 8.66316 17.6233 8.81162 17.7399 8.92814C17.8564 9.04467 18.0048 9.12402 18.1665 9.15617C18.3281 9.18832 18.4956 9.17182 18.6479 9.10876C18.8001 9.0457 18.9302 8.9389 19.0218 8.80188C19.1134 8.66487 19.1622 8.50378 19.1622 8.33898C19.1622 8.11801 19.0744 7.90608 18.9182 7.74983C18.7619 7.59357 18.55 7.50579 18.329 7.50579Z" fill="white"/>
<path d="M9.99864 10.6948V12.505C9.99864 12.7259 9.91086 12.9379 9.75461 13.0941C9.59835 13.2504 9.38642 13.3382 9.16545 13.3382C8.94447 13.3382 8.73254 13.2504 8.57629 13.0941C8.42003 12.9379 8.33225 12.7259 8.33225 12.505V10.6948C7.77633 10.4983 7.30779 10.1116 7.00944 9.60296C6.71109 9.09437 6.60215 8.49668 6.70186 7.91553C6.80157 7.33438 7.10351 6.80718 7.55433 6.42713C8.00515 6.04707 8.5758 5.83862 9.16545 5.83862C9.75509 5.83862 10.3257 6.04707 10.7766 6.42713C11.2274 6.80718 11.5293 7.33438 11.629 7.91553C11.7287 8.49668 11.6198 9.09437 11.3215 9.60296C11.0231 10.1116 10.5546 10.4983 9.99864 10.6948ZM9.16545 7.50579C9.00066 7.50579 8.83957 7.55465 8.70255 7.64621C8.56553 7.73776 8.45874 7.86789 8.39567 8.02013C8.33261 8.17238 8.31611 8.33991 8.34826 8.50153C8.38041 8.66316 8.45976 8.81162 8.57629 8.92814C8.69281 9.04467 8.84127 9.12402 9.0029 9.15617C9.16452 9.18832 9.33205 9.17182 9.4843 9.10876C9.63654 9.0457 9.76667 8.9389 9.85822 8.80188C9.94978 8.66487 9.99864 8.50378 9.99864 8.33898C9.99864 8.11801 9.91086 7.90608 9.75461 7.74983C9.59835 7.59357 9.38642 7.50579 9.16545 7.50579Z" fill="white"/>
<path d="M42.4913 25.8365C41.9746 25.8363 41.4705 25.676 41.0487 25.3776C40.6268 25.0791 40.3077 24.6573 40.1355 24.1701H38.3254C38.1044 24.1701 37.8924 24.0823 37.7362 23.926C37.5799 23.7698 37.4922 23.5578 37.4922 23.3369C37.4922 23.1159 37.5799 22.904 37.7362 22.7477C37.8924 22.5915 38.1044 22.5037 38.3254 22.5037H40.1355C40.2882 22.0716 40.5568 21.6898 40.9119 21.4001C41.267 21.1104 41.6949 20.9239 42.1489 20.861C42.6028 20.798 43.0653 20.8611 43.4859 21.0433C43.9064 21.2255 44.2687 21.5198 44.5332 21.894C44.7978 22.2683 44.9543 22.708 44.9858 23.1652C45.0173 23.6224 44.9224 24.0795 44.7117 24.4864C44.5009 24.8934 44.1823 25.2346 43.7907 25.4727C43.3991 25.7107 42.9496 25.8366 42.4913 25.8365ZM42.4913 22.5037C42.3265 22.5037 42.1655 22.5525 42.0284 22.6441C41.8914 22.7356 41.7846 22.8658 41.7216 23.018C41.6585 23.1703 41.642 23.3378 41.6741 23.4994C41.7063 23.661 41.7857 23.8095 41.9022 23.926C42.0187 24.0426 42.1672 24.1219 42.3288 24.1541C42.4904 24.1862 42.6579 24.1697 42.8102 24.1066C42.9624 24.0436 43.0926 23.9368 43.1841 23.7998C43.2757 23.6627 43.3245 23.5017 43.3245 23.3369C43.3245 23.1159 43.2367 22.904 43.0805 22.7477C42.9242 22.5915 42.7123 22.5037 42.4913 22.5037Z" fill="white"/>
<path d="M38.3254 30.0025H40.1355C40.332 29.4465 40.7188 28.978 41.2274 28.6796C41.736 28.3813 42.3336 28.2724 42.9148 28.3721C43.4959 28.4718 44.0231 28.7737 44.4032 29.2245C44.7833 29.6754 44.9917 30.246 44.9917 30.8357C44.9917 31.4253 44.7833 31.996 44.4032 32.4468C44.0231 32.8976 43.4959 33.1995 42.9148 33.2992C42.3336 33.399 41.736 33.29 41.2274 32.9917C40.7188 32.6933 40.332 32.2248 40.1355 31.6688H38.3254C38.1044 31.6688 37.8924 31.5811 37.7362 31.4248C37.5799 31.2686 37.4922 31.0566 37.4922 30.8357C37.4922 30.6147 37.5799 30.4027 37.7362 30.2465C37.8924 30.0902 38.1044 30.0025 38.3254 30.0025ZM42.4913 31.6688C42.6561 31.6688 42.8172 31.62 42.9542 31.5284C43.0913 31.4369 43.198 31.3067 43.2611 31.1545C43.3242 31.0023 43.3407 30.8347 43.3085 30.6731C43.2764 30.5115 43.197 30.363 43.0805 30.2465C42.964 30.13 42.8155 30.0506 42.6539 30.0185C42.4923 29.9863 42.3247 30.0028 42.1725 30.0659C42.0202 30.1289 41.8901 30.2357 41.7986 30.3728C41.707 30.5098 41.6581 30.6709 41.6581 30.8357C41.6581 31.0566 41.7459 31.2686 41.9022 31.4248C42.0584 31.5811 42.2704 31.6688 42.4913 31.6688Z" fill="white"/>
</svg>
