<svg width="74" height="47" viewBox="0 0 74 47" fill="none" xmlns="http://www.w3.org/2000/svg">
<path d="M43.888 13.8557V16.4117C43.888 20.2239 40.8122 23.2997 36.9999 23.2997C33.1876 23.2997 30.1118 20.2239 30.1118 16.4117V13.8557" stroke="white" stroke-width="1.5" stroke-linecap="round" stroke-linejoin="round"/>
<path d="M30.1118 13.8552C30.1551 7.74695 43.2815 4.67114 43.888 13.8552" stroke="white" stroke-width="1.5" stroke-linecap="round" stroke-linejoin="round"/>
<path fill-rule="evenodd" clip-rule="evenodd" d="M29.3748 26.2888H31.4109L36.956 33.6101L42.5011 26.2888H44.5805C49.9957 26.2888 54.4145 30.7076 54.4145 36.1227V46H19.4976V36.1227C19.4976 30.7076 23.9596 26.2888 29.3748 26.2888Z" stroke="white" stroke-width="1.5" stroke-linecap="round" stroke-linejoin="round"/>
<path d="M42.502 26.2888L40.3359 22.4766" stroke="white" stroke-width="1.5" stroke-linecap="round" stroke-linejoin="round"/>
<path d="M31.4111 26.2887L33.6205 22.4331" stroke="white" stroke-width="1.5" stroke-linecap="round" stroke-linejoin="round"/>
<path d="M47.6138 38.2454V39.9349V45.9999" stroke="white" stroke-width="1.5" stroke-linecap="round" stroke-linejoin="round"/>
<path d="M26.2998 38.2454V45.9999" stroke="white" stroke-width="1.5" stroke-linecap="round" stroke-linejoin="round"/>
<path d="M43.8879 13.8556C48.5666 6.88086 42.7616 4.41155 42.7616 4.41155C40.8555 -0.137182 33.0143 -0.137182 31.1515 4.41155C31.1515 4.41155 25.4331 6.88086 30.1118 13.8556" stroke="white" stroke-width="1.5" stroke-linecap="round" stroke-linejoin="round"/>
<path d="M65.2889 22.7363V24.5558C65.2889 27.285 63.0362 29.5377 60.307 29.5377C57.5344 29.5377 55.2817 27.285 55.2817 24.5558V22.693" stroke="white" stroke-width="1.5" stroke-linecap="round" stroke-linejoin="round"/>
<path d="M55.2817 22.6935C55.3684 18.2748 64.8557 16.0654 65.2889 22.7369" stroke="white" stroke-width="1.5" stroke-linecap="round" stroke-linejoin="round"/>
<path fill-rule="evenodd" clip-rule="evenodd" d="M54.7619 31.7037H56.2781L60.2637 37.0322L64.2926 31.7037H65.8088C69.7077 31.7037 72.9135 34.9095 72.9135 38.8517V45.9997H54.4153V36.1225C54.4153 34.6063 54.0688 33.1333 53.4189 31.8337C53.8522 31.7471 54.3287 31.7037 54.7619 31.7037Z" stroke="white" stroke-width="1.5" stroke-linecap="round" stroke-linejoin="round"/>
<path d="M64.2923 31.7038L62.6895 28.9313" stroke="white" stroke-width="1.5" stroke-linecap="round" stroke-linejoin="round"/>
<path d="M56.2778 31.7038L57.8807 28.9313" stroke="white" stroke-width="1.5" stroke-linecap="round" stroke-linejoin="round"/>
<path d="M65.289 22.6928C68.7113 17.6676 64.4658 15.8481 64.4658 15.8481C63.1229 12.5557 57.4045 12.5557 56.0615 15.8481C56.0615 15.8481 51.9027 17.6676 55.2818 22.6928" stroke="white" stroke-width="1.5" stroke-linecap="round" stroke-linejoin="round"/>
<path d="M18.6747 22.7363V24.5558C18.6747 27.285 16.422 29.5377 13.6927 29.5377C10.9202 29.5377 8.66748 27.285 8.66748 24.5558V22.693" stroke="white" stroke-width="1.5" stroke-linecap="round" stroke-linejoin="round"/>
<path d="M8.66748 22.6935C8.7108 18.2748 18.2415 16.0654 18.6747 22.7369" stroke="white" stroke-width="1.5" stroke-linecap="round" stroke-linejoin="round"/>
<path fill-rule="evenodd" clip-rule="evenodd" d="M8.148 31.7037H9.66424L13.6498 37.0322L17.6787 31.7037H19.1516C19.6281 31.7037 20.0613 31.7471 20.4945 31.8337C19.888 33.1333 19.4982 34.6063 19.4982 36.1225V45.9997H1V38.8517C1 34.9095 4.24909 31.7037 8.148 31.7037Z" stroke="white" stroke-width="1.5" stroke-linecap="round" stroke-linejoin="round"/>
<path d="M17.6791 31.7038L16.0762 28.9313" stroke="white" stroke-width="1.5" stroke-linecap="round" stroke-linejoin="round"/>
<path d="M9.66553 31.7038L11.2684 28.9313" stroke="white" stroke-width="1.5" stroke-linecap="round" stroke-linejoin="round"/>
<path d="M18.6742 22.6928C22.0533 17.6676 17.8511 15.8481 17.8511 15.8481C16.4648 12.5557 10.7897 12.5557 9.44679 15.8481C9.44679 15.8481 5.28795 17.6676 8.667 22.6928" stroke="white" stroke-width="1.5" stroke-linecap="round" stroke-linejoin="round"/>
</svg>
