<svg width="69" height="37" viewBox="0 0 69 37" fill="none" xmlns="http://www.w3.org/2000/svg">
<path d="M47.0162 12.6586H46.9613C46.6828 13.7793 46.4043 15.2026 46.0951 16.2926L44.9766 20.2863H49.1391L47.9658 16.2926C47.6324 15.1741 47.2969 13.7793 47.0162 12.6586Z" fill="url(#paint0_linear_1015_779)"/>
<path d="M66.7323 0H34.2655C33.0132 0 32 1.01322 32 2.26549V34.7345C32 35.9846 33.0132 37 34.2655 37H66.7345C67.9846 37 69 35.9846 69 34.7345V2.26549C69 1.01541 67.9846 0 66.7323 0ZM51.2073 28.3021L49.7532 23.4707H44.3648L43.0226 28.3021H38.61L44.3648 9.47863H49.9484L55.7887 28.3021H51.2073ZM62.2496 28.3021H58.0015V14.6456H62.2496V28.3021ZM60.1003 12.9701C58.7604 12.9701 57.8656 12.0183 57.8919 10.8449C57.8656 9.6146 58.7604 8.69788 60.1311 8.69788C61.4974 8.69788 62.3636 9.6168 62.39 10.8449C62.39 12.0183 61.4974 12.9701 60.1003 12.9701Z" fill="url(#paint1_linear_1015_779)"/>
<path d="M12.5523 10.5502C11.6159 10.5502 10.9804 10.6413 10.6499 10.7345V16.7533C11.0439 16.8422 11.5249 16.8719 12.1901 16.8719C14.6412 16.8719 16.1538 15.6326 16.1538 13.5437C16.1517 11.6709 14.8509 10.5502 12.5523 10.5502Z" fill="url(#paint2_linear_1015_779)"/>
<path d="M34.7438 0H2.26682C1.01477 0 0 1.01265 0 2.26046V34.7353C0 35.9852 1.01477 37 2.26682 37H34.7438C35.9937 37 37.0085 35.9852 37.0085 34.7353V2.26258C37.0085 1.01265 35.9937 0 34.7438 0ZM18.8421 18.2659C17.2723 19.7489 14.9398 20.4141 12.2218 20.4141C11.6137 20.4141 11.0714 20.3844 10.6477 20.323V27.6149H6.07804V7.49745C7.49957 7.25806 9.49522 7.07587 12.3107 7.07587C15.1517 7.07587 17.1812 7.61821 18.5392 8.70925C19.8463 9.73885 20.7213 11.4337 20.7213 13.4293C20.7213 15.425 20.0539 17.1134 18.8421 18.2659ZM25.7295 27.9158C23.7889 27.9158 22.0665 27.4963 20.9458 26.8883L21.7615 23.5919C22.6089 24.1024 24.3651 24.7083 25.7295 24.7083C27.1171 24.7083 27.6933 24.2253 27.6933 23.4669C27.6933 22.7127 27.24 22.3504 25.5176 21.7742C22.4627 20.7467 21.2806 19.0815 21.3102 17.3274C21.3102 14.5776 23.6703 12.4845 27.3311 12.4845C29.0555 12.4845 30.5978 12.8806 31.5046 13.3319L30.6889 16.5096C30.0237 16.1453 28.7547 15.6644 27.4815 15.6644C26.365 15.6644 25.7316 16.1177 25.7316 16.874C25.7316 17.5689 26.3015 17.9312 28.117 18.5689C30.9304 19.5349 32.1126 20.9585 32.1401 23.1322C32.1401 25.8883 29.958 27.9158 25.7295 27.9158Z" fill="url(#paint3_linear_1015_779)"/>
<defs>
<linearGradient id="paint0_linear_1015_779" x1="44.6511" y1="23.902" x2="50.6751" y2="23.7859" gradientUnits="userSpaceOnUse">
<stop stop-color="#DD2C00"/>
<stop offset="0.547234" stop-color="#FF3F00"/>
<stop offset="1" stop-color="#FA9D04"/>
</linearGradient>
<linearGradient id="paint1_linear_1015_779" x1="29.1074" y1="54.539" x2="82.6062" y2="52.6491" gradientUnits="userSpaceOnUse">
<stop stop-color="#DD2C00"/>
<stop offset="0.547234" stop-color="#FF3F00"/>
<stop offset="1" stop-color="#FA9D04"/>
</linearGradient>
<linearGradient id="paint2_linear_1015_779" x1="10.2196" y1="19.8685" x2="18.1802" y2="19.6237" gradientUnits="userSpaceOnUse">
<stop stop-color="#DD2C00"/>
<stop offset="0.547234" stop-color="#FF3F00"/>
<stop offset="1" stop-color="#FA9D04"/>
</linearGradient>
<linearGradient id="paint3_linear_1015_779" x1="-2.89327" y1="54.539" x2="50.6177" y2="52.6482" gradientUnits="userSpaceOnUse">
<stop stop-color="#DD2C00"/>
<stop offset="0.547234" stop-color="#FF3F00"/>
<stop offset="1" stop-color="#FA9D04"/>
</linearGradient>
</defs>
</svg>
