<svg width="40" height="32" viewBox="0 0 40 32" fill="none" xmlns="http://www.w3.org/2000/svg">
<g clip-path="url(#clip0_952_2736)">
<path d="M21.0253 17.8196C21.0975 16.5305 21.7392 15.3932 22.7051 14.5882C23.6533 13.7957 24.9304 13.3133 26.3214 13.3133C27.714 13.3149 28.9895 13.7973 29.9378 14.5882C30.9036 15.3948 31.5454 16.5305 31.6192 17.8196C31.693 19.1451 31.1523 20.3772 30.2041 21.2899C29.2382 22.2183 27.8616 22.802 26.3214 22.802C24.7812 22.802 23.403 22.2183 22.4371 21.2899C21.4905 20.3772 20.9515 19.1451 21.0253 17.8196Z" fill="url(#paint0_linear_952_2736)"/>
<path d="M12.5872 20.4294C12.5968 20.9324 12.7605 21.9131 13.0043 22.6802C13.5194 24.3015 14.3922 25.8025 15.6083 27.1248C16.8565 28.4835 18.3903 29.5749 20.1648 30.3484C22.0307 31.1629 24.0507 31.5789 26.1476 31.5742C28.2446 31.571 30.2646 31.1487 32.1289 30.3278C33.9018 29.5448 35.4356 28.4503 36.6822 27.0884C37.8967 25.7598 38.7679 24.2572 39.2829 22.6359C39.5396 21.8277 39.7049 20.9941 39.7723 20.151C39.8365 19.3285 39.8092 18.4997 39.6921 17.682C39.461 16.0781 38.8979 14.5739 38.0315 13.2026C37.2373 11.9435 36.2169 10.8395 35.0024 9.90943L35.004 9.90785L22.7495 0.632673C22.7399 0.624765 22.7287 0.615274 22.719 0.607366C21.912 -1.27852e-05 20.5611 0.00156903 19.6771 0.612111C18.7818 1.22898 18.6807 2.24919 19.4749 2.89294L19.4717 2.89453L24.5834 6.99433L8.99974 7.01015H8.97889C7.69215 7.01173 6.45355 7.84529 6.20808 8.89714C5.95779 9.96954 6.83219 10.8585 8.17187 10.8648L8.17027 10.8695L16.0688 10.8537L1.97404 21.5192C1.9564 21.5335 1.93714 21.5461 1.9211 21.5588C0.592649 22.5616 0.162668 24.2319 0.998564 25.2885C1.8489 26.3624 3.65546 26.364 4.99996 25.2932L12.6915 19.0881C12.6915 19.0881 12.5792 19.9264 12.5872 20.4294ZM32.3535 23.2338C30.7683 24.8282 28.5511 25.7297 26.1493 25.7329C23.7459 25.7377 21.527 24.8424 19.9418 23.2528C19.1669 22.4777 18.5989 21.5888 18.2459 20.6382C17.901 19.705 17.7694 18.7069 17.8577 17.7184C17.9427 16.7535 18.2315 15.8156 18.708 14.9678C19.1717 14.1389 19.8086 13.3908 20.5948 12.7581C22.135 11.5196 24.0956 10.8506 26.1493 10.8474C28.2029 10.8442 30.1619 11.5101 31.7037 12.7423C32.4883 13.3734 33.1252 14.1184 33.5873 14.9456C34.0638 15.7934 34.3542 16.7298 34.4392 17.6946C34.5275 18.6848 34.3943 19.6813 34.0494 20.6161C33.6964 21.5651 33.1268 22.4556 32.3535 23.2338Z" fill="url(#paint1_linear_952_2736)"/>
</g>
<defs>
<linearGradient id="paint0_linear_952_2736" x1="20.1893" y1="27.2999" x2="35.5218" y2="26.6944" gradientUnits="userSpaceOnUse">
<stop stop-color="#DD2C00"/>
<stop offset="0.547234" stop-color="#FF3F00"/>
<stop offset="1" stop-color="#FA9D04"/>
</linearGradient>
<linearGradient id="paint1_linear_952_2736" x1="-2.49709" y1="46.4687" x2="54.1949" y2="43.968" gradientUnits="userSpaceOnUse">
<stop stop-color="#DD2C00"/>
<stop offset="0.547234" stop-color="#FF3F00"/>
<stop offset="1" stop-color="#FA9D04"/>
</linearGradient>
<clipPath id="clip0_952_2736">
<rect width="40" height="31.5789" fill="white"/>
</clipPath>
</defs>
</svg>
