<svg xmlns="http://www.w3.org/2000/svg" width="36" height="36" viewBox="0 0 36 36" fill="none">
    <path fill-rule="evenodd" clip-rule="evenodd" d="M14.5687 10.6877C13.3478 10.7428 12.2896 11.0413 11.4351 11.8922C10.5776 12.7476 10.2829 13.81 10.2276 15.0182C10.1933 15.7723 9.99257 21.4694 10.5747 22.9635C10.9672 23.9714 11.7403 24.7464 12.7575 25.1402C13.2321 25.3248 13.7739 25.4498 14.5687 25.4863C21.2143 25.787 23.6778 25.6233 24.7166 22.9635C24.9009 22.49 25.0278 21.9487 25.0629 21.1559C25.3666 14.4932 25.0136 13.0491 23.8554 11.8922C22.9367 10.9758 21.8561 10.352 14.5687 10.6877ZM14.6299 24.1463C13.9023 24.1136 13.5075 23.9923 13.2441 23.8903C12.5814 23.6328 12.0836 23.1371 11.8277 22.4782C11.3844 21.343 11.5314 15.9511 11.5709 15.0786C11.6097 14.224 11.7829 13.4429 12.3859 12.84C13.1321 12.0955 14.0963 11.7307 20.6613 12.027C21.518 12.0657 22.3009 12.2385 22.9054 12.84C23.6517 13.5844 24.0218 14.556 23.7203 21.0958C23.6875 21.8216 23.5658 22.2155 23.4636 22.4782C22.7882 24.209 21.2345 24.4493 14.6299 24.1463ZM20.7337 14.1129C20.7337 14.6057 21.1345 15.0065 21.6293 15.0065C22.124 15.0065 22.5255 14.6057 22.5255 14.1129C22.5255 13.6201 22.124 13.2197 21.6293 13.2197C21.1345 13.2197 20.7337 13.6201 20.7337 14.1129ZM13.8135 18.0866C13.8135 20.1978 15.5292 21.9095 17.6456 21.9095C19.7621 21.9095 21.4778 20.1978 21.4778 18.0866C21.4778 15.9755 19.7621 14.2649 17.6456 14.2649C15.5292 14.2649 13.8135 15.9755 13.8135 18.0866ZM15.1583 18.0866C15.1583 16.7169 16.2717 15.6056 17.6456 15.6056C19.0195 15.6056 20.133 16.7169 20.133 18.0866C20.133 19.4571 19.0195 20.5688 17.6456 20.5688C16.2717 20.5688 15.1583 19.4571 15.1583 18.0866Z" fill="url(#paint0_linear_1_1214)"/>
    <circle cx="17.6665" cy="18.0957" r="17" stroke="url(#paint1_linear_1_1214)"/>
    <defs>
    <linearGradient id="paint0_linear_1_1214" x1="10.1665" y1="18.0957" x2="25.1664" y2="18.0957" gradientUnits="userSpaceOnUse">
    <stop stop-color="#F04B12"/>
    <stop offset="1" stop-color="#FB8843"/>
    </linearGradient>
    <linearGradient id="paint1_linear_1_1214" x1="0.166504" y1="18.0957" x2="35.1665" y2="18.0957" gradientUnits="userSpaceOnUse">
    <stop stop-color="#F04B12"/>
    <stop offset="1" stop-color="#FB8843"/>
    </linearGradient>
    </defs>
    </svg>