<svg width="316" height="251" viewBox="0 0 316 251" fill="none" xmlns="http://www.w3.org/2000/svg">
<g clip-path="url(#clip0_592_1637)">
<path d="M305.3 165.923V167.331C305.3 187.5 297.283 206.843 283.011 221.105C268.74 235.367 249.383 243.379 229.2 243.379C215.13 239.296 201.064 235.181 187.001 231.033C178.267 216.825 169.524 202.626 160.773 188.435L157.905 180.914L152.377 195.428C143.896 209.056 135.422 222.688 126.957 236.324C114.652 238.676 102.35 241.027 90.0532 243.379C83.496 243.195 56.8628 241.701 36.2353 221.112C29.1643 214.053 23.5564 205.669 19.7329 196.44C15.9094 187.211 13.9453 177.32 13.9531 167.331V165.923C13.9564 145.754 21.9747 126.411 36.2452 112.148C50.5156 97.8856 69.8701 89.8698 90.0532 89.8633H229.2C249.384 89.8665 268.741 97.8813 283.012 112.145C297.283 126.408 305.3 145.753 305.3 165.923Z" fill="url(#paint0_linear_592_1637)"/>
<path d="M120.532 151.715V169.94C120.528 173.543 119.096 176.999 116.548 179.549C114.001 182.1 110.545 183.537 106.939 183.547H105.468C101.858 183.544 98.3964 182.109 95.8435 179.558C93.2905 177.007 91.8549 173.548 91.8516 169.94V143.888C91.8468 142.101 92.1947 140.33 92.8755 138.677C93.5562 137.024 94.5565 135.522 95.819 134.256C97.0815 132.989 98.5814 131.985 100.233 131.298C101.885 130.612 103.655 130.258 105.444 130.256H106.939C107.406 130.256 107.872 130.281 108.337 130.33C108.199 131.024 108.129 131.729 108.128 132.437V141.524C108.128 144.277 109.221 146.917 111.168 148.864C113.114 150.812 115.755 151.908 118.509 151.911C119.188 151.912 119.866 151.847 120.532 151.715Z" fill="#00233A"/>
<path d="M87.9353 103.923C70.09 107.095 53.4458 115.804 42.2557 130.085C35.5703 138.676 30.6812 148.522 27.8789 159.039C27.9304 151.485 29.6022 144.03 32.7815 137.176C41.937 116.22 65.0281 101.902 87.9353 103.923Z" fill="white"/>
<path d="M225.502 155.818V169.94C225.499 173.548 224.063 177.007 221.51 179.558C218.957 182.109 215.496 183.544 211.885 183.547H210.402C206.792 183.544 203.33 182.109 200.777 179.558C198.224 177.007 196.788 173.548 196.785 169.94V143.888C196.78 142.099 197.129 140.326 197.811 138.672C198.494 137.017 199.496 135.513 200.761 134.247C202.026 132.98 203.529 131.976 205.184 131.291C206.838 130.606 208.611 130.255 210.402 130.256H211.885C212.912 130.258 213.935 130.373 214.937 130.599C213.712 132.338 213.057 134.413 213.062 136.54V145.628C213.06 147.165 213.4 148.683 214.058 150.073C214.717 151.463 215.676 152.688 216.867 153.662C218.058 154.635 219.45 155.331 220.944 155.7C222.438 156.068 223.995 156.1 225.502 155.793V155.818Z" fill="#00233A"/>
<path d="M315.797 165.201C314.706 212.845 274.591 250.349 226.889 250.349H210.539C204.141 250.352 197.854 248.672 192.312 245.477C186.769 242.282 182.167 237.685 178.966 232.148L176.037 227.077C175.084 225.406 174.264 223.661 173.586 221.86L160.827 188.435L157.959 180.915L179.861 215.368C182.802 220.14 186.837 224.145 191.632 227.052C196.427 229.958 201.844 231.684 207.438 232.087C208.124 232.087 208.799 232.087 209.497 232.087H227.171C265.828 232.087 298.258 200.475 297.645 161.857C297.308 143.763 289.883 126.523 276.965 113.841C264.046 101.158 246.666 94.0443 228.556 94.0282H88.6735C50.0168 94.0282 17.5863 125.628 18.2359 164.233C18.5665 182.332 25.9889 199.578 38.908 212.266C51.827 224.954 69.2115 232.071 87.3253 232.087H106.384C107.07 232.087 107.757 232.087 108.443 232.087C114.038 231.682 119.457 229.956 124.253 227.049C129.05 224.143 133.087 220.139 136.032 215.368L157.91 180.915L152.382 195.429L142.295 221.86C141.623 223.663 140.803 225.408 139.844 227.077L136.915 232.148C133.712 237.682 129.108 242.277 123.567 245.472C118.025 248.666 111.74 250.348 105.342 250.349H88.9554C41.2534 250.349 1.1382 212.845 0.0228659 165.201C-0.242601 153.605 1.80572 142.073 6.04829 131.278C10.2909 120.482 16.6427 110.638 24.7331 102.322C32.8235 94.0059 42.4905 87.3832 53.1698 82.8406C63.849 78.298 75.3267 75.9265 86.9331 75.8645H107.671C107.301 72.0154 106.457 68.2268 105.158 64.5842C104.901 63.8615 104.644 63.1512 104.349 62.4776C97.9394 46.1143 88.2813 39.8923 81.1603 37.6019C68.6097 33.5479 53.5711 37.8836 42.8835 48.6251C41.4553 49.9972 39.5473 50.7578 37.5661 50.7445C35.5849 50.7313 33.6872 49.9452 32.2775 48.5541C30.8678 47.1629 30.0576 45.2766 30.0194 43.2971C29.9813 41.3176 30.7183 39.4015 32.0734 37.9572C46.7811 23.1127 67.8989 17.3072 85.8668 23.1372C96.5053 26.5911 110.968 35.679 119.449 59.4645C119.67 60.1136 119.903 60.775 120.111 61.4609C121.611 66.1228 122.557 70.945 122.93 75.8278H182.925C182.444 69.6994 182.658 63.5363 183.563 57.4559C185.421 44.5068 191.004 32.3759 199.631 22.5371C210.392 10.5482 224.939 2.60719 240.849 0.0376336C241.875 -0.137233 242.926 -0.0983814 243.936 0.152009C244.946 0.4024 245.894 0.858797 246.719 1.49252C247.544 2.12625 248.229 2.92365 248.732 3.83461C249.234 4.74558 249.542 5.75042 249.637 6.78611C249.792 8.76033 249.191 10.7197 247.955 12.2681C246.72 13.8164 244.942 14.8382 242.982 15.127C230.645 17.184 219.371 23.3632 211.005 32.6539C205.059 39.4698 200.988 47.7124 199.19 56.574C197.889 62.9255 197.542 69.4353 198.16 75.889H228.519C240.155 75.9007 251.671 78.2343 262.392 82.753C273.113 87.2718 282.823 93.8847 290.953 102.204C299.082 110.523 305.468 120.38 309.734 131.198C314 142.016 316.061 153.576 315.797 165.201Z" fill="url(#paint1_linear_592_1637)"/>
<g style="mix-blend-mode:soft-light">
<path d="M86.9258 75.8516H107.664C107.286 72.0078 106.442 68.224 105.151 64.5836C104.894 63.861 104.636 63.1629 104.342 62.4893L120.116 61.4848C121.613 66.1465 122.551 70.9691 122.911 75.8516H182.918C182.436 69.7233 182.65 63.5601 183.555 57.4797L199.219 56.5C197.918 62.8474 197.571 69.3531 198.189 75.8027H86.9258V75.8516Z" fill="#00233A"/>
</g>
</g>
<defs>
<linearGradient id="paint0_linear_592_1637" x1="259.106" y1="250.029" x2="48.2636" y2="67.2593" gradientUnits="userSpaceOnUse">
<stop offset="0.02" stop-color="#E5E5E5"/>
<stop offset="0.75" stop-color="white"/>
<stop offset="1" stop-color="#D8D8D8"/>
</linearGradient>
<linearGradient id="paint1_linear_592_1637" x1="-59.0898" y1="290.889" x2="455.079" y2="-82.1781" gradientUnits="userSpaceOnUse">
<stop offset="0.05" stop-color="#E43000"/>
<stop offset="0.49" stop-color="#FE4D00"/>
<stop offset="0.69" stop-color="#FC6901"/>
</linearGradient>
<clipPath id="clip0_592_1637">
<rect width="315.823" height="250.348" fill="white"/>
</clipPath>
</defs>
</svg>
