<svg width="37" height="38" viewBox="0 0 37 38" fill="none" xmlns="http://www.w3.org/2000/svg">
<path d="M23.8799 18.7717L30.4496 7.42732L33.6242 18.7717L30.4496 30.1135L23.8799 18.7717ZM20.6778 20.614L27.2485 31.9567L15.8051 29.025L7.53796 20.614H20.6778ZM27.247 5.58354L20.6778 16.9279H7.53796L15.8051 8.51647L27.247 5.58354ZM36.6258 14.9111L32.6178 0L17.6579 3.99613L15.4434 7.88956L10.9498 7.85737L0 18.7728L10.9498 29.6856H10.9502L15.4419 29.6524L17.6595 33.5458L32.6178 37.5413L36.6258 22.633L34.3497 18.7717L36.6258 14.9111Z" fill="url(#paint0_linear_70_9)"/>
<defs>
<linearGradient id="paint0_linear_70_9" x1="-2.86336" y1="55.3369" x2="50.0976" y2="53.5116" gradientUnits="userSpaceOnUse">
<stop stop-color="#DD2C00"/>
<stop offset="0.547234" stop-color="#FF3F00"/>
<stop offset="1" stop-color="#FA9D04"/>
</linearGradient>
</defs>
</svg>
