<svg width="37" height="37" viewBox="0 0 37 37" fill="none" xmlns="http://www.w3.org/2000/svg">
<path d="M28.343 26.9994C29.231 28.5441 26.974 29.8298 26.0814 28.3869C24.1436 25.3899 22.4416 22.2449 20.5407 19.2202C19.958 17.7772 18.2421 16.2463 19.0237 14.6183C21.0818 11.8942 22.7931 15.6728 23.5793 17.4349C25.6698 21.7732 24.324 20.603 28.9674 20.5707C30.9839 20.5753 31.192 23.6648 29.1802 23.8868C28.4124 23.9746 27.6586 23.9654 26.8816 23.9839C27.4134 24.9782 27.7742 26.0235 28.343 26.9994Z" fill="white"/>
<path d="M18.0207 8.21281C18.5896 6.97334 20.0002 5.4702 21.3044 6.69582C22.1878 7.50055 21.5865 8.75859 20.9853 9.5818C18.7098 13.1246 16.9061 16.9263 14.8387 20.5846C16.6841 20.7465 18.5433 20.6309 20.3748 20.9546C22.1785 21.2784 21.9381 23.947 20.1019 23.9886C16.5315 24.1274 12.961 23.8545 9.38586 24.0487C8.10939 23.9516 6.47677 24.6361 5.49167 23.5585C3.5168 20.1961 8.82628 20.7049 10.7641 20.5708C11.9759 19.4052 12.5725 17.4396 13.553 15.9966C14.3623 14.5536 15.1532 13.0968 15.9626 11.6538C16.106 11.2006 15.4585 10.8259 15.2966 10.4097C12.2256 6.96408 16.5315 4.28621 18.0207 8.21281Z" fill="white"/>
<path d="M11.3514 26.0652C11.3098 24.4835 9.2332 23.873 8.34521 25.2744C7.9521 25.9311 7.45259 26.5879 7.27685 27.3418C6.92996 28.8356 8.81694 29.8531 9.87146 28.7385C10.5745 27.9846 11.1156 27.0689 11.3514 26.0652ZM21.3044 6.69587C19.9955 5.46562 18.5895 6.96876 18.0207 8.21286C16.5314 4.28626 12.2209 6.96413 15.2965 10.4144C15.4584 10.8306 16.1013 11.2006 15.9625 11.6585C15.1532 13.1061 14.3623 14.5583 13.553 16.0013C12.5724 17.4443 11.9758 19.4053 10.7641 20.5754C8.82621 20.7049 3.51673 20.1961 5.49623 23.5632C6.48133 24.6454 8.11395 23.9563 9.39046 24.0534C12.9655 23.8591 16.5314 24.132 20.1065 23.9933C21.9426 23.9516 22.1831 21.283 20.3794 20.9593C18.5479 20.6355 16.6887 20.7465 14.8433 20.5893C16.9107 16.9309 18.7144 13.1246 20.9899 9.58648C21.5865 8.76322 22.1877 7.50523 21.3044 6.69587ZM11.9064 0.294908C17.5119 0.202409 23.2792 -0.680962 28.7275 1.14128C34.5133 2.92653 36.5298 9.16096 36.4743 14.6693C36.5159 18.5681 36.5298 22.4994 35.8314 26.3428C34.689 33.5531 30.6098 36.7073 23.4087 36.7813C15.6157 37.0449 4.04398 38.3723 0.894377 29.2056C-0.400604 24.0395 0.0711402 18.5589 0.140518 13.268C0.640014 5.57662 3.61851 0.461407 11.9064 0.294908ZM29.1854 23.8869C31.1972 23.6649 30.9891 20.5754 28.9726 20.5708C24.3291 20.6031 25.675 21.7733 23.5845 17.435C22.7936 15.673 21.087 11.8989 19.0289 14.6184C18.2473 16.2418 19.9677 17.7727 20.5459 19.2203C22.4467 22.2404 24.1488 25.3854 26.0866 28.387C26.9792 29.8299 29.2362 28.5442 28.3482 26.9995C27.7793 26.0236 27.4186 24.9784 26.8867 23.984C27.6591 23.9655 28.4176 23.9747 29.1854 23.8869Z" fill="url(#paint0_linear_71_50)"/>
<path d="M8.34984 25.2744C9.23783 23.8684 11.3144 24.4835 11.3561 26.0653C11.1202 27.0689 10.5744 27.9846 9.88071 28.7431C8.8262 29.8531 6.93922 28.8402 7.2861 27.3464C7.45721 26.5879 7.9521 25.9311 8.34984 25.2744Z" fill="white"/>
<defs>
<linearGradient id="paint0_linear_71_50" x1="-2.85278" y1="54.539" x2="49.9111" y2="52.7007" gradientUnits="userSpaceOnUse">
<stop stop-color="#DD2C00"/>
<stop offset="0.547234" stop-color="#FF3F00"/>
<stop offset="1" stop-color="#FA9D04"/>
</linearGradient>
</defs>
</svg>
