<svg width="36" height="36" viewBox="0 0 36 36" fill="none" xmlns="http://www.w3.org/2000/svg">
<path d="M26.3718 6.69409H9.63064C4.32029 6.69409 0 11.0144 0 16.3246V26.3695C0 31.6798 4.32029 36.0001 9.63064 36.0001H26.3718C31.6821 36.0001 36.0024 31.6798 36.0024 26.3695V16.3246C36.0024 11.0144 31.6821 6.69409 26.3718 6.69409ZM22.5015 18.0349C22.5015 17.0449 23.3116 16.2348 24.3016 16.2348C25.2917 16.2348 26.1017 17.0449 26.1017 18.0349C26.1017 19.025 25.2917 19.8529 24.3016 19.8529C23.3116 19.8529 22.5015 19.061 22.5015 18.0709V18.0349ZM14.635 25.3254C14.365 25.5954 14.0229 25.7214 13.6809 25.7214C13.3389 25.7214 12.9969 25.5954 12.7268 25.3254L10.8727 23.4711L9.09061 25.2534C8.82059 25.5234 8.47857 25.6494 8.13654 25.6494C7.79452 25.6494 7.4525 25.5234 7.18248 25.2534C6.66044 24.7314 6.66044 23.8671 7.18248 23.3453L8.9646 21.5632L7.23648 19.8351C6.71445 19.313 6.71445 18.449 7.23648 17.9269C7.75852 17.4049 8.62257 17.4049 9.14461 17.9269L10.8727 19.655L12.6548 17.8729C13.1769 17.3509 14.0409 17.3509 14.563 17.8729C15.085 18.395 15.085 19.259 14.563 19.7809L12.7809 21.5632L14.635 23.4173C15.157 23.9393 15.157 24.8034 14.635 25.3254ZM20.7734 23.3993C19.7833 23.3993 18.9553 22.5892 18.9553 21.5992C18.9553 20.6091 19.7473 19.7991 20.7374 19.7991H20.7734C21.7635 19.7991 22.5735 20.6091 22.5735 21.5992C22.5735 22.5892 21.7815 23.3993 20.7734 23.3993ZM24.3016 26.9455C23.3116 26.9455 22.5015 26.1535 22.5015 25.1634V25.1272C22.5015 24.1372 23.3116 23.3271 24.3016 23.3271C25.2917 23.3271 26.1017 24.1372 26.1017 25.1272C26.1017 26.1173 25.3097 26.9455 24.3016 26.9455ZM27.8659 23.3993C26.8758 23.3993 26.0477 22.5892 26.0477 21.5992C26.0477 20.6091 26.8398 19.7991 27.8299 19.7991H27.8659C28.8559 19.7991 29.666 20.6091 29.666 21.5992C29.666 22.5892 28.8739 23.3993 27.8659 23.3993Z" fill="url(#paint0_linear_69_5)"/>
<path d="M20.9522 1.27809L20.9342 2.9702C20.9162 4.55431 19.6022 5.86839 18 5.86839C17.73 5.86839 17.568 6.0484 17.568 6.28242C17.568 6.51644 17.748 6.69645 17.982 6.69645H15.0839C15.0659 6.57044 15.0479 6.42643 15.0479 6.28242C15.0479 4.66231 16.3619 3.34822 17.964 3.34822C18.2341 3.34822 18.4141 3.16821 18.4141 2.9342L18.4321 1.24208C18.4501 0.558038 19.0081 0 19.6922 0H19.7102C20.4122 0 20.9522 0.576039 20.9522 1.27809Z" fill="url(#paint1_linear_69_5)"/>
<defs>
<linearGradient id="paint0_linear_69_5" x1="-2.81462" y1="49.892" x2="49.2087" y2="47.6343" gradientUnits="userSpaceOnUse">
<stop stop-color="#DD2C00"/>
<stop offset="0.547234" stop-color="#FF3F00"/>
<stop offset="1" stop-color="#FA9D04"/>
</linearGradient>
<linearGradient id="paint1_linear_69_5" x1="14.5863" y1="9.87074" x2="23.1259" y2="9.60475" gradientUnits="userSpaceOnUse">
<stop stop-color="#DD2C00"/>
<stop offset="0.547234" stop-color="#FF3F00"/>
<stop offset="1" stop-color="#FA9D04"/>
</linearGradient>
</defs>
</svg>
