<svg width="34" height="42" viewBox="0 0 34 42" fill="none" xmlns="http://www.w3.org/2000/svg">
<g clip-path="url(#clip0_1_8508)">
<path d="M23.0476 41.4176C22.3619 41.1457 21.7238 40.7739 21.1557 40.3151H1.61399C1.5059 40.3151 1.39887 40.2947 1.299 40.2549C1.19913 40.2151 1.10839 40.1568 1.03196 40.0833C0.955536 40.0098 0.894918 39.9225 0.853575 39.8264C0.812231 39.7303 0.790973 39.6274 0.791016 39.5234V6.51388C0.790973 6.4099 0.812231 6.30693 0.853575 6.21086C0.894918 6.11479 0.955536 6.02749 1.03196 5.95397C1.10839 5.88044 1.19913 5.82213 1.299 5.78236C1.39887 5.74258 1.5059 5.72213 1.61399 5.72217H6.64891V4.03578C6.64886 3.9318 6.67012 3.82883 6.71146 3.73276C6.75281 3.63668 6.81343 3.54939 6.88985 3.47587C6.96628 3.40234 7.05702 3.34403 7.15689 3.30425C7.25676 3.26448 7.36379 3.24403 7.47188 3.24407H11.4639C11.877 1.8057 13.3876 0.735352 15.1831 0.735352C16.9785 0.735352 18.4878 1.8057 18.9003 3.24438H22.8933C23.0014 3.24434 23.1084 3.26479 23.2083 3.30456C23.3081 3.34434 23.3989 3.40265 23.4753 3.47618C23.5517 3.5497 23.6124 3.63699 23.6537 3.73307C23.695 3.82914 23.7163 3.93211 23.7163 4.03609V5.72248H28.7512C28.8593 5.72244 28.9663 5.74289 29.0662 5.78267C29.166 5.82244 29.2568 5.88075 29.3332 5.95428C29.4096 6.0278 29.4702 6.1151 29.5116 6.21117C29.5529 6.30724 29.5742 6.41021 29.5741 6.51419L29.5352 29.2853C30.0602 29.5762 30.5449 29.9294 30.978 30.3368C31.6363 30.9536 32.1628 31.6883 32.5278 32.4995C32.9029 33.3358 33.0964 34.237 33.0964 35.1478C33.0964 36.0587 32.9029 36.9599 32.5278 37.7962C32.1628 38.6074 31.6363 39.3421 30.978 39.9588C30.316 40.5822 29.5354 41.0772 28.6788 41.4167C26.875 42.1296 24.8517 42.1296 23.0479 41.4167L23.0476 41.4176ZM21.8851 31.431C21.3642 31.9118 20.9497 32.489 20.6665 33.1279C20.3833 33.7667 20.2374 34.4541 20.2374 35.1486C20.2374 35.8431 20.3833 36.5305 20.6665 37.1693C20.9497 37.8082 21.3642 38.3854 21.8851 38.8662C22.9548 39.8542 24.3802 40.406 25.8631 40.406C27.3459 40.406 28.7713 39.8542 29.841 38.8662C30.3619 38.3854 30.7764 37.8082 31.0596 37.1693C31.3428 36.5305 31.4887 35.8431 31.4887 35.1486C31.4887 34.4541 31.3428 33.7667 31.0596 33.1279C30.7764 32.489 30.3619 31.9118 29.841 31.431C28.7713 30.443 27.3459 29.8912 25.8631 29.8912C24.3802 29.8912 22.9548 30.443 21.8851 31.431ZM2.436 38.732L19.7213 38.7462C19.5209 38.4438 19.3459 38.1264 19.1979 37.7971C18.8229 36.9608 18.6294 36.0596 18.6294 35.1488C18.6294 34.2379 18.8229 33.3367 19.1979 32.5004C19.5629 31.6891 20.0894 30.9544 20.7478 30.3377C21.4099 29.7138 22.1908 29.2182 23.0476 28.878C24.5682 28.2779 26.2529 28.18 27.8375 28.5997L27.9269 7.30373H23.7156V8.88993C23.7157 8.99391 23.6944 9.09688 23.6531 9.19295C23.6117 9.28902 23.5511 9.37631 23.4747 9.44984C23.3982 9.52336 23.3075 9.58168 23.2076 9.62145C23.1078 9.66122 23.0007 9.68167 22.8926 9.68163H7.47188C7.36379 9.68167 7.25676 9.66122 7.15689 9.62145C7.05702 9.58168 6.96628 9.52336 6.88985 9.44984C6.81343 9.37631 6.75281 9.28902 6.71146 9.19295C6.67012 9.09688 6.64886 8.99391 6.64891 8.88993V7.30559H2.43664L2.436 38.732ZM8.29485 6.50986C8.29485 6.50986 8.29485 6.51233 8.29485 6.51388C8.29485 6.51543 8.29485 6.51635 8.29485 6.5179V8.10039H22.0703V6.51852C22.0703 6.51852 22.0703 6.51605 22.0703 6.5145C22.0703 6.51295 22.0703 6.51202 22.0703 6.51048V4.82748H18.1892C18.0811 4.82752 17.974 4.80707 17.8742 4.7673C17.7743 4.72753 17.6836 4.66921 17.6071 4.59569C17.5307 4.52216 17.4701 4.43487 17.4287 4.3388C17.3874 4.24273 17.3661 4.13976 17.3662 4.03578C17.3662 3.08882 16.3867 2.31846 15.1831 2.31846C13.9795 2.31846 12.999 3.08882 12.999 4.03578C12.999 4.13976 12.9778 4.24273 12.9364 4.3388C12.8951 4.43487 12.8345 4.52216 12.758 4.59569C12.6816 4.66921 12.5909 4.72753 12.491 4.7673C12.3911 4.80707 12.2841 4.82752 12.176 4.82748H8.29485V6.50986ZM9.98162 28.5564C9.8722 28.5585 9.76345 28.5396 9.66172 28.5007C9.56 28.4619 9.46736 28.4039 9.38921 28.3302C9.31106 28.2565 9.24898 28.1685 9.2066 28.0714C9.16421 27.9744 9.14239 27.8701 9.14239 27.7649C9.14239 27.6596 9.16421 27.5553 9.2066 27.4583C9.24898 27.3612 9.31106 27.2732 9.38921 27.1995C9.46736 27.1258 9.56 27.0679 9.66172 27.029C9.76345 26.9902 9.8722 26.9712 9.98162 26.9733H20.3835C20.493 26.9712 20.6017 26.9902 20.7034 27.029C20.8052 27.0679 20.8978 27.1258 20.976 27.1995C21.0541 27.2732 21.1162 27.3612 21.1586 27.4583C21.2009 27.5553 21.2228 27.6596 21.2228 27.7649C21.2228 27.8701 21.2009 27.9744 21.1586 28.0714C21.1162 28.1685 21.0541 28.2565 20.976 28.3302C20.8978 28.4039 20.8052 28.4619 20.7034 28.5007C20.6017 28.5396 20.493 28.5585 20.3835 28.5564H9.98162ZM9.98162 23.5974C9.8722 23.5995 9.76345 23.5806 9.66172 23.5417C9.56 23.5029 9.46736 23.4449 9.38921 23.3712C9.31106 23.2975 9.24898 23.2095 9.2066 23.1125C9.16421 23.0154 9.14239 22.9112 9.14239 22.8059C9.14239 22.7006 9.16421 22.5964 9.2066 22.4993C9.24898 22.4022 9.31106 22.3143 9.38921 22.2405C9.46736 22.1668 9.56 22.1089 9.66172 22.07C9.76345 22.0312 9.8722 22.0122 9.98162 22.0143H20.3835C20.493 22.0122 20.6017 22.0312 20.7034 22.07C20.8052 22.1089 20.8978 22.1668 20.976 22.2405C21.0541 22.3143 21.1162 22.4022 21.1586 22.4993C21.2009 22.5964 21.2228 22.7006 21.2228 22.8059C21.2228 22.9112 21.2009 23.0154 21.1586 23.1125C21.1162 23.2095 21.0541 23.2975 20.976 23.3712C20.8978 23.4449 20.8052 23.5029 20.7034 23.5417C20.6017 23.5806 20.493 23.5995 20.3835 23.5974H9.98162ZM9.98162 18.6384C9.8722 18.6405 9.76345 18.6216 9.66172 18.5827C9.56 18.5439 9.46736 18.4859 9.38921 18.4122C9.31106 18.3385 9.24898 18.2505 9.2066 18.1535C9.16421 18.0564 9.14239 17.9522 9.14239 17.8469C9.14239 17.7416 9.16421 17.6374 9.2066 17.5403C9.24898 17.4432 9.31106 17.3553 9.38921 17.2816C9.46736 17.2078 9.56 17.1499 9.66172 17.111C9.76345 17.0722 9.8722 17.0532 9.98162 17.0553H20.3835C20.493 17.0532 20.6017 17.0722 20.7034 17.111C20.8052 17.1499 20.8978 17.2078 20.976 17.2816C21.0541 17.3553 21.1162 17.4432 21.1586 17.5403C21.2009 17.6374 21.2228 17.7416 21.2228 17.8469C21.2228 17.9522 21.2009 18.0564 21.1586 18.1535C21.1162 18.2505 21.0541 18.3385 20.976 18.4122C20.8978 18.4859 20.8052 18.5439 20.7034 18.5827C20.6017 18.6216 20.493 18.6405 20.3835 18.6384H9.98162ZM9.98162 13.6794C9.8722 13.6815 9.76345 13.6626 9.66172 13.6237C9.56 13.5849 9.46736 13.5269 9.38921 13.4532C9.31106 13.3795 9.24898 13.2915 9.2066 13.1945C9.16421 13.0974 9.14239 12.9932 9.14239 12.8879C9.14239 12.7826 9.16421 12.6784 9.2066 12.5813C9.24898 12.4842 9.31106 12.3963 9.38921 12.3226C9.46736 12.2489 9.56 12.1909 9.66172 12.152C9.76345 12.1132 9.8722 12.0943 9.98162 12.0963H20.3835C20.493 12.0943 20.6017 12.1132 20.7034 12.152C20.8052 12.1909 20.8978 12.2489 20.976 12.3226C21.0541 12.3963 21.1162 12.4842 21.1586 12.5813C21.2009 12.6784 21.2228 12.7826 21.2228 12.8879C21.2228 12.9932 21.2009 13.0974 21.1586 13.1945C21.1162 13.2915 21.0541 13.3795 20.976 13.4532C20.8978 13.5269 20.8052 13.5849 20.7034 13.6237C20.6017 13.6626 20.493 13.6815 20.3835 13.6794H9.98162Z" fill="black"/>
<path d="M15.2552 6.38735C16.0542 6.38735 16.7019 5.76427 16.7019 4.99568C16.7019 4.22708 16.0542 3.604 15.2552 3.604C14.4563 3.604 13.8086 4.22708 13.8086 4.99568C13.8086 5.76427 14.4563 6.38735 15.2552 6.38735Z" fill="black"/>
<path d="M22.0469 35.6854L24.8498 38.3884L30.2322 33.2154L29.4607 32.4824L24.8498 36.912L22.8088 34.9485L22.0469 35.6854Z" fill="black"/>
</g>
<defs>
<clipPath id="clip0_1_8508">
<rect width="32.3052" height="41.217" fill="white" transform="translate(0.791016 0.735352)"/>
</clipPath>
</defs>
</svg>
