<svg width="43" height="44" viewBox="0 0 43 44" fill="none" xmlns="http://www.w3.org/2000/svg">
<g clip-path="url(#clip0_1_8530)">
<path d="M30.9606 5.4422C30.8254 5.30717 30.6475 5.2232 30.4573 5.20461C30.2671 5.18601 30.0763 5.23393 29.9175 5.34021C29.7587 5.44649 29.6416 5.60456 29.5862 5.78747C29.5308 5.97039 29.5406 6.16685 29.6138 6.34338C29.6871 6.5199 29.8192 6.66558 29.9878 6.75559C30.1564 6.8456 30.351 6.87437 30.5384 6.83701C30.7258 6.79965 30.8945 6.69846 31.0157 6.55069C31.1369 6.40291 31.2031 6.21769 31.2031 6.02657C31.2023 5.80748 31.1152 5.59751 30.9606 5.4422Z" fill="black"/>
<path d="M28.8914 9.16797H23.6002C23.3809 9.16797 23.1707 9.25508 23.0156 9.41013C22.8605 9.56518 22.7734 9.77548 22.7734 9.99476V15.286C22.7734 15.5052 22.8605 15.7155 23.0156 15.8706C23.1707 16.0256 23.3809 16.1128 23.6002 16.1128H28.8914C29.1107 16.1128 29.321 16.0256 29.4761 15.8706C29.6311 15.7155 29.7182 15.5052 29.7182 15.286V9.99476C29.7182 9.77548 29.6311 9.56518 29.4761 9.41013C29.321 9.25508 29.1107 9.16797 28.8914 9.16797ZM28.0646 14.4592H24.426V10.8216H28.064L28.0646 14.4592Z" fill="black"/>
<path d="M28.8914 18.4277H23.6002C23.3809 18.4277 23.1707 18.5148 23.0156 18.6699C22.8605 18.8249 22.7734 19.0352 22.7734 19.2545V24.5457C22.7734 24.765 22.8605 24.9753 23.0156 25.1304C23.1707 25.2854 23.3809 25.3725 23.6002 25.3725H28.8914C29.1107 25.3725 29.321 25.2854 29.4761 25.1304C29.6311 24.9753 29.7182 24.765 29.7182 24.5457V19.2545C29.7182 19.0352 29.6311 18.8249 29.4761 18.6699C29.321 18.5148 29.1107 18.4277 28.8914 18.4277ZM28.0646 23.7189H24.426V20.0813H28.064L28.0646 23.7189Z" fill="black"/>
<path d="M26.2458 27.688H23.6002C23.3809 27.688 23.1707 27.7751 23.0156 27.9302C22.8605 28.0852 22.7734 28.2955 22.7734 28.5148V33.806C22.7734 34.0253 22.8605 34.2356 23.0156 34.3906C23.1707 34.5457 23.3809 34.6328 23.6002 34.6328C23.8195 34.6328 24.0298 34.5457 24.1849 34.3906C24.3399 34.2356 24.427 34.0253 24.427 33.806V29.3416H26.2458C26.4651 29.3416 26.6754 29.2545 26.8305 29.0994C26.9855 28.9444 27.0726 28.7341 27.0726 28.5148C27.0726 28.2955 26.9855 28.0852 26.8305 27.9302C26.6754 27.7751 26.4651 27.688 26.2458 27.688Z" fill="black"/>
<path d="M19.6297 9.16797C19.4104 9.16797 19.2001 9.25508 19.0451 9.41013C18.89 9.56518 18.8029 9.77548 18.8029 9.99476V14.4595H14.3385C14.2299 14.4595 14.1224 14.4809 14.0221 14.5224C13.9218 14.564 13.8307 14.6249 13.7539 14.7017C13.6771 14.7784 13.6162 14.8696 13.5747 14.9699C13.5331 15.0702 13.5117 15.1777 13.5117 15.2863C13.5117 15.3949 13.5331 15.5024 13.5747 15.6027C13.6162 15.703 13.6771 15.7941 13.7539 15.8709C13.8307 15.9477 13.9218 16.0086 14.0221 16.0501C14.1224 16.0917 14.2299 16.1131 14.3385 16.1131H19.6297C19.849 16.1131 20.0593 16.026 20.2143 15.8709C20.3694 15.7159 20.4565 15.5056 20.4565 15.2863V9.99476C20.4565 9.77548 20.3694 9.56518 20.2143 9.41013C20.0593 9.25508 19.849 9.16797 19.6297 9.16797Z" fill="black"/>
<path d="M19.6297 18.4277H14.3385C14.1192 18.4277 13.9089 18.5148 13.7539 18.6699C13.5988 18.8249 13.5117 19.0352 13.5117 19.2545V24.5457C13.5117 24.765 13.5988 24.9753 13.7539 25.1304C13.9089 25.2854 14.1192 25.3725 14.3385 25.3725H19.6297C19.849 25.3725 20.0593 25.2854 20.2143 25.1304C20.3694 24.9753 20.4565 24.765 20.4565 24.5457V19.2545C20.4565 19.0352 20.3694 18.8249 20.2143 18.6699C20.0593 18.5148 19.849 18.4277 19.6297 18.4277ZM18.8029 23.7189H15.1653V20.0813H18.8033L18.8029 23.7189Z" fill="black"/>
<path d="M19.6297 27.688H14.3385C14.1192 27.688 13.9089 27.7751 13.7539 27.9302C13.5988 28.0852 13.5117 28.2955 13.5117 28.5148V33.806C13.5117 34.0253 13.5988 34.2356 13.7539 34.3906C13.9089 34.5457 14.1192 34.6328 14.3385 34.6328H19.6297C19.849 34.6328 20.0593 34.5457 20.2143 34.3906C20.3694 34.2356 20.4565 34.0253 20.4565 33.806V28.5148C20.4565 28.2955 20.3694 28.0852 20.2143 27.9302C20.0593 27.7751 19.849 27.688 19.6297 27.688ZM18.8029 32.9792H15.1653V29.3416H18.8033L18.8029 32.9792Z" fill="black"/>
<path d="M21.8171 39.5272C21.6819 39.392 21.504 39.3079 21.3137 39.2891C21.1234 39.2704 20.9325 39.3182 20.7735 39.4245C20.6145 39.5307 20.4973 39.6888 20.4418 39.8718C20.3863 40.0547 20.396 40.2513 20.4692 40.4279C20.5424 40.6046 20.6745 40.7504 20.8432 40.8405C21.0118 40.9306 21.2065 40.9595 21.394 40.9222C21.5815 40.8849 21.7503 40.7837 21.8716 40.6359C21.9929 40.4881 22.0592 40.3028 22.0592 40.1116C22.0588 39.8924 21.9718 39.6824 21.8171 39.5272Z" fill="black"/>
<path d="M32.499 0.734863H10.01C9.35241 0.735559 8.72192 0.997107 8.25691 1.46212C7.7919 1.92713 7.53035 2.55762 7.52965 3.21524V3.54372H2.57022C1.91243 3.54442 1.28179 3.8061 0.816749 4.27132C0.351711 4.73655 0.0902785 5.36729 0.0898438 6.02508L0.0898438 13.6314C0.0905394 14.2891 0.352087 14.9195 0.817097 15.3846C1.28211 15.8496 1.9126 16.1111 2.57022 16.1118H10.1766C10.8342 16.1111 11.4647 15.8496 11.9297 15.3846C12.3947 14.9195 12.6562 14.2891 12.6569 13.6314V6.85286H26.5465C26.7658 6.85286 26.9761 6.76575 27.1311 6.6107C27.2862 6.45564 27.3733 6.24535 27.3733 6.02607C27.3733 5.80679 27.2862 5.59649 27.1311 5.44144C26.9761 5.28638 26.7658 5.19928 26.5465 5.19928H12.515C12.3437 4.71583 12.027 4.29725 11.6083 4.001C11.1896 3.70476 10.6895 3.54536 10.1766 3.54471H9.18488V3.21622C9.18488 2.99714 9.27173 2.78699 9.4264 2.63182C9.58107 2.47666 9.79095 2.38914 10.01 2.38845H32.499C32.7182 2.38871 32.9283 2.4759 33.0833 2.6309C33.2383 2.78589 33.3255 2.99604 33.3257 3.21524L33.2778 25.1178C33.2778 25.3371 33.3649 25.5474 33.52 25.7025C33.675 25.8575 33.8853 25.9446 34.1046 25.9446C34.3239 25.9446 34.5342 25.8575 34.6892 25.7025C34.8443 25.5474 34.9314 25.3371 34.9314 25.1178L34.9793 3.21524C34.9786 2.55762 34.7171 1.92713 34.2521 1.46212C33.7871 0.997107 33.1566 0.735559 32.499 0.734863ZM11.0034 13.6314C11.0031 13.8506 10.9159 14.0608 10.7609 14.2158C10.6059 14.3708 10.3958 14.458 10.1766 14.4582H2.57022C2.35102 14.458 2.14087 14.3708 1.98588 14.2158C1.83088 14.0608 1.74369 13.8506 1.74343 13.6314V13.3312C1.79072 13.3004 1.83475 13.2648 1.87482 13.2251L4.49152 10.6058L6.32511 12.4394C6.40188 12.5162 6.49304 12.5771 6.59336 12.6186C6.69369 12.6602 6.80121 12.6816 6.90981 12.6816C7.0184 12.6816 7.12593 12.6602 7.22625 12.6186C7.32658 12.5771 7.41773 12.5162 7.49451 12.4394L11.0034 8.93183V13.6314ZM10.1766 5.19829C10.3958 5.19855 10.6059 5.28574 10.7609 5.44074C10.9159 5.59574 11.0031 5.80588 11.0034 6.02508V6.59303L6.91079 10.6856L5.0772 8.85201C5.00042 8.77521 4.90927 8.71429 4.80895 8.67273C4.70862 8.63117 4.60109 8.60978 4.4925 8.60978C4.38391 8.60978 4.27638 8.63117 4.17606 8.67273C4.07573 8.71429 3.98458 8.77521 3.9078 8.85201L1.74343 11.0164V6.02508C1.74369 5.80588 1.83088 5.59574 1.98588 5.44074C2.14087 5.28574 2.35102 5.19855 2.57022 5.19829H10.1766Z" fill="black"/>
<path d="M39.9405 24.7119H31.0113C30.3537 24.7126 29.7232 24.9741 29.2582 25.4391C28.7932 25.9041 28.5317 26.5346 28.531 27.1922V36.1214C28.5317 36.779 28.7932 37.4095 29.2582 37.8745C29.7232 38.3395 30.3537 38.6011 31.0113 38.6018H33.3258V40.5861C33.3256 40.8053 33.2384 41.0155 33.0834 41.1705C32.9284 41.3255 32.7182 41.4127 32.499 41.4129H10.0117C9.79255 41.4126 9.58244 41.3253 9.4275 41.1702C9.27257 41.0152 9.18546 40.805 9.18529 40.5858V38.6014H26.6586C26.8779 38.6014 27.0882 38.5143 27.2432 38.3593C27.3983 38.2042 27.4854 37.9939 27.4854 37.7746C27.4854 37.5554 27.3983 37.3451 27.2432 37.19C27.0882 37.035 26.8779 36.9479 26.6586 36.9479H9.18529L9.17116 15.5636C9.17116 15.3443 9.08405 15.134 8.929 14.979C8.77395 14.8239 8.56365 14.7368 8.34437 14.7368C8.12509 14.7368 7.91479 14.8239 7.75974 14.979C7.60469 15.134 7.51758 15.3443 7.51758 15.5636L7.53171 40.5842C7.5324 41.2418 7.79395 41.8723 8.25896 42.3373C8.72397 42.8023 9.35446 43.0638 10.0121 43.0645H32.4994C33.157 43.0638 33.7875 42.8023 34.2525 42.3373C34.7175 41.8723 34.979 41.2418 34.9797 40.5842V38.5998H39.9398C40.5975 38.5991 41.2279 38.3376 41.693 37.8725C42.158 37.4075 42.4195 36.777 42.4202 36.1194V27.1926C42.4196 26.535 42.1582 25.9045 41.6933 25.4395C41.2284 24.9744 40.5981 24.7127 39.9405 24.7119ZM40.7673 36.1214C40.767 36.3406 40.6798 36.5507 40.5248 36.7057C40.3698 36.8607 40.1597 36.9479 39.9405 36.9482H31.0113C30.7921 36.9479 30.582 36.8607 30.427 36.7057C30.272 36.5507 30.1848 36.3406 30.1845 36.1214V27.1926C30.1848 26.9734 30.272 26.7632 30.427 26.6082C30.582 26.4532 30.7921 26.366 31.0113 26.3658H39.9405C40.1597 26.366 40.3698 26.4532 40.5248 26.6082C40.6798 26.7632 40.767 26.9734 40.7673 27.1926V36.1214Z" fill="black"/>
<path d="M37.9616 9.16797C37.7423 9.16797 37.532 9.25508 37.3769 9.41013C37.2219 9.56518 37.1348 9.77548 37.1348 9.99476V16.5799C37.1348 16.7991 37.2219 17.0094 37.3769 17.1645C37.532 17.3195 37.7423 17.4067 37.9616 17.4067C38.1808 17.4067 38.3911 17.3195 38.5462 17.1645C38.7012 17.0094 38.7883 16.7991 38.7883 16.5799V9.99476C38.7883 9.77548 38.7012 9.56518 38.5462 9.41013C38.3911 9.25508 38.1808 9.16797 37.9616 9.16797Z" fill="black"/>
<path d="M38.5456 19.1419C38.4104 19.0068 38.2325 18.9226 38.0422 18.9039C37.852 18.8851 37.6611 18.933 37.5021 19.0392C37.3431 19.1454 37.2259 19.3034 37.1704 19.4864C37.1149 19.6693 37.1245 19.8659 37.1976 20.0425C37.2708 20.2192 37.4029 20.365 37.5715 20.4552C37.7401 20.5453 37.9347 20.5742 38.1223 20.537C38.3098 20.4997 38.4786 20.3986 38.5999 20.2509C38.7213 20.1031 38.7876 19.9178 38.7877 19.7266C38.787 19.5075 38.7001 19.2974 38.5456 19.1419Z" fill="black"/>
<path d="M4.55531 19.8325C4.4467 19.8325 4.33916 19.8539 4.23883 19.8955C4.1385 19.9371 4.04734 19.998 3.97056 20.0748C3.89378 20.1516 3.83289 20.2428 3.79136 20.3431C3.74983 20.4435 3.72847 20.551 3.72852 20.6596V26.3532C3.72852 26.5725 3.81562 26.7828 3.97068 26.9379C4.12573 27.0929 4.33603 27.18 4.55531 27.18C4.77459 27.18 4.98488 27.0929 5.13994 26.9379C5.29499 26.7828 5.3821 26.5725 5.3821 26.3532V20.6596C5.38214 20.551 5.36079 20.4435 5.31926 20.3431C5.27773 20.2428 5.21683 20.1516 5.14005 20.0748C5.06327 19.998 4.97212 19.9371 4.87178 19.8955C4.77145 19.8539 4.66391 19.8325 4.55531 19.8325Z" fill="black"/>
<path d="M38.0531 30.0993L35.1506 28.424C34.8774 28.2664 34.5674 28.1835 34.252 28.1836C33.9365 28.1837 33.6267 28.2668 33.3535 28.4246C33.0803 28.5824 32.8535 28.8093 32.6958 29.0825C32.5381 29.3557 32.4551 29.6656 32.4551 29.981V33.3279C32.454 33.6436 32.5363 33.954 32.6936 34.2276C32.8509 34.5013 33.0776 34.7286 33.3509 34.8866C33.6242 35.0446 33.9343 35.1277 34.2499 35.1275C34.5656 35.1272 34.8756 35.0437 35.1487 34.8853L38.0508 33.2123C38.3243 33.0546 38.5514 32.8277 38.7094 32.5543C38.8673 32.281 38.9504 31.9708 38.9504 31.6552C38.9504 31.3395 38.8673 31.0293 38.7094 30.756C38.5514 30.4826 38.3243 30.2557 38.0508 30.098L38.0531 30.0993ZM37.2266 31.7811L34.3242 33.4541C34.3023 33.4667 34.2774 33.4734 34.2522 33.4734C34.2269 33.4733 34.2021 33.4667 34.1802 33.454C34.1583 33.4414 34.1401 33.4232 34.1275 33.4013C34.1149 33.3794 34.1083 33.3545 34.1083 33.3293V29.9827C34.1074 29.9572 34.1137 29.932 34.1264 29.9099C34.1391 29.8878 34.1578 29.8698 34.1803 29.8579C34.2019 29.8444 34.2268 29.8372 34.2522 29.8372C34.2777 29.8372 34.3026 29.8444 34.3242 29.8579L37.2266 31.5331C37.2485 31.5457 37.2667 31.5639 37.2794 31.5858C37.292 31.6077 37.2987 31.6325 37.2987 31.6578C37.2987 31.6831 37.292 31.7079 37.2794 31.7298C37.2667 31.7516 37.2485 31.7698 37.2266 31.7824V31.7811Z" fill="black"/>
</g>
<defs>
<clipPath id="clip0_1_8530">
<rect width="42.3309" height="42.3309" fill="white" transform="translate(0.0898438 0.734863)"/>
</clipPath>
</defs>
</svg>
