<svg width="50" height="43" viewBox="0 0 50 43" fill="none" xmlns="http://www.w3.org/2000/svg">
<g clip-path="url(#clip0_1_8526)">
<path d="M43.3124 23.8233C44.3588 23.2063 45.1729 22.263 45.6291 21.1389C46.0853 20.0147 46.1584 18.772 45.837 17.6023C45.5156 16.4326 44.8177 15.4009 43.8507 14.6661C42.8837 13.9312 41.7014 13.5342 40.486 13.536C40.028 13.5366 39.5716 13.5892 39.1255 13.6928C38.1402 12.5457 36.8801 11.6661 35.4625 11.1357C36.2969 10.6415 36.9866 9.93735 37.4628 9.09374C37.939 8.25014 38.1849 7.29659 38.176 6.32841C38.1671 5.36023 37.9037 4.41134 37.4121 3.5766C36.9204 2.74186 36.2178 2.05051 35.3745 1.57167C34.5312 1.09282 33.5767 0.843254 32.6064 0.847912C31.6362 0.85257 30.6841 1.11129 29.8454 1.59821C29.0068 2.08513 28.3109 2.78319 27.8273 3.62261C27.3438 4.46204 27.0895 5.41341 27.09 6.38163C27.0934 7.3408 27.3459 8.28271 27.8228 9.1155C28.2997 9.94829 28.9848 10.6435 29.8112 11.1334C28.6705 11.5414 27.6289 12.1848 26.7542 13.0217C25.8795 13.8585 25.1915 14.87 24.735 15.9901C24.2781 14.8703 23.59 13.8591 22.7153 13.0223C21.8407 12.1856 20.7992 11.5421 19.6588 11.1338C20.4931 10.6395 21.1829 9.93527 21.659 9.09157C22.1351 8.24787 22.3809 7.29424 22.3719 6.32601C22.3628 5.35778 22.0992 4.40888 21.6075 3.57417C21.1157 2.73947 20.4129 2.0482 19.5695 1.56949C18.726 1.09078 17.7714 0.841393 16.8011 0.846261C15.8308 0.85113 14.8787 1.11008 14.0401 1.59723C13.2015 2.08439 12.5058 2.78267 12.0225 3.62226C11.5391 4.46186 11.2851 5.41336 11.2858 6.38163C11.2893 7.3408 11.5418 8.28271 12.0187 9.1155C12.4956 9.94829 13.1807 10.6435 14.0071 11.1334C12.5755 11.637 11.3089 12.5212 10.3441 13.6906C9.89854 13.584 9.44177 13.5313 8.98362 13.5337C7.7676 13.5314 6.58459 13.9284 5.61707 14.6634C4.64955 15.3985 3.95128 16.4308 3.62998 17.6011C3.30869 18.7714 3.38221 20.0147 3.8392 21.1392C4.2962 22.2636 5.11129 23.2068 6.15872 23.8233C4.50155 24.4041 3.0668 25.4855 2.05378 26.9173C1.04075 28.3491 0.499745 30.0602 0.505912 31.8128V34.737L0.819831 34.9457C2.7041 36.1991 5.79129 36.9824 9.03525 36.9824C11.9657 36.9824 14.7393 36.3559 16.6232 35.3112C16.4128 36.0412 16.3072 36.7971 16.3093 37.5566V40.4823L16.6232 40.691C18.5075 41.9444 21.5947 42.7277 24.8386 42.7277C28.0826 42.7277 31.1698 41.9444 33.054 40.691L33.368 40.4823V37.5566C33.3739 36.814 33.2681 36.0748 33.054 35.3635C34.9383 36.3555 37.6592 36.9805 40.5372 36.9805C43.7816 36.9805 46.8684 36.1972 48.7527 34.9438L49.0666 34.7351V31.8125C49.0311 30.056 48.4619 28.3516 47.4344 26.925C46.4069 25.4984 44.9695 24.4168 43.3124 23.8233ZM47.6556 34.0582C45.9809 35.1025 43.3124 35.6753 40.4864 35.6753C37.6603 35.6753 34.9918 35.0488 33.3171 34.0582V31.8125C33.3171 29.9151 34.0724 28.0955 35.4169 26.7538C36.7614 25.4122 38.5849 24.6585 40.4864 24.6585C42.3878 24.6585 44.2113 25.4122 45.5558 26.7538C46.9003 28.0955 47.6556 29.9151 47.6556 31.8125V34.0582ZM36.8233 6.4339C36.8233 7.27048 36.5747 8.08827 36.109 8.78386C35.6432 9.47945 34.9812 10.0216 34.2066 10.3417C33.4321 10.6619 32.5798 10.7457 31.7575 10.5824C30.9353 10.4192 30.18 10.0164 29.5872 9.42484C28.9943 8.83328 28.5906 8.0796 28.4271 7.2591C28.2635 6.43859 28.3475 5.58812 28.6683 4.81522C28.9891 4.04232 29.5324 3.38171 30.2295 2.91693C30.9266 2.45215 31.7461 2.20408 32.5845 2.20408C33.7074 2.20824 34.7832 2.65521 35.5772 3.44756C36.3712 4.23991 36.8192 5.31336 36.8233 6.4339ZM37.8175 14.2144C36.9593 14.6833 36.2408 15.3706 35.7351 16.2064C35.2295 17.0423 34.9547 17.9968 34.9387 18.973C34.9228 19.9492 35.1662 20.9123 35.6442 21.7641C36.1223 22.616 36.8179 23.3263 37.6603 23.8229C35.9974 24.4011 34.5555 25.4804 33.5338 26.9116C32.5121 28.3428 31.961 30.0553 31.9566 31.8125V33.0658C30.933 31.4558 29.4067 30.2269 27.6134 29.5686C28.6093 28.9823 29.3961 28.0993 29.8632 27.0437C30.3303 25.9882 30.4541 24.8131 30.2174 23.6837C29.9806 22.5542 29.3952 21.5272 28.5433 20.747C27.6914 19.9667 26.6159 19.4724 25.468 19.3336V19.1753C25.4701 17.7478 25.8994 16.3536 26.7009 15.1713C27.5025 13.989 28.6396 13.0726 29.9666 12.5395C31.2936 12.0065 32.7499 11.8811 34.1488 12.1796C35.5476 12.478 36.8249 13.1865 37.8175 14.2144ZM40.4864 23.3005C39.648 23.3005 38.8285 23.0525 38.1314 22.5877C37.4343 22.1229 36.891 21.4623 36.5702 20.6894C36.2493 19.9165 36.1654 19.066 36.329 18.2455C36.4925 17.425 36.8962 16.6713 37.489 16.0798C38.0819 15.4882 38.8371 15.0854 39.6594 14.9222C40.4817 14.759 41.334 14.8427 42.1085 15.1629C42.883 15.483 43.5451 16.0252 44.0108 16.7208C44.4766 17.4163 44.7252 18.2341 44.7252 19.0707C44.721 20.1913 44.2731 21.2647 43.4791 22.0571C42.685 22.8494 41.6093 23.2964 40.4864 23.3005ZM24.7874 20.6377C25.6258 20.6377 26.4453 20.8858 27.1424 21.3506C27.8395 21.8154 28.3828 22.476 28.7036 23.249C29.0244 24.0219 29.1083 24.8724 28.9448 25.6929C28.7812 26.5134 28.3774 27.2671 27.7846 27.8586C27.1917 28.4502 26.4364 28.853 25.6141 29.0161C24.7918 29.1793 23.9395 29.0955 23.165 28.7753C22.3904 28.4551 21.7284 27.9129 21.2627 27.2172C20.797 26.5216 20.5484 25.7038 20.5485 24.8672C20.5528 23.7467 21.0008 22.6733 21.7948 21.8811C22.5888 21.0888 23.6645 20.6419 24.7874 20.6377ZM17.5657 37.5566C17.5657 35.6593 18.321 33.8396 19.6655 32.498C21.01 31.1564 22.8336 30.4026 24.735 30.4026C26.6364 30.4026 28.4599 31.1564 29.8044 32.498C31.1489 33.8396 31.9043 35.6593 31.9043 37.5566V39.802C30.2295 40.8463 27.5606 41.4191 24.735 41.4191C21.9093 41.4191 19.2405 40.7926 17.5657 39.802V37.5566ZM16.8331 2.25672C17.6714 2.25672 18.491 2.50478 19.188 2.96953C19.8851 3.43427 20.4284 4.09483 20.7492 4.86769C21.0701 5.64054 21.1541 6.49098 20.9906 7.31147C20.8271 8.13195 20.4234 8.88564 19.8307 9.47722C19.238 10.0688 18.4827 10.4717 17.6605 10.635C16.8383 10.7983 15.9861 10.7146 15.2115 10.3946C14.4369 10.0746 13.7749 9.53255 13.309 8.83706C12.8431 8.14157 12.5944 7.32385 12.5943 6.4873C12.5981 5.36656 13.0459 4.29282 13.84 3.50023C14.6341 2.70764 15.71 2.26051 16.8331 2.25635V2.25672ZM1.81435 34.0579V31.8125C1.81435 29.9151 2.56968 28.0955 3.91418 26.7538C5.25868 25.4122 7.08221 24.6585 8.98362 24.6585C10.885 24.6585 12.7086 25.4122 14.0531 26.7538C15.3976 28.0955 16.1529 29.9151 16.1529 31.8125V34.0579C14.4782 35.1022 11.8093 35.6749 8.98362 35.6749C6.15797 35.6749 3.48871 35.0499 1.81435 34.0579ZM8.98513 14.8413C9.82343 14.8416 10.6428 15.0899 11.3397 15.5549C12.0366 16.0198 12.5796 16.6805 12.9002 17.4535C13.2208 18.2264 13.3046 19.0768 13.1408 19.8972C12.9771 20.7176 12.5733 21.4712 11.9804 22.0626C11.3875 22.654 10.6322 23.0567 9.81003 23.2198C8.98781 23.3828 8.13559 23.299 7.36113 22.9788C6.58667 22.6586 5.92474 22.1165 5.45904 21.4209C4.99333 20.7253 4.74477 19.9076 4.74477 19.0711C4.74894 17.9503 5.19708 16.8766 5.99144 16.0842C6.7858 15.2918 7.86194 14.845 8.98513 14.8413ZM17.5133 33.0658V31.8125C17.5192 30.0528 16.9721 28.3356 15.9489 26.9025C14.9256 25.4694 13.4779 24.3924 11.8093 23.8233C12.6517 23.3267 13.3473 22.6164 13.8254 21.7645C14.3034 20.9126 14.5468 19.9496 14.5309 18.9734C14.5149 17.9972 14.2401 17.0426 13.7345 16.2068C13.2288 15.3709 12.5103 14.6836 11.6521 14.2148C12.6344 13.1724 13.9083 12.4491 15.308 12.1389C16.7078 11.8287 18.1687 11.9458 19.5008 12.4752C20.8329 13.0046 21.9746 13.9216 22.7775 15.1072C23.5803 16.2927 24.0071 17.6918 24.0024 19.1226V19.3313C22.86 19.4814 21.793 19.9833 20.9501 20.7672C20.1071 21.551 19.5303 22.5778 19.2999 23.7044C19.0695 24.8309 19.1971 26.0011 19.6648 27.0519C20.1326 28.1027 20.9172 28.9816 21.9093 29.5663C20.0832 30.1903 18.53 31.4261 17.5137 33.0636C17.5137 33.1159 17.4613 33.1159 17.4613 33.1681V33.0636L17.5133 33.0658Z" fill="black" stroke="black" stroke-width="1.2"/>
</g>
<defs>
<clipPath id="clip0_1_8526">
<rect width="49.0148" height="42.3309" fill="white" transform="translate(0.279297 0.621094)"/>
</clipPath>
</defs>
</svg>
