<svg width="43" height="43" viewBox="0 0 43 43" fill="none" xmlns="http://www.w3.org/2000/svg">
<g clip-path="url(#clip0_1_8516)">
<path d="M42.7095 18.5829L35.6244 9.2551C35.4979 9.08866 35.3145 8.97622 35.1103 8.9399C34.9061 8.90358 34.6959 8.946 34.5211 9.05883L29.9466 12.0072H23.9802C23.9023 12.009 23.8251 12.022 23.7508 12.0458L19.1249 13.3954L14.3267 12.0647L9.66278 9.0585C9.49071 8.9475 9.28432 8.90464 9.08304 8.93808C8.88176 8.97153 8.69969 9.07895 8.5716 9.23983L0.734755 19.0777C0.59939 19.2478 0.534638 19.4645 0.55421 19.6821C0.573782 19.8997 0.676141 20.101 0.839613 20.2434L4.94711 23.8258L8.63222 28.8585C8.25764 29.2626 8.00211 29.7648 7.89453 30.3083C7.78695 30.8519 7.83162 31.4151 8.02348 31.9343C8.21534 32.4535 8.54674 32.9079 8.98017 33.2461C9.41361 33.5843 9.93179 33.7928 10.4761 33.8481C10.4538 33.9985 10.4428 34.1505 10.4433 34.3027C10.4434 35.0912 10.7525 35.8473 11.3026 36.4048C11.8527 36.9624 12.5988 37.2756 13.3767 37.2757H13.4095C13.4095 37.296 13.4095 37.3159 13.4095 37.3361C13.4095 37.7266 13.4853 38.1132 13.6327 38.4739C13.7801 38.8346 13.9962 39.1624 14.2686 39.4385C14.541 39.7145 14.8644 39.9335 15.2203 40.0829C15.5762 40.2323 15.9577 40.3092 16.3429 40.3091C16.4965 40.309 16.6499 40.2969 16.8017 40.2729C16.8565 40.833 17.0671 41.3658 17.4089 41.8093C17.7507 42.2528 18.2098 42.5889 18.7326 42.7785C19.2555 42.9681 19.8207 43.0034 20.3625 42.8802C20.9044 42.7571 21.4006 42.4806 21.7936 42.0829L22.2422 41.6283L22.4306 41.782C22.8472 42.1909 23.3742 42.4653 23.9447 42.5706C24.5153 42.676 25.1038 42.6074 25.6359 42.3737C26.1681 42.14 26.6199 41.7517 26.9342 41.2577C27.2485 40.7638 27.4113 40.1865 27.4018 39.5988C27.7946 39.6055 28.1846 39.5321 28.5488 39.3829C28.9129 39.2338 29.2438 39.0119 29.5216 38.7305C29.7994 38.449 30.0185 38.1139 30.1659 37.7449C30.3133 37.3759 30.3859 36.9806 30.3795 36.5826C30.7723 36.5889 31.1624 36.5152 31.5266 36.3656C31.8907 36.2161 32.2215 35.994 32.4993 35.7123C32.777 35.4307 32.9961 35.0953 33.1434 34.7261C33.2907 34.357 33.3633 33.9616 33.3568 33.5634C33.8886 33.5723 34.4127 33.4343 34.8731 33.1643C35.3334 32.8943 35.7126 32.5025 35.9701 32.0308C36.2276 31.5592 36.3536 31.0254 36.3346 30.4867C36.3157 29.948 36.1525 29.4247 35.8626 28.9728L38.5532 23.2606L42.5925 19.7336C42.7535 19.5934 42.8554 19.3959 42.8772 19.1819C42.8989 18.9678 42.8389 18.7535 42.7095 18.5829ZM9.39834 10.8814L12.7518 13.0427L5.45567 22.0504L2.53209 19.5002L9.39834 10.8814ZM9.87151 29.9797L10.8837 28.9538C10.9145 28.9226 10.9466 28.8934 10.9797 28.8658C11.1769 28.7031 11.4178 28.6041 11.6711 28.5816H11.6928C11.7288 28.5786 11.7652 28.5766 11.8016 28.5769C11.972 28.5789 12.1402 28.6157 12.2962 28.6851C12.4523 28.7546 12.5929 28.8552 12.7096 28.9811C12.9349 29.2345 13.0549 29.5664 13.0445 29.9074C13.0341 30.2485 12.894 30.5722 12.6535 30.811L11.6705 31.8073C11.4315 32.0493 11.1074 32.1851 10.7696 32.185C10.4318 32.1848 10.1078 32.0487 9.86905 31.8064C9.63028 31.5642 9.49622 31.2358 9.49638 30.8934C9.49653 30.551 9.63088 30.2227 9.86987 29.9807L9.87151 29.9797ZM12.4756 35.2157C12.3573 35.0959 12.2635 34.9536 12.1994 34.7971C12.1354 34.6405 12.1025 34.4727 12.1025 34.3032C12.1025 34.1337 12.1354 33.9659 12.1994 33.8093C12.2635 33.6528 12.3573 33.5105 12.4756 33.3907L14.4381 31.4018C14.625 31.2149 14.8639 31.0905 15.1226 31.0452C15.3813 30.9999 15.6475 31.0359 15.8855 31.1484C16.1261 31.2671 16.3235 31.4599 16.4495 31.6992C16.5755 31.9385 16.6236 32.2121 16.587 32.4808C16.5476 32.7749 16.4145 33.0479 16.2079 33.2582L14.2762 35.2157C14.1579 35.3357 14.0175 35.431 13.8629 35.4959C13.7082 35.5609 13.5425 35.5944 13.3751 35.5944C13.2077 35.5944 13.0419 35.5609 12.8873 35.4959C12.7327 35.431 12.5922 35.3357 12.474 35.2157H12.4756ZM15.4392 38.2484C15.3209 38.1286 15.227 37.9864 15.163 37.8298C15.099 37.6733 15.066 37.5055 15.066 37.336C15.066 37.1665 15.099 36.9987 15.163 36.8421C15.227 36.6856 15.3209 36.5433 15.4392 36.4235L17.4013 34.4345C17.601 34.2352 17.8595 34.1073 18.1375 34.0704C18.4155 34.0334 18.6977 34.0895 18.9414 34.23C19.1599 34.3607 19.3347 34.5549 19.4431 34.7874C19.5514 35.0199 19.5884 35.2801 19.5493 35.5341C19.5062 35.8208 19.3741 36.086 19.1721 36.2913L17.2408 38.2488C17.1225 38.3688 16.982 38.4641 16.8274 38.5291C16.6728 38.594 16.507 38.6275 16.3396 38.6275C16.1722 38.6275 16.0065 38.594 15.8519 38.5291C15.6972 38.4641 15.5568 38.3688 15.4385 38.2488L15.4392 38.2484ZM18.8143 40.8933C18.5759 40.6511 18.442 40.323 18.442 39.9809C18.442 39.6387 18.5759 39.3106 18.8143 39.0684L19.8265 38.0425C19.8573 38.0113 19.8891 37.9824 19.9222 37.9549L19.9245 37.9529C20.088 37.8182 20.282 37.7268 20.4891 37.6872L20.5035 37.6852C20.5389 37.6785 20.5752 37.6736 20.6113 37.6702C20.6257 37.6702 20.6405 37.6702 20.6552 37.6679C20.685 37.6679 20.7142 37.6643 20.7443 37.6646C20.9147 37.6665 21.083 37.7033 21.239 37.7728C21.3951 37.8422 21.5356 37.9429 21.6523 38.0688C21.6814 38.0999 21.7088 38.1326 21.7343 38.1667C21.9205 38.4255 22.0084 38.7435 21.9821 39.0626C21.9557 39.3818 21.8168 39.6806 21.5907 39.9043L20.6146 40.8936C20.3755 41.1353 20.0516 41.2709 19.714 41.2708C19.3763 41.2707 19.0525 41.1348 18.8136 40.893L18.8143 40.8933ZM34.2986 31.5047C34.0596 31.7464 33.7358 31.8822 33.3983 31.8822C33.0607 31.8822 32.7369 31.7464 32.498 31.5047C32.48 31.4866 32.4612 31.4694 32.4416 31.4533L27.1037 25.9868C26.9483 25.8307 26.7384 25.7431 26.5196 25.743C26.3008 25.743 26.0908 25.8304 25.9354 25.9864C25.7799 26.1424 25.6915 26.3543 25.6893 26.5761C25.6872 26.7978 25.7715 27.0114 25.924 27.1704L31.319 32.6953L31.3209 32.6973C31.4393 32.8172 31.5331 32.9596 31.5972 33.1163C31.6612 33.273 31.6942 33.441 31.6942 33.6106C31.6942 33.7802 31.6612 33.9482 31.5972 34.1049C31.5331 34.2616 31.4393 34.404 31.3209 34.5239C31.2026 34.6438 31.0621 34.739 30.9075 34.8039C30.7529 34.8688 30.5871 34.9022 30.4198 34.9022C30.2524 34.9022 30.0867 34.8688 29.9321 34.8039C29.7775 34.739 29.637 34.6438 29.5187 34.5239L25.9106 30.8266C25.7552 30.6705 25.5453 30.5828 25.3265 30.5828C25.1077 30.5827 24.8977 30.6702 24.7423 30.8262C24.5868 30.9822 24.4984 31.1941 24.4962 31.4158C24.4941 31.6375 24.5784 31.8512 24.7309 32.0102L28.2846 35.6494C28.3027 35.6726 28.3221 35.6948 28.3426 35.7158C28.5814 35.958 28.7155 36.2865 28.7153 36.6288C28.7151 36.9712 28.5808 37.2995 28.3418 37.5415C28.1028 37.7835 27.7787 37.9194 27.4409 37.9193C27.1031 37.9191 26.7791 37.7829 26.5404 37.5407L24.5707 35.5235C24.4946 35.4426 24.4033 35.3778 24.3022 35.333C24.2011 35.2882 24.0922 35.2642 23.9819 35.2626C23.8716 35.261 23.762 35.2816 23.6597 35.3234C23.5573 35.3651 23.4642 35.4272 23.3858 35.5058C23.3074 35.5845 23.2452 35.6782 23.203 35.7815C23.1607 35.8848 23.1392 35.9956 23.1397 36.1074C23.1402 36.2192 23.1626 36.3299 23.2058 36.4328C23.2489 36.5357 23.3119 36.6288 23.391 36.7068L25.306 38.6662C25.3241 38.6895 25.3436 38.7117 25.3643 38.7326C25.6033 38.9746 25.7377 39.3029 25.7378 39.6453C25.738 39.9877 25.6039 40.3162 25.3651 40.5584C25.1264 40.8006 24.8024 40.9368 24.4646 40.9369C24.1268 40.9371 23.8027 40.8012 23.5637 40.5592C23.5043 40.5044 23.4413 40.4536 23.3753 40.4071C23.3209 40.3653 23.3068 40.336 23.334 40.2693C23.3612 40.2025 23.4025 40.1404 23.43 40.0723C23.4605 39.9963 23.4851 39.9182 23.5087 39.8399C23.6364 39.4211 23.6731 38.9792 23.6161 38.5447C23.5337 37.9064 23.2471 37.313 22.8001 36.8556C22.3531 36.3983 21.7705 36.102 21.1415 36.0124C21.2493 35.5366 21.2409 35.0413 21.117 34.5695C20.9931 34.0977 20.7576 33.6637 20.4307 33.3051C20.162 33.0153 19.8383 32.7835 19.479 32.6237C19.1196 32.4639 18.7322 32.3794 18.3398 32.3752H18.2523C18.2639 31.9837 18.1983 31.5937 18.0594 31.2282C17.9204 30.8627 17.7109 30.529 17.4431 30.2466C17.1753 29.9642 16.8546 29.7388 16.4997 29.5836C16.1449 29.4284 15.763 29.3465 15.3766 29.3427C15.1384 29.3395 14.9006 29.3651 14.6684 29.4191C14.5902 28.8893 14.3717 28.391 14.0362 27.9771C13.7007 27.5632 13.2607 27.2492 12.7632 27.0686C12.2656 26.888 11.729 26.8476 11.2105 26.9515C10.692 27.0555 10.211 27.3 9.81876 27.659L6.61075 23.2755L14.287 13.7976L16.7335 14.4758L13.5386 20.1896C13.1554 20.8756 13.0566 21.6878 13.264 22.4476C13.4715 23.2074 13.9682 23.8526 14.6449 24.2413C14.6885 24.2659 14.7316 24.2892 14.774 24.3114L14.7841 24.3163C14.8981 24.3738 15.0157 24.4237 15.1361 24.4658C15.7835 24.6916 16.4885 24.6807 17.1289 24.435C17.7693 24.1893 18.3047 23.7242 18.6422 23.1204L20.7184 19.4069L24.4258 19.6725L34.2979 29.6775C34.5368 29.9199 34.6709 30.2484 34.6709 30.5909C34.6709 30.9335 34.5368 31.262 34.2979 31.5044L34.2986 31.5047ZM34.642 27.6493L25.381 18.2628C25.3635 18.2448 25.3452 18.2277 25.326 18.2116C25.1922 18.0985 25.0266 18.0309 24.8528 18.0183L20.3138 17.6919C20.1576 17.6823 20.0018 17.7169 19.8639 17.7918C19.726 17.8668 19.6114 17.9791 19.5329 18.1163L17.1972 22.2922C17.1158 22.4417 17.006 22.5735 16.8741 22.6797C16.7422 22.7859 16.5908 22.8646 16.4286 22.9111C16.2665 22.9576 16.0969 22.971 15.9296 22.9506C15.7623 22.9301 15.6006 22.8763 15.454 22.792C15.3075 22.7078 15.1788 22.595 15.0756 22.46C14.9723 22.325 14.8965 22.1707 14.8526 22.0058C14.8087 21.8409 14.7975 21.6688 14.8196 21.4995C14.8418 21.3303 14.8969 21.1671 14.9817 21.0196L18.098 15.4455L19.3609 15.0772L19.3858 15.0686L24.0988 13.6894H29.7942L36.9033 22.8484L34.642 27.6493ZM37.9909 21.529L31.4163 13.0534L34.7714 10.8907L40.9148 18.9781L37.9909 21.529Z" fill="black"/>
<path d="M26.1955 10.4272C26.3046 10.4274 26.4126 10.4057 26.5134 10.3634C26.6142 10.3211 26.7057 10.259 26.7827 10.1808L32.4516 4.43539C32.6073 4.2776 32.6948 4.06358 32.6948 3.84043C32.6948 3.61727 32.6073 3.40326 32.4516 3.24547C32.2959 3.08767 32.0848 2.99902 31.8646 2.99902C31.6444 2.99902 31.4332 3.08767 31.2775 3.24547L25.6086 8.99086C25.4925 9.10849 25.4133 9.2584 25.3812 9.42163C25.3491 9.58486 25.3656 9.75407 25.4284 9.90784C25.4912 10.0616 25.5976 10.193 25.7342 10.2855C25.8707 10.3779 26.0313 10.4273 26.1955 10.4272Z" fill="white"/>
<path d="M16.6484 10.1808C16.8041 10.3386 17.0152 10.4272 17.2354 10.4272C17.4556 10.4272 17.6668 10.3386 17.8225 10.1808C17.9782 10.023 18.0656 9.80898 18.0656 9.58582C18.0656 9.36267 17.9782 9.14865 17.8225 8.99086L12.1536 3.24547C12.0765 3.16733 11.985 3.10536 11.8842 3.06307C11.7835 3.02079 11.6756 2.99902 11.5665 2.99902C11.4575 2.99902 11.3496 3.02079 11.2488 3.06307C11.1481 3.10536 11.0566 3.16733 10.9795 3.24547C10.9024 3.3236 10.8412 3.41635 10.7995 3.51844C10.7578 3.62052 10.7363 3.72993 10.7363 3.84043C10.7363 3.95092 10.7578 4.06034 10.7995 4.16242C10.8412 4.26451 10.9024 4.35726 10.9795 4.43539L16.6484 10.1808Z" fill="white"/>
<path d="M21.7167 10.4274C21.9369 10.4274 22.148 10.3388 22.3036 10.181C22.4593 10.0233 22.5468 9.80931 22.5468 9.5862V4.83048C22.5468 4.60737 22.4593 4.3934 22.3036 4.23564C22.148 4.07789 21.9369 3.98926 21.7167 3.98926C21.4966 3.98926 21.2855 4.07789 21.1298 4.23564C20.9742 4.3934 20.8867 4.60737 20.8867 4.83048V9.5862C20.8867 9.80931 20.9742 10.0233 21.1298 10.181C21.2855 10.3388 21.4966 10.4274 21.7167 10.4274Z" fill="white"/>
<path d="M20.9497 1.78232C20.9984 1.90135 21.0736 2.00743 21.1692 2.09234C21.2649 2.17725 21.3786 2.23873 21.5014 2.27202C21.6243 2.30531 21.753 2.30952 21.8778 2.28432C22.0025 2.25913 22.1198 2.2052 22.2207 2.12672C22.3216 2.04823 22.4033 1.94728 22.4595 1.83168C22.5157 1.71608 22.545 1.58892 22.545 1.46003C22.545 1.33114 22.5158 1.20398 22.4595 1.08837C22.4033 0.972766 22.3216 0.87181 22.2208 0.793312C22.0758 0.680866 21.8984 0.619991 21.7158 0.620117C21.5333 0.620244 21.3559 0.681364 21.2112 0.794011C21.0664 0.906659 20.9623 1.06455 20.915 1.24322C20.8678 1.42189 20.8799 1.61137 20.9497 1.78232Z" fill="white"/>
</g>
<defs>
<clipPath id="clip0_1_8516">
<rect width="42.3309" height="42.3309" fill="white" transform="translate(0.550781 0.621094)"/>
</clipPath>
</defs>
</svg>
