<svg id="SvgjsSvg1001" width="288" height="288" xmlns="http://www.w3.org/2000/svg" version="1.1" xmlns:xlink="http://www.w3.org/1999/xlink" xmlns:svgjs="http://svgjs.com/svgjs"><defs id="SvgjsDefs1002"></defs><g id="SvgjsG1008"><svg xmlns="http://www.w3.org/2000/svg" fill="none" viewBox="0 0 44 43" width="288" height="288"><g clip-path="url(#a)" fill="#000000" class="color000 svgShape"><path fill="#000000" stroke="#000000" d="M28.7373 24.9216H28.773C29.3277 24.9216 29.8598 24.7012 30.252 24.3089C30.6443 23.9166 30.8647 23.3845 30.8647 22.8297V22.1326C30.8646 21.7223 30.7438 21.3211 30.5175 20.9789C30.2911 20.6367 29.9691 20.3687 29.5916 20.2081L30.6603 19.1393C30.7911 19.0086 30.8646 18.8313 30.8647 18.6465V17.2515C30.8628 15.5877 30.201 13.9925 29.0246 12.816C27.8481 11.6396 26.253 10.9779 24.5893 10.9761H19.0114C17.3477 10.9779 15.7527 11.6397 14.5763 12.8162C13.3999 13.9926 12.7382 15.5877 12.7363 17.2515V18.6461C12.7364 18.831 12.8099 19.0083 12.9406 19.139L14.0097 20.2081C13.6321 20.3686 13.3101 20.6367 13.0836 20.9788C12.8572 21.321 12.7364 21.7223 12.7363 22.1326V22.8297C12.7363 23.3845 12.9567 23.9166 13.349 24.3089C13.7412 24.7012 14.2733 24.9216 14.828 24.9216H14.8637C15.0367 26.6414 15.8422 28.2357 17.1241 29.3951C18.406 30.5546 20.0728 31.1966 21.8012 31.1966C23.5296 31.1966 25.1964 30.5546 26.4782 29.3951C27.7601 28.2357 28.5657 26.6414 28.7386 24.9216H28.7373ZM29.4701 22.8297C29.4701 23.0146 29.3966 23.192 29.2659 23.3227C29.1352 23.4535 28.9579 23.5269 28.773 23.5269V21.4351C28.9579 21.4351 29.1352 21.5085 29.2659 21.6393C29.3966 21.77 29.4701 21.9474 29.4701 22.1323V22.8297ZM14.1309 17.2515C14.1325 15.9574 14.6472 14.7168 15.5622 13.8018C16.4772 12.8868 17.7177 12.372 19.0117 12.3704H24.5893C25.8833 12.372 27.1238 12.8868 28.0388 13.8018C28.9538 14.7168 29.4685 15.9574 29.4701 17.2515V18.3573L28.7726 19.0551V18.6461C28.7728 18.493 28.7225 18.3442 28.6296 18.2225C28.5367 18.1008 28.4064 18.0131 28.2586 17.9729L20.5894 15.8814C20.4373 15.8406 20.2758 15.8524 20.1313 15.9151L15.2504 18.0069C15.1253 18.0606 15.0185 18.1497 14.9434 18.2634C14.8684 18.3771 14.8282 18.5102 14.828 18.6465V19.0551L14.1309 18.358V17.2515ZM14.1309 22.8297V22.1326C14.1309 21.9477 14.2043 21.7704 14.3351 21.6396C14.4658 21.5089 14.6431 21.4354 14.828 21.4354V23.5272C14.7364 23.5272 14.6458 23.5092 14.5612 23.4741C14.4766 23.4391 14.3997 23.3877 14.335 23.3229C14.2702 23.2582 14.2189 23.1813 14.1839 23.0966C14.1488 23.012 14.1308 22.9213 14.1309 22.8297ZM21.8005 29.8027C20.3216 29.8011 18.9038 29.2128 17.8581 28.167C16.8124 27.1213 16.2242 25.7033 16.2226 24.2244V19.1056L20.4568 17.2926L27.3781 19.1777V24.2244C27.3765 25.7033 26.7883 27.1212 25.7427 28.1669C24.697 29.2127 23.2793 29.801 21.8005 29.8027Z" class="colorfff svgShape colorStrokefff svgStroke"></path><path fill="#000000" d="M7.71959 24.3895C7.82954 24.3895 7.93792 24.3634 8.03589 24.3135 8.13386 24.2636 8.21864 24.1913 8.2833 24.1023 8.34796 24.0134 8.39067 23.9105 8.40795 23.8019 8.42523 23.6933 8.41658 23.5822 8.38271 23.4775L7.52571 20.8404 9.76785 19.2108C9.88704 19.1243 9.97577 19.0022 10.0213 18.8621 10.0668 18.7221 10.0668 18.5712 10.0213 18.4311 9.97578 18.291 9.88705 18.169 9.76786 18.0824 9.64867 17.9959 9.50514 17.9493 9.35786 17.9494H6.58657L5.72957 15.3137C5.68382 15.174 5.59512 15.0524 5.47616 14.9662 5.35719 14.88 5.21404 14.8336 5.06713 14.8336 4.92021 14.8336 4.77706 14.88 4.65809 14.9662 4.53913 15.0524 4.45044 15.174 4.40468 15.3137L3.54633 17.9494H.775381C.628127 17.9494.484645 17.996.365511 18.0826.246376 18.1691.157707 18.2912.11222 18.4312.0667316 18.5713.0667609 18.7222.112303 18.8622.157845 19.0023.246561 19.1243.365729 19.2108L2.60753 20.8401 1.75053 23.4772C1.70528 23.6172 1.70545 23.7678 1.75101 23.9077 1.79656 24.0475 1.88517 24.1694 2.00417 24.2558 2.12316 24.3422 2.26644 24.3888 2.4135 24.3889 2.56057 24.3889 2.70389 24.3425 2.82296 24.2562L5.06612 22.6266 7.30927 24.2562C7.42851 24.3429 7.57216 24.3895 7.71959 24.3895zM6.04261 20.7876L6.39134 21.8648 5.47543 21.2006C5.35629 21.114 5.21276 21.0673 5.06544 21.0673 4.91813 21.0673 4.7746 21.114 4.65546 21.2006L3.7419 21.8664 4.09063 20.7892C4.13595 20.6492 4.1358 20.4985 4.09021 20.3585 4.04462 20.2186 3.95593 20.0967 3.83683 20.0103L2.92058 19.3438H4.0536C4.20084 19.3438 4.3443 19.2972 4.46342 19.2107 4.58255 19.1241 4.67122 19.0021 4.71672 18.862L5.06679 17.7848 5.41484 18.8627C5.46041 19.003 5.54928 19.1252 5.66868 19.2117 5.78807 19.2983 5.93184 19.3447 6.0793 19.3444H7.21233L6.29675 20.0096C6.17765 20.096 6.08896 20.2179 6.04337 20.3579 5.99778 20.4978 5.99763 20.6486 6.04295 20.7886L6.04261 20.7876zM7.48886 10.3808L6.63186 13.018C6.58661 13.1579 6.58677 13.3086 6.63233 13.4484 6.67789 13.5882 6.7665 13.7101 6.88549 13.7965 7.00448 13.883 7.14776 13.9295 7.29483 13.9296 7.44189 13.9297 7.58521 13.8832 7.70429 13.7969L9.94744 12.1673 12.1906 13.7969C12.3097 13.8835 12.4531 13.9302 12.6003 13.9302 12.7475 13.9303 12.891 13.8838 13.0101 13.7973 13.1292 13.7108 13.2179 13.5888 13.2635 13.4488 13.3091 13.3088 13.3091 13.158 13.2637 13.018L12.4067 10.3808 14.6488 8.7512C14.768 8.66467 14.8568 8.54262 14.9023 8.40254 14.9478 8.26247 14.9478 8.11157 14.9023 7.97149 14.8568 7.83141 14.768 7.70936 14.6489 7.62283 14.5297 7.5363 14.3861 7.48975 14.2388 7.48985H11.4679L10.6109 4.85406C10.5651 4.71444 10.4764 4.59285 10.3575 4.50665 10.2385 4.42044 10.0954 4.37402 9.94845 4.37402 9.80154 4.37402 9.65838 4.42044 9.53942 4.50665 9.42045 4.59285 9.33176 4.71444 9.28601 4.85406L8.42766 7.48985H5.6567C5.50936 7.48972 5.36577 7.53629 5.24654 7.62286 5.1273 7.70943 5.03857 7.83155 4.99306 7.9717 4.94756 8.11185 4.94763 8.26281 4.99326 8.40292 5.03889 8.54303 5.12774 8.66507 5.24705 8.75153L7.48886 10.3808zM8.93627 8.8845C9.08351 8.88453 9.22697 8.83793 9.3461 8.7514 9.46522 8.66486 9.55389 8.54282 9.59939 8.40279L9.94811 7.32558 10.2962 8.40346C10.3417 8.5435 10.4303 8.66553 10.5495 8.75207 10.6686 8.83861 10.812 8.8852 10.9593 8.88517H12.0923L11.1761 9.55102C11.057 9.63746 10.9683 9.75936 10.9227 9.89929 10.8771 10.0392 10.8769 10.19 10.9223 10.33L11.271 11.4072 10.3547 10.7413C10.2356 10.6547 10.0921 10.608 9.94475 10.608 9.79743 10.608 9.6539 10.6547 9.53476 10.7413L8.61851 11.4072 8.96724 10.33C9.01279 10.1899 9.01283 10.0391 8.96735 9.89903 8.92188 9.75898 8.83323 9.63691 8.71411 9.55035L7.8019 8.8845H8.93627zM43.4881 18.431C43.4426 18.291 43.3539 18.169 43.2348 18.0824 43.1157 17.9959 42.9722 17.9493 42.825 17.9493H40.0534L39.1964 15.3135C39.1506 15.1739 39.0619 15.0523 38.943 14.9661 38.824 14.8799 38.6808 14.8335 38.5339 14.8335 38.387 14.8335 38.2439 14.8799 38.1249 14.9661 38.0059 15.0523 37.9172 15.1739 37.8715 15.3135L37.0131 17.9493H34.2422C34.0949 17.9493 33.9514 17.9959 33.8323 18.0825 33.7132 18.169 33.6245 18.2911 33.579 18.4311 33.5335 18.5712 33.5336 18.7221 33.5791 18.8621 33.6246 19.0021 33.7134 19.1242 33.8325 19.2107L36.0747 20.8403 35.2177 23.4774C35.1726 23.6173 35.1729 23.7678 35.2185 23.9075 35.2641 24.0472 35.3527 24.1689 35.4716 24.2553 35.5905 24.3416 35.7336 24.3882 35.8805 24.3883 36.0275 24.3885 36.1707 24.3422 36.2898 24.256L38.5329 22.6264 40.7761 24.256C40.8951 24.3426 41.0385 24.3893 41.1858 24.3894 41.333 24.3894 41.4764 24.3429 41.5956 24.2564 41.7147 24.1699 41.8034 24.048 41.849 23.908 41.8945 23.768 41.8946 23.6171 41.8492 23.4771L40.9922 20.8399 43.2343 19.2103C43.3535 19.1239 43.4422 19.0019 43.4878 18.8619 43.5334 18.7219 43.5335 18.5711 43.4881 18.431zM39.5097 20.7874L39.8585 21.8646 38.9422 21.2005C38.8231 21.1138 38.6796 21.0672 38.5322 21.0672 38.3849 21.0672 38.2414 21.1138 38.1223 21.2005L37.206 21.8663 37.5547 20.7891C37.6001 20.6489 37.5998 20.4979 37.554 20.3578 37.5081 20.2177 37.4191 20.0958 37.2996 20.0095L36.3874 19.3436H37.5204C37.6676 19.3437 37.8111 19.2971 37.9302 19.2105 38.0493 19.124 38.138 19.002 38.1835 18.8619L38.5322 17.7847 38.8816 18.8626C38.9271 19.0026 39.0158 19.1247 39.1349 19.2112 39.2541 19.2977 39.3975 19.3443 39.5448 19.3443H40.6778L39.7615 20.0102C39.6429 20.0968 39.5547 20.2187 39.5095 20.3585 39.4643 20.4983 39.4644 20.6487 39.5097 20.7884V20.7874zM31.1939 10.3808L30.3369 13.018C30.2917 13.1579 30.2919 13.3086 30.3374 13.4484 30.383 13.5882 30.4716 13.7101 30.5906 13.7965 30.7096 13.883 30.8528 13.9295 30.9999 13.9296 31.147 13.9297 31.2903 13.8832 31.4094 13.7969L33.6525 12.1673 35.8957 13.7969C36.0147 13.8835 36.1581 13.9302 36.3054 13.9302 36.4526 13.9303 36.596 13.8838 36.7152 13.7973 36.8343 13.7108 36.923 13.5888 36.9686 13.4488 37.0141 13.3088 37.0142 13.158 36.9688 13.018L36.1118 10.3808 38.3539 8.7512C38.4731 8.66467 38.5618 8.54262 38.6074 8.40254 38.6529 8.26247 38.6529 8.11157 38.6074 7.97149 38.5618 7.83141 38.4731 7.70936 38.3539 7.62283 38.2347 7.5363 38.0912 7.48975 37.9439 7.48985H35.173L34.316 4.85406C34.2702 4.71444 34.1815 4.59285 34.0626 4.50665 33.9436 4.42044 33.8004 4.37402 33.6535 4.37402 33.5066 4.37402 33.3635 4.42044 33.2445 4.50665 33.1255 4.59285 33.0368 4.71444 32.9911 4.85406L32.1327 7.48985H29.3618C29.2144 7.48972 29.0708 7.53629 28.9516 7.62286 28.8324 7.70943 28.7436 7.83155 28.6981 7.9717 28.6526 8.11185 28.6527 8.26281 28.6983 8.40292 28.744 8.54303 28.8328 8.66507 28.9521 8.75153L31.1939 10.3808zM32.6413 8.8845C32.7886 8.88453 32.932 8.83793 33.0512 8.7514 33.1703 8.66486 33.259 8.54282 33.3045 8.40279L33.6532 7.32558 34.0012 8.40346C34.0467 8.5435 34.1354 8.66553 34.2545 8.75207 34.3737 8.83861 34.5171 8.8852 34.6644 8.88517H35.7974L34.8811 9.55102C34.762 9.63746 34.6733 9.75936 34.6277 9.89929 34.5822 10.0392 34.582 10.19 34.6273 10.33L34.9761 11.4072 34.0598 10.7413C33.9407 10.6547 33.7971 10.608 33.6498 10.608 33.5025 10.608 33.359 10.6547 33.2398 10.7413L32.3236 11.4072 32.6723 10.33C32.7179 10.1899 32.7179 10.0391 32.6724 9.89903 32.627 9.75898 32.5383 9.63691 32.4192 9.55035L31.507 8.8845H32.6413zM19.3424 6.19673L18.4854 8.83387C18.4401 8.97381 18.4403 9.12448 18.4858 9.26432 18.5314 9.40416 18.62 9.52601 18.739 9.61244 18.858 9.69887 19.0013 9.74545 19.1483 9.74552 19.2954 9.74559 19.4387 9.69915 19.5578 9.61283L21.801 7.98321 24.0441 9.61283C24.1632 9.69942 24.3066 9.7461 24.4538 9.74616 24.601 9.74623 24.7445 9.69969 24.8636 9.6132 24.9828 9.52672 25.0715 9.40474 25.117 9.26474 25.1626 9.12474 25.1626 8.97391 25.1172 8.83387L24.2602 6.19673 26.5024 4.56711C26.6215 4.48059 26.7103 4.35854 26.7558 4.21846 26.8013 4.07839 26.8013 3.92749 26.7558 3.78741 26.7103 3.64733 26.6216 3.52528 26.5024 3.43875 26.3832 3.35222 26.2396 3.30567 26.0924 3.30577H23.3214L22.4644.669975C22.4187.530361 22.33.408771 22.211.322564 22.092.236358 21.9489.189941 21.802.189941 21.6551.189941 21.5119.236358 21.3929.322564 21.274.408771 21.1853.530361 21.1395.669975L20.2812 3.30577H17.5102C17.3629 3.30564 17.2193 3.35221 17.1001 3.43878 16.9808 3.52535 16.8921 3.64747 16.8466 3.78762 16.8011 3.92777 16.8011 4.07873 16.8468 4.21884 16.8924 4.35895 16.9813 4.48099 17.1006 4.56745L19.3424 6.19673zM20.7898 4.70042C20.937 4.70045 21.0805 4.65385 21.1996 4.56731 21.3187 4.48078 21.4074 4.35874 21.4529 4.21871L21.803 3.1415 22.1497 4.21938C22.1953 4.35963 22.2841 4.48183 22.4035 4.56838 22.5229 4.65494 22.6667 4.7014 22.8141 4.70109H23.9472L23.0316 5.36627C22.9125 5.4527 22.8238 5.57461 22.7782 5.71453 22.7326 5.85445 22.7325 6.00522 22.7778 6.14523L23.1265 7.22243 22.2103 6.55726C22.0911 6.47061 21.9476 6.42394 21.8003 6.42394 21.653 6.42394 21.5094 6.47061 21.3903 6.55726L20.474 7.22311 20.8228 6.1459C20.8681 6.00566 20.8678 5.85466 20.822 5.71458 20.7762 5.57451 20.6871 5.45256 20.5676 5.36627L19.6554 4.70042H20.7898z" class="colorfff svgShape"></path><path fill="#000000" stroke="#000000" d="M25.9848 31.1968H17.6181C14.6542 31.2002 11.7833 32.2328 9.49629 34.1182C7.20924 36.0037 5.64792 38.6249 5.07915 41.534C5.0613 41.6343 5.06564 41.7373 5.09187 41.8357C5.1181 41.9341 5.16559 42.0256 5.23098 42.1037C5.29638 42.1819 5.37809 42.2447 5.47038 42.2878C5.56267 42.3309 5.66329 42.3533 5.76516 42.3533H37.8378C37.9395 42.3533 38.04 42.3311 38.1322 42.2881C38.2244 42.2452 38.3061 42.1825 38.3715 42.1046C38.437 42.0268 38.4846 41.9355 38.511 41.8373C38.5374 41.739 38.542 41.6362 38.5245 41.536C38.0085 38.9938 36.7293 36.6696 34.8578 34.8735C33.6954 33.7043 32.3126 32.7774 30.7896 32.1463C29.2665 31.5152 27.6334 31.1925 25.9848 31.1968ZM25.148 32.5915L23.9881 38.8669H19.6162L18.4546 32.5915H25.148ZM6.63024 40.959C7.27122 38.6518 8.62157 36.6047 10.4901 35.1074C12.3587 33.61 14.6509 32.7383 17.0422 32.6157L18.3509 39.6909C18.3805 39.8513 18.4654 39.9962 18.5908 40.1005C18.7162 40.2047 18.8742 40.2617 19.0373 40.2615H24.5677C24.7306 40.2615 24.8883 40.2045 25.0134 40.1003C25.1386 39.9961 25.2234 39.8514 25.253 39.6913L26.5611 32.6194C29.3174 32.7502 31.9254 33.9061 33.8736 35.8605C35.3267 37.2655 36.3928 39.0216 36.969 40.959H6.63024Z" class="colorfff svgShape colorStrokefff svgStroke"></path></g><defs><clipPath id="a"><rect width="43.445" height="42.331" fill="#000000" transform="translate(.078 .19)" class="colorfff svgShape"></rect></clipPath></defs></svg></g></svg>