<svg width="40" height="43" viewBox="0 0 40 43" fill="none" xmlns="http://www.w3.org/2000/svg">
<g clip-path="url(#clip0_1_8589)">
<path d="M19.8628 26.216C21.7094 26.2162 23.5146 25.6717 25.0501 24.6512C26.5857 23.6307 27.7826 22.1801 28.4895 20.4828C29.1964 18.7855 29.3816 16.9178 29.0216 15.1158C28.6616 13.3138 27.7727 11.6585 26.4671 10.3591C25.1616 9.05982 23.4982 8.17484 21.6871 7.81612C19.8761 7.4574 17.9988 7.64105 16.2926 8.34385C14.5865 9.04665 13.1281 10.237 12.102 11.7645C11.0758 13.2919 10.5279 15.0878 10.5276 16.925C10.53 19.3879 11.5142 21.7492 13.2643 23.491C15.0144 25.2328 17.3875 26.2128 19.8628 26.216ZM19.8628 8.92628C21.4533 8.92621 23.0081 9.39541 24.3305 10.2745C25.6529 11.1537 26.6836 12.4032 27.2922 13.8652C27.9008 15.3272 28.06 16.9359 27.7496 18.4878C27.4393 20.0398 26.6733 21.4654 25.5486 22.5842C24.4239 23.7031 22.991 24.4649 21.431 24.7735C19.8711 25.082 18.2542 24.9234 16.7849 24.3176C15.3156 23.7118 14.0599 22.6861 13.1765 21.3703C12.2931 20.0544 11.8218 18.5074 11.8221 16.925C11.8249 14.8042 12.6729 12.7711 14.1803 11.2715C15.6877 9.77198 17.7312 8.92845 19.8628 8.92595V8.92628Z" fill="black" stroke="black"/>
<path d="M16.6517 18.4661L16.1156 21.5758C16.0953 21.6943 16.1087 21.8161 16.1543 21.9274C16.1999 22.0388 16.2758 22.1352 16.3736 22.2059C16.4714 22.2765 16.587 22.3186 16.7075 22.3273C16.8281 22.336 16.9486 22.311 17.0556 22.2551L19.862 20.787L22.6687 22.2551C22.7757 22.3111 22.8963 22.3362 23.0168 22.3276C23.1374 22.3189 23.2532 22.2769 23.351 22.2062C23.4488 22.1355 23.5248 22.039 23.5703 21.9276C23.6159 21.8162 23.6292 21.6943 23.6087 21.5758L23.0732 18.4661L25.3438 16.264C25.4303 16.18 25.4914 16.0735 25.5203 15.9567C25.5492 15.8399 25.5446 15.7174 25.5072 15.603C25.4697 15.4886 25.4008 15.387 25.3083 15.3095C25.2159 15.232 25.1034 15.1818 24.9838 15.1646L21.8455 14.711L20.4423 11.882C20.3826 11.7816 20.2977 11.6983 20.1958 11.6405C20.0939 11.5827 19.9786 11.5522 19.8613 11.5522C19.744 11.5522 19.6288 11.5827 19.5269 11.6405C19.425 11.6983 19.3401 11.7816 19.2804 11.882L17.8772 14.711L14.7392 15.1646C14.6195 15.1817 14.507 15.2318 14.4144 15.3093C14.3219 15.3868 14.2529 15.4885 14.2155 15.6029C14.178 15.7173 14.1735 15.8399 14.2024 15.9567C14.2313 16.0736 14.2926 16.18 14.3792 16.264L16.6517 18.4661ZM18.4015 15.9377C18.5055 15.9226 18.6042 15.8827 18.6891 15.8212C18.7741 15.7598 18.8427 15.6787 18.8892 15.585L19.862 13.6236L20.8348 15.585C20.8812 15.6787 20.9499 15.7598 21.0349 15.8212C21.1198 15.8827 21.2185 15.9226 21.3225 15.9377L23.4988 16.2523L21.9244 17.7793C21.8492 17.8523 21.793 17.9423 21.7605 18.0417C21.728 18.1411 21.7202 18.2468 21.7378 18.3498L22.1096 20.506L20.1631 19.488C20.0701 19.4394 19.9667 19.414 19.8617 19.414C19.7566 19.414 19.6532 19.4394 19.5602 19.488L17.614 20.506L17.9858 18.3498C18.0035 18.2468 17.9957 18.1411 17.9632 18.0417C17.9307 17.9423 17.8745 17.8523 17.7993 17.7793L16.2246 16.2523L18.4015 15.9377Z" fill="black" stroke="black"/>
<path d="M0.860707 38.218C0.937327 38.3214 1.04329 38.3996 1.16496 38.4426C1.28664 38.4856 1.41846 38.4914 1.54348 38.4593L6.47836 37.1951L7.57714 42.145C7.60491 42.2702 7.66957 42.3844 7.76286 42.4728C7.85614 42.5613 7.97381 42.6201 8.10084 42.6417C8.13643 42.6475 8.17245 42.6505 8.20853 42.6504C8.31921 42.6504 8.42804 42.6222 8.52465 42.5684C8.62125 42.5146 8.7024 42.4372 8.76037 42.3434L14.4621 33.1104C14.4949 33.1241 14.523 33.1465 14.5584 33.1579C14.7063 33.2063 14.8609 33.231 15.0166 33.2312C15.9599 33.2312 16.8731 32.3392 17.8315 31.403C18.4861 30.7637 19.3826 29.8887 19.8608 29.8887C20.339 29.8887 21.2355 30.7637 21.8902 31.403C23.003 32.491 24.056 33.5178 25.1692 33.1566C25.3023 33.1099 25.4284 33.0453 25.5439 32.9645L31.3396 42.3434C31.3977 42.4371 31.4788 42.5145 31.5754 42.5682C31.672 42.6219 31.7808 42.6501 31.8915 42.6501C31.9276 42.6502 31.9636 42.6472 31.9992 42.6413C32.1262 42.6197 32.2439 42.561 32.3372 42.4725C32.4304 42.384 32.4951 42.2699 32.5229 42.1447L33.6217 37.1947L38.5562 38.4589C38.6812 38.491 38.813 38.4851 38.9346 38.4421C39.0562 38.3991 39.1621 38.321 39.2388 38.2177C39.3155 38.1144 39.3594 37.9906 39.3649 37.8623C39.3704 37.734 39.3373 37.607 39.2697 37.4976L33.0757 27.458C33.3382 27.3537 33.5669 27.1799 33.7372 26.9555C34.4327 26.0049 33.7392 24.6196 33.0685 23.2798C32.6643 22.4725 32.1111 21.3673 32.2532 20.9286C32.3841 20.531 33.4511 19.9842 34.2291 19.5833C35.5986 18.8789 37.0146 18.1504 37.0146 16.9299C37.0146 15.7093 35.597 14.974 34.2259 14.2683C33.4485 13.8677 32.3834 13.3193 32.2538 12.9243C32.1111 12.486 32.6646 11.3801 33.0688 10.5728C33.7395 9.23301 34.4331 7.84735 33.7382 6.89807C33.0367 5.93478 31.484 6.16632 29.9829 6.38907C29.0959 6.52161 27.8806 6.70235 27.5183 6.44117C27.1661 6.18618 26.9671 4.99005 26.8218 4.11697C26.5723 2.61896 26.3144 1.06688 25.1669 0.695637C24.0579 0.335462 23.0066 1.3629 21.8915 2.45027C21.2368 3.08953 20.3403 3.96456 19.8621 3.96456C19.3839 3.96456 18.4891 3.08953 17.8348 2.45059C16.7219 1.36258 15.6676 0.333834 14.5597 0.695311C13.4111 1.06688 13.1522 2.61668 12.9038 4.11697C12.7585 4.99005 12.5595 6.18618 12.2083 6.44052C11.8456 6.70104 10.6306 6.52096 9.74296 6.38907C8.24093 6.16664 6.68882 5.9351 5.98772 6.89709C5.29251 7.84735 5.95499 9.17146 6.65674 10.5724C7.06097 11.3801 7.61446 12.4857 7.4724 12.9224C7.34148 13.3197 6.27706 13.8668 5.49969 14.2683C4.12859 14.9743 2.711 15.7041 2.711 16.9299C2.711 18.1556 4.12695 18.8792 5.49642 19.5833C6.27542 19.9835 7.34246 20.5326 7.47207 20.9279C7.61478 21.3666 7.0613 22.4722 6.65707 23.2798C5.98608 24.6196 5.29283 26.0049 5.98739 26.9545C6.22834 27.2678 6.57541 27.4834 6.96409 27.5612L0.830267 37.4979C0.762715 37.6073 0.729525 37.7343 0.734948 37.8626C0.740371 37.9908 0.78416 38.1146 0.860707 38.218ZM33.2973 35.7808C33.2131 35.7591 33.1253 35.7546 33.0393 35.7674C32.9533 35.7803 32.8708 35.8102 32.7966 35.8554C32.7225 35.9007 32.6583 35.9603 32.6078 36.0308C32.5574 36.1013 32.5217 36.1812 32.5029 36.2657L31.6064 40.3103L26.3547 31.812C26.5729 31.1325 26.7299 30.435 26.8237 29.7278C26.9098 29.2087 26.9985 28.6717 27.115 28.2444C27.2849 27.6498 27.4374 27.4704 27.5173 27.4137C27.6407 27.3245 27.951 27.2326 28.7382 27.3059C29.1349 27.3385 29.563 27.4036 29.9921 27.4655C30.5487 27.5557 31.1095 27.6171 31.6725 27.6495L37.3294 36.815L33.2973 35.7808ZM7.81739 23.8546C8.43142 22.6285 9.01109 21.4708 8.70538 20.53C8.4108 19.6302 7.2842 19.0512 6.09213 18.4386C5.26207 18.012 4.00781 17.3669 4.00781 16.9302C4.00781 16.4886 5.26468 15.8412 6.09671 15.413C7.28649 14.8004 8.41048 14.2214 8.70604 13.321C9.01142 12.3821 8.43142 11.2241 7.81772 9.99928C7.43869 9.24213 6.80305 7.97468 7.0374 7.65456C7.277 7.32533 8.70178 7.53765 9.55247 7.66401C10.9026 7.86494 12.1791 8.05479 12.9706 7.48359C13.7519 6.91793 13.9614 5.65992 14.1816 4.32767C14.3234 3.47576 14.5607 2.05036 14.9606 1.92108C15.3181 1.80059 16.3265 2.78471 16.9268 3.37057C17.9186 4.33907 18.8556 5.25383 19.8618 5.25383C20.868 5.25383 21.805 4.33907 22.7971 3.37057C23.3974 2.78439 24.3957 1.80384 24.7639 1.9214C25.1633 2.05167 25.4002 3.47576 25.542 4.32767C25.7636 5.6596 25.973 6.9176 26.7553 7.48424C27.5461 8.05512 28.822 7.86526 30.1724 7.66401C31.0235 7.53765 32.4473 7.32598 32.6882 7.65554C32.9209 7.97338 32.2865 9.24083 31.9072 9.9983C31.2935 11.2241 30.7138 12.3821 31.0195 13.3229C31.3141 14.2217 32.4384 14.8004 33.6282 15.413C34.4599 15.8412 35.7171 16.4876 35.7171 16.9302C35.7171 17.3666 34.4625 18.0117 33.6328 18.4386C32.4407 19.0512 31.3151 19.6305 31.0195 20.53C31.0197 20.5306 31.0197 20.5313 31.0195 20.5319C30.7141 21.4711 31.2941 22.6288 31.9078 23.8536C32.2872 24.6108 32.9225 25.8782 32.6885 26.1983C32.5837 26.2884 32.4514 26.3405 32.3131 26.3462C31.5984 26.3827 30.8821 26.33 30.1806 26.1892C29.7244 26.1221 29.2678 26.0554 28.8511 26.0209C28.1844 25.9593 27.3455 25.9434 26.7596 26.3661C26.2519 26.7266 26.0166 27.3707 25.8657 27.8983C25.7298 28.3962 25.6366 28.9661 25.5443 29.5171C25.3953 30.4175 25.2097 31.5384 24.8674 31.8661C24.8376 31.8947 24.8022 31.9169 24.7633 31.9312C24.4032 32.0507 23.3977 31.0675 22.7994 30.4817C21.8064 29.5132 20.8706 28.5978 19.8631 28.5978C18.8556 28.5978 17.9202 29.5125 16.9281 30.481C16.3278 31.0672 15.3298 32.0484 14.961 31.9305C14.9018 31.9068 14.8505 31.867 14.813 31.8156C14.8088 31.8091 14.8055 31.8025 14.8009 31.796C14.4972 31.401 14.3047 30.2547 14.1829 29.5243C13.9614 28.1923 13.7519 26.9343 12.9696 26.3677C12.1788 25.7968 10.903 25.9867 9.55247 26.1876C8.70146 26.3143 7.27667 26.5256 7.03675 26.1964C6.80403 25.8795 7.43869 24.6121 7.81739 23.8546ZM8.44484 27.627C8.86806 27.5902 9.30698 27.5293 9.74362 27.4642C10.6316 27.3339 11.8469 27.1515 12.2083 27.4124C12.5605 27.6674 12.7595 28.8635 12.9048 29.7366C13.002 30.5689 13.2122 31.3843 13.5296 32.1604L8.4982 40.3096L7.60038 36.2653C7.58161 36.1808 7.54592 36.101 7.49545 36.0305C7.44499 35.96 7.38077 35.9004 7.30664 35.8551C7.2325 35.8099 7.14997 35.7799 7.06395 35.7671C6.97794 35.7543 6.89021 35.7588 6.80599 35.7804L2.77483 36.8134L8.44484 27.627Z" fill="black" stroke="black"/>
</g>
<defs>
<clipPath id="clip0_1_8589">
<rect width="38.989" height="42.3309" fill="white" transform="translate(0.734375 0.621582)"/>
</clipPath>
</defs>
</svg>
