<svg width="38" height="43" viewBox="0 0 38 43" fill="none" xmlns="http://www.w3.org/2000/svg">
<g clip-path="url(#clip0_1_8597)">
<path d="M36.9 23.6154H36.1961C35.0103 23.6154 31.5965 23.6499 30.8268 23.6406C29.888 23.0419 28.9777 22.4806 28.0796 21.9853C27.0026 21.373 25.8839 20.8377 24.7316 20.3834C24.0797 20.1252 23.405 19.929 22.7164 19.7973L22.5381 19.7721C22.3136 19.7434 22.0855 19.767 21.8715 19.8409H21.8309C21.7622 19.8661 20.0443 20.5776 19.5529 20.8315L19.1085 21.0541C18.2056 20.7407 16.2017 20.427 15.5822 20.4994C14.9627 20.5718 12.5728 21.2619 12.0784 21.396C10.8194 21.7426 9.67406 22.4164 8.75852 23.3491C7.86364 23.3711 4.52501 23.3898 2.39438 23.3931C2.26883 23.3842 2.14283 23.4024 2.02493 23.4466C1.90702 23.4907 1.79994 23.5597 1.71094 23.6489C1.62194 23.738 1.55309 23.8453 1.50905 23.9634C1.465 24.0816 1.44679 24.2078 1.45564 24.3336L1.44016 35.0172C1.43444 35.1443 1.45449 35.2712 1.49911 35.3902C1.54373 35.5093 1.61199 35.6181 1.69976 35.71C1.79444 35.7967 1.90551 35.8636 2.02642 35.9067C2.14733 35.9498 2.27563 35.9681 2.40373 35.9607C2.68526 35.9607 6.11773 35.9261 8.07325 35.9167C7.81027 36.3036 7.69175 36.7709 7.73852 37.2366C7.82757 37.7991 8.10503 38.3144 8.52526 38.6978C8.94549 39.0813 9.48347 39.31 10.0507 39.3464C10.1266 39.3542 10.2031 39.3542 10.279 39.3464C10.4375 39.738 10.7027 40.0771 11.0443 40.3249C11.3859 40.5728 11.7902 40.7194 12.211 40.7481C12.5308 40.7504 12.845 40.6636 13.1184 40.4973C13.3158 40.8469 13.5909 41.1461 13.9225 41.3718C14.254 41.5975 14.6331 41.7435 15.0301 41.7985C15.3974 41.8278 15.7661 41.7653 16.1033 41.6166C16.2364 41.8225 16.4073 42.0012 16.607 42.1432C17.1347 42.4596 17.738 42.6271 18.3529 42.6279C18.445 42.6275 18.5369 42.6222 18.6283 42.612C18.9411 42.5797 19.1978 42.3642 19.7799 41.7968L19.9018 41.687C20.0614 41.687 20.2865 41.7028 20.4055 41.7122C20.7797 41.8297 21.1777 41.8488 21.5613 41.7675C21.9449 41.6862 22.3012 41.5074 22.5958 41.2482C23.2811 41.2828 24.2105 41.1261 24.7142 40.1603C25.7403 40.3203 26.5917 39.9878 27.1141 39.191C29.1541 38.9497 29.4482 37.6579 29.5649 37.1555C29.8123 36.9394 30.1186 36.6415 30.3879 36.3717L30.7007 36.0583L36.6456 36.1303H36.6895C36.7697 36.135 36.8501 36.135 36.9304 36.1303C37.1262 36.1162 37.3111 36.0349 37.4542 35.9001C37.5972 35.7654 37.6895 35.5854 37.7156 35.3904C37.7156 35.3216 37.7478 24.5624 37.7343 24.4183C37.719 24.2048 37.6256 24.0045 37.472 23.8558C37.3184 23.7071 37.1154 23.6204 36.902 23.6124L36.9 23.6154ZM10.2355 38.1116H10.1761C9.88247 38.0987 9.60222 37.9847 9.38272 37.7888C9.16323 37.5929 9.01793 37.3271 8.97136 37.0363C9.00249 36.8353 9.08195 36.6449 9.2029 36.4815L9.76304 35.9736C9.81508 35.9344 9.86324 35.8902 9.90687 35.8418C10.4199 35.384 10.974 34.9012 11.2116 34.6977C11.3525 34.6915 11.4923 34.7242 11.6159 34.7921C11.7394 34.8601 11.842 34.9608 11.9124 35.0831C11.9968 35.2028 12.0495 35.342 12.0656 35.4877L10.2355 38.1116ZM12.8608 39.2027C12.6844 39.3207 12.4943 39.4165 12.2945 39.488C12.0725 39.4755 11.8606 39.3906 11.6911 39.2463C11.5216 39.102 11.4039 38.9062 11.3558 38.6886L13.477 35.6573C13.5896 35.5319 15.292 33.6508 15.4484 33.4848C15.557 33.3929 15.6846 33.3262 15.8219 33.2893C15.9592 33.2525 16.103 33.2464 16.243 33.2715C16.403 33.291 16.5563 33.3475 16.6906 33.4368C16.825 33.526 16.9367 33.6455 17.0169 33.7856C17.0331 33.8157 17.0467 33.8472 17.0575 33.8796L12.8608 39.2027ZM15.9708 40.3031C15.7427 40.4244 15.4982 40.5115 15.2449 40.5616C15.0054 40.5359 14.7773 40.4465 14.584 40.3026C14.3907 40.1587 14.2394 39.9655 14.1459 39.7432L14.102 39.6647C14.102 39.6647 18.8902 33.6689 18.9434 33.6098C19.0226 33.517 19.1218 33.4434 19.2335 33.3945C19.3453 33.3457 19.4666 33.3228 19.5884 33.3277C19.7648 33.333 19.9378 33.3777 20.0948 33.4586C20.2518 33.5394 20.3888 33.6543 20.4958 33.7949C20.7022 34.0395 20.4707 34.6541 20.3549 34.8483L15.9708 40.3031ZM20.955 40.5413L21.7183 39.6689V40.3274C21.6135 40.4151 21.4912 40.4795 21.3596 40.5163C21.228 40.553 21.0901 40.5613 20.955 40.5406V40.5413ZM22.163 37.0938C22.084 37.2993 21.9648 37.4869 21.8125 37.6456C20.3794 39.3229 19.0372 40.7797 18.9028 40.9061C18.7683 41.0324 18.5242 41.2728 18.3958 41.3762C18.0105 41.3861 17.6298 41.2907 17.2946 41.1002C17.2263 41.0375 17.1683 40.9646 17.1224 40.8841L21.1272 35.9025H21.4526C21.578 35.9257 21.6971 35.9754 21.8017 36.0484C21.9064 36.1214 21.9943 36.216 22.0595 36.3258C22.1308 36.4377 22.177 36.5638 22.1948 36.6953C22.2126 36.8269 22.2017 36.9608 22.1627 37.0877L22.163 37.0938ZM22.986 39.9842C22.986 39.6111 22.958 39.1597 22.9421 38.7678C22.9421 38.5952 22.9263 38.4072 22.9202 38.2725C23.1143 38.0326 23.2638 37.7596 23.3614 37.4667C23.4479 37.1793 23.4746 36.8771 23.4399 36.579C23.4052 36.2808 23.3098 35.993 23.1596 35.7332C23.0095 35.4735 22.8077 35.2474 22.5669 35.0689C22.326 34.8904 22.0511 34.7633 21.7593 34.6954C21.8829 34.2664 21.8642 33.8088 21.7061 33.3914C22.4226 34.1345 23.1015 34.8806 23.3394 35.15C23.5397 36.4499 23.6442 37.7627 23.6522 39.078V39.4447C23.6082 39.5907 23.5208 39.7199 23.4017 39.815C23.2827 39.9102 23.1376 39.9668 22.9857 39.9775L22.986 39.9842ZM36.4657 34.8838L35.2141 34.868V33.6127C34.8095 33.7579 34.3672 33.7579 33.9626 33.6127V34.8353L30.4833 34.7914C30.1892 34.7914 30.0828 34.8883 29.5259 35.4402L29.4695 34.0641C29.3975 32.3148 29.363 31.4793 29.3569 31.393C29.335 31.111 29.3318 31.0609 25.3769 27.0199C25.2607 26.9005 25.1019 26.8323 24.9356 26.8303C24.7692 26.8282 24.6088 26.8925 24.4897 27.0089C24.3706 27.1253 24.3026 27.2843 24.3005 27.451C24.2985 27.6177 24.3626 27.7784 24.4788 27.8977C24.9857 28.4147 27.5262 31.0318 28.1115 31.678C28.1302 32.1106 28.3272 36.8256 28.3305 36.8757C28.2965 37.1234 28.1813 37.3528 28.0028 37.5276C27.8244 37.7024 27.5929 37.8127 27.345 37.8411C27.295 37.1264 27.0322 33.1668 27.0322 33.1042C27.0102 32.7907 27.0102 32.7908 23.4997 29.3423L22.9796 28.8289C22.8622 28.7145 22.705 28.6505 22.5413 28.6505C22.3776 28.6505 22.2203 28.7145 22.103 28.8289C21.9857 28.9432 21.9175 29.0989 21.913 29.2629C21.9085 29.4269 21.968 29.5861 22.0789 29.7068C22.0914 29.7756 25.2798 32.9106 25.7835 33.4373C25.8022 33.71 26.0963 38.1991 26.1247 38.403C26.0089 38.6224 25.7303 39.0492 24.9012 38.9141C24.8926 37.5392 24.7754 36.1672 24.5507 34.8108C24.5507 34.5788 24.441 34.4596 23.1895 33.1307C22.7171 32.5979 21.7783 31.6573 21.1369 31.0554C21.0124 30.9431 20.8485 30.885 20.6813 30.8938C20.514 30.9026 20.3571 30.9777 20.2451 31.1024C20.133 31.2271 20.075 31.3913 20.0838 31.5589C20.0926 31.7265 20.1675 31.8837 20.292 31.9959C20.4078 32.1025 20.5361 32.2221 20.6706 32.3533C20.3515 32.1886 20 32.0966 19.6412 32.0838C19.336 32.0689 19.0314 32.1231 18.75 32.2423C18.4685 32.3616 18.2175 32.5429 18.0156 32.7727L17.9157 32.8886C17.5553 32.4314 17.0354 32.1279 16.4606 32.0392C16.1398 31.9857 15.8113 32.0026 15.4977 32.0887C15.184 32.1749 14.8928 32.3282 14.6441 32.5381C14.5848 32.5853 14.5754 32.5946 13.0075 34.3281L12.9604 34.3781L12.9417 34.3529C12.7229 34.0192 12.4102 33.7579 12.0432 33.6022C11.6762 33.4465 11.2713 33.4034 10.8798 33.4783C10.7508 33.5003 10.6202 33.5223 9.33189 34.6757C8.79045 34.6318 7.67047 34.6285 5.2235 34.6757V29.4363C4.8189 29.5815 4.37655 29.5815 3.97195 29.4363V34.6935L2.72041 34.7122L2.73621 24.6616H3.98775V25.8874C4.39235 25.7422 4.83471 25.7422 5.2393 25.8874V24.6438C9.30674 24.6438 9.32866 24.5998 9.5228 24.3837C10.3082 23.5223 11.3234 22.9044 12.4483 22.6031C13.7969 22.2238 15.4084 21.7973 15.7431 21.7537C16.3577 21.769 16.9695 21.8424 17.5703 21.973L16.4094 22.6377C16.1861 22.7591 16.0163 22.9599 15.9334 23.2005C15.7665 23.6744 15.5976 24.1488 15.4264 24.6238C15.1575 25.3824 14.885 26.1443 14.6222 26.9029C14.6222 26.9187 14.0965 28.6153 14.2062 29.1287C14.2593 29.3953 14.3832 29.6425 14.5648 29.8445C14.7464 30.0464 14.979 30.1955 15.2381 30.2761C15.5392 30.3849 15.8567 30.4411 16.1768 30.4421C16.7482 30.4326 17.3066 30.2703 17.7944 29.972C18.4309 29.5912 18.9946 29.0997 19.459 28.5207C20.1251 27.7134 20.6856 26.8243 21.1269 25.8748C21.2585 25.9071 22.4597 26.1882 22.9292 26.3229C23.0101 26.3477 23.0951 26.3558 23.1791 26.3467C23.2631 26.3377 23.3444 26.3117 23.4182 26.2703C23.4919 26.2289 23.5565 26.173 23.6081 26.106C23.6597 26.0389 23.6971 25.962 23.7183 25.8801C23.7394 25.7981 23.7438 25.7126 23.7311 25.6289C23.7184 25.5452 23.6889 25.465 23.6444 25.393C23.5999 25.321 23.5413 25.2588 23.4721 25.2101C23.403 25.1614 23.3247 25.1273 23.2421 25.1097C22.7664 24.9805 22.3033 24.8651 21.8122 24.7491C21.5461 24.6845 21.2772 24.6199 21.0144 24.5517C20.8411 24.5035 20.6561 24.5216 20.4953 24.6023C20.3345 24.683 20.2093 24.8206 20.144 24.9885C19.7264 25.9728 19.1688 26.8914 18.4887 27.7158C18.1221 28.185 17.6742 28.5842 17.1665 28.8945C16.9482 29.0445 16.6978 29.1414 16.4354 29.1773C16.1731 29.2132 15.9059 29.1872 15.6554 29.1013C15.4896 29.0418 15.449 28.982 15.4297 28.9258C15.51 28.3862 15.6324 27.8537 15.7957 27.3333C16.0605 26.5727 16.3275 25.8151 16.5967 25.0606C16.758 24.6082 16.9095 24.1578 17.0804 23.7061C17.6873 23.3614 21.1698 21.4364 21.5329 21.2923C21.8281 21.1525 22.1462 21.0675 22.4717 21.0415C23.09 21.1555 23.6957 21.3299 24.2801 21.5621C25.378 21.9969 26.4447 22.507 27.4727 23.0887C28.3927 23.5998 29.3501 24.1734 30.2886 24.794C30.4575 24.9039 30.482 24.9194 33.9619 24.8942V30.0573C34.3684 29.9175 34.8107 29.9231 35.2135 30.0732V24.8851H36.465C36.4837 26.5624 36.4837 33.1581 36.465 34.876L36.4657 34.8838Z" fill="black"/>
<path d="M4.59148 28.2772C4.93878 28.2772 5.22032 27.9964 5.22032 27.6501C5.22032 27.3037 4.93878 27.0229 4.59148 27.0229C4.24419 27.0229 3.96265 27.3037 3.96265 27.6501C3.96265 27.9964 4.24419 28.2772 4.59148 28.2772Z" fill="black" stroke="black"/>
<path d="M34.5658 32.4686C34.9131 32.4686 35.1947 32.1879 35.1947 31.8415C35.1947 31.4951 34.9131 31.2144 34.5658 31.2144C34.2186 31.2144 33.937 31.4951 33.937 31.8415C33.937 32.1879 34.2186 32.4686 34.5658 32.4686Z" fill="black" stroke="black"/>
<path d="M37.4302 22.1606C37.3102 22.1606 37.1883 22.1574 37.068 22.1509C36.8691 22.1403 36.7014 22.1322 36.555 22.1257V9.79946L27.2076 5.70093V9.93968H29.6955C29.8648 9.93867 30.0277 10.0048 30.1486 10.1235C30.2079 10.1817 30.255 10.2511 30.2871 10.3278C30.3192 10.4045 30.3356 10.4869 30.3353 10.5701V21.3764C29.8771 21.1898 29.4523 20.9295 29.0776 20.6059L29.0212 20.5619V11.2007H18.4642L18.479 19.3487C18.1504 19.3467 17.9134 19.3419 17.7744 19.3345C17.7473 19.3345 17.7183 19.3322 17.6886 19.3322C17.5077 19.3353 17.3274 19.3524 17.1491 19.3832V6.78687H7.33991V22.1509H6.06031V6.12129C6.06006 6.03813 6.07645 5.95577 6.10852 5.87908C6.14059 5.80238 6.18769 5.7329 6.24702 5.67476C6.36793 5.55599 6.53078 5.48991 6.70011 5.49092H7.83717V3.10935C7.83692 3.02619 7.85331 2.94383 7.88539 2.86714C7.91746 2.79044 7.96455 2.72097 8.02389 2.66282C8.14479 2.54405 8.30765 2.47797 8.47697 2.47898H11.6392V1.25217C11.639 1.16889 11.6555 1.08642 11.6878 1.00966C11.72 0.932898 11.7673 0.863411 11.8269 0.805322C11.9484 0.6874 12.1108 0.62146 12.28 0.62146C12.4491 0.62146 12.6116 0.6874 12.7331 0.805322C12.7924 0.863465 12.8395 0.932939 12.8716 1.00964C12.9036 1.08633 12.92 1.16869 12.9198 1.25185V2.47801H15.6563C15.7406 2.47735 15.8242 2.49369 15.902 2.52605C15.9798 2.55841 16.0504 2.60614 16.1094 2.66638C16.2318 2.79468 16.2989 2.96612 16.2961 3.1436V5.52581H17.8244C17.9949 5.5238 18.16 5.58634 18.2865 5.70093C18.4021 5.82404 18.4658 5.98715 18.4642 6.15618V9.93968H25.928V4.72C25.9268 4.61541 25.9523 4.51224 26.0021 4.4203C26.0518 4.32835 26.1242 4.25068 26.2124 4.19464C26.3146 4.13225 26.4317 4.09876 26.5513 4.09771C26.6436 4.09842 26.7344 4.12054 26.8167 4.16233L37.4789 8.85374C37.5953 8.90335 37.6946 8.98635 37.7641 9.09229C37.8337 9.19824 37.8704 9.32241 37.8697 9.44922V22.147C37.7156 22.1561 37.5717 22.1606 37.4302 22.1606ZM9.11709 3.77429V5.52581H14.9811V3.77429H9.11709ZM34.4224 19.9235H32.6452C32.4785 19.9197 32.3195 19.8523 32.2006 19.7351C32.0818 19.6179 32.0119 19.4597 32.0054 19.2928C32.0051 19.2096 32.0215 19.1273 32.0535 19.0506C32.0855 18.9739 32.1325 18.9044 32.1918 18.8463C32.3127 18.7275 32.4756 18.6614 32.6449 18.6624H34.4224C34.5917 18.6614 34.7546 18.7275 34.8755 18.8463C34.9346 18.9046 34.9815 18.9741 35.0135 19.0508C35.0456 19.1275 35.0621 19.2098 35.0621 19.2929C35.0621 19.3761 35.0456 19.4584 35.0135 19.5351C34.9815 19.6117 34.9346 19.6813 34.8755 19.7396C34.7546 19.8584 34.5917 19.9245 34.4224 19.9235ZM14.5193 16.981H13.9859C13.8166 16.982 13.6537 16.916 13.5328 16.7972C13.4737 16.7388 13.4268 16.6693 13.3948 16.5926C13.3627 16.5159 13.3462 16.4336 13.3462 16.3505C13.3462 16.2673 13.3627 16.185 13.3948 16.1084C13.4268 16.0317 13.4737 15.9621 13.5328 15.9038C13.6537 15.785 13.8166 15.7189 13.9859 15.7199H14.5193C14.6886 15.7189 14.8515 15.785 14.9724 15.9038C15.0315 15.9621 15.0784 16.0317 15.1104 16.1084C15.1424 16.185 15.1589 16.2673 15.1589 16.3505C15.1589 16.4336 15.1424 16.5159 15.1104 16.5926C15.0784 16.6693 15.0315 16.7388 14.9724 16.7972C14.8515 16.916 14.6886 16.982 14.5193 16.981ZM10.5031 16.981H9.96973C9.80041 16.982 9.63755 16.9159 9.51664 16.7972C9.45751 16.7388 9.41055 16.6693 9.37849 16.5926C9.34643 16.5159 9.32993 16.4336 9.32993 16.3505C9.32993 16.2673 9.34643 16.185 9.37849 16.1083C9.41055 16.0316 9.45751 15.9621 9.51664 15.9038C9.63755 15.785 9.80041 15.7189 9.96973 15.7199H10.5028C10.6721 15.7189 10.835 15.785 10.9559 15.9038C11.015 15.9621 11.062 16.0316 11.094 16.1083C11.1261 16.185 11.1426 16.2673 11.1426 16.3505C11.1426 16.4336 11.1261 16.5159 11.094 16.5926C11.062 16.6693 11.015 16.7388 10.9559 16.7972C10.835 16.9158 10.6723 16.9819 10.5031 16.981ZM34.4227 16.876H32.6452C32.4759 16.877 32.313 16.8109 32.1921 16.6921C32.133 16.6338 32.0861 16.5643 32.0541 16.4876C32.022 16.4109 32.0056 16.3286 32.0056 16.2455C32.0056 16.1623 32.022 16.08 32.0541 16.0033C32.0861 15.9267 32.133 15.8571 32.1921 15.7988C32.313 15.68 32.4759 15.6139 32.6452 15.6149H34.4224C34.5917 15.6139 34.7546 15.68 34.8755 15.7988C34.9346 15.8571 34.9815 15.9267 35.0135 16.0033C35.0456 16.08 35.0621 16.1623 35.0621 16.2455C35.0621 16.3286 35.0456 16.4109 35.0135 16.4876C34.9815 16.5643 34.9346 16.6338 34.8755 16.6921C34.7546 16.8108 34.5917 16.8768 34.4224 16.8757L34.4227 16.876ZM25.7158 15.4747C25.5464 15.4757 25.3836 15.4097 25.2627 15.2909C25.2034 15.2327 25.1563 15.1632 25.1242 15.0865C25.0921 15.0099 25.0757 14.9275 25.076 14.8443V13.688C25.0757 13.6048 25.0921 13.5224 25.1242 13.4458C25.1563 13.3691 25.2034 13.2996 25.2627 13.2414C25.3842 13.1234 25.5467 13.0574 25.7159 13.0574C25.8851 13.0574 26.0477 13.1234 26.1692 13.2414C26.2285 13.2996 26.2756 13.3691 26.3077 13.4458C26.3398 13.5224 26.3561 13.6048 26.3559 13.688V14.844C26.3561 14.9272 26.3398 15.0095 26.3077 15.0862C26.2756 15.1629 26.2285 15.2324 26.1692 15.2905C26.048 15.4096 25.8846 15.4757 25.7148 15.4744L25.7158 15.4747ZM21.7351 15.4747C21.6414 15.477 21.5483 15.4597 21.4616 15.4239C21.375 15.388 21.2968 15.3345 21.232 15.2666C21.1807 15.21 21.142 15.143 21.1184 15.0702C21.0948 14.9974 21.0869 14.9204 21.0953 14.8443V13.688C21.095 13.6048 21.1114 13.5224 21.1435 13.4457C21.1755 13.369 21.2226 13.2996 21.282 13.2414C21.4035 13.1235 21.566 13.0576 21.7351 13.0576C21.9042 13.0576 22.0667 13.1235 22.1882 13.2414C22.2475 13.2996 22.2946 13.3691 22.3267 13.4458C22.3587 13.5224 22.3751 13.6048 22.3749 13.688V14.844C22.3751 14.9272 22.3587 15.0095 22.3267 15.0862C22.2946 15.1629 22.2475 15.2324 22.1882 15.2905C22.128 15.3496 22.0569 15.3963 21.9787 15.4278C21.9006 15.4594 21.8171 15.4752 21.7328 15.4744L21.7351 15.4747ZM34.4224 13.8631H32.6452C32.4759 13.8641 32.313 13.798 32.1921 13.6792C32.133 13.6209 32.0861 13.5514 32.0541 13.4747C32.022 13.398 32.0056 13.3157 32.0056 13.2326C32.0056 13.1494 32.022 13.0671 32.0541 12.9904C32.0861 12.9138 32.133 12.8442 32.1921 12.7859C32.313 12.6671 32.4759 12.601 32.6452 12.602H34.4224C34.5917 12.601 34.7546 12.6671 34.8755 12.7859C34.9346 12.8442 34.9815 12.9138 35.0135 12.9904C35.0456 13.0671 35.0621 13.1494 35.0621 13.2326C35.0621 13.3157 35.0456 13.398 35.0135 13.4747C34.9815 13.5514 34.9346 13.6209 34.8755 13.6792C34.7546 13.798 34.5917 13.8641 34.4224 13.8631ZM14.5193 13.5132H13.9859C13.8166 13.5142 13.6537 13.4481 13.5328 13.3293C13.4737 13.271 13.4268 13.2014 13.3948 13.1248C13.3627 13.0481 13.3462 12.9658 13.3462 12.8826C13.3462 12.7995 13.3627 12.7172 13.3948 12.6405C13.4268 12.5638 13.4737 12.4943 13.5328 12.436C13.6539 12.3175 13.8167 12.2518 13.9859 12.2531H14.5193C14.6131 12.253 14.7059 12.2724 14.7919 12.3099C14.8779 12.3474 14.9552 12.4023 15.0191 12.4712C15.0702 12.5261 15.109 12.5912 15.1331 12.6623C15.1572 12.7334 15.1659 12.8087 15.1588 12.8834C15.159 12.9666 15.1426 13.049 15.1106 13.1257C15.0785 13.2024 15.0314 13.2718 14.972 13.33C14.8511 13.4485 14.6884 13.5143 14.5193 13.5132ZM10.5031 13.5132H9.96973C9.80041 13.5142 9.63755 13.4481 9.51664 13.3293C9.45751 13.271 9.41055 13.2015 9.37849 13.1248C9.34643 13.0481 9.32993 12.9658 9.32993 12.8826C9.32993 12.7995 9.34643 12.7172 9.37849 12.6405C9.41055 12.5638 9.45751 12.4943 9.51664 12.436C9.63771 12.3175 9.80054 12.2518 9.96973 12.2531H10.5028C10.6721 12.2521 10.835 12.3182 10.9559 12.4369C11.015 12.4952 11.062 12.5648 11.094 12.6415C11.1261 12.7182 11.1426 12.8005 11.1426 12.8836C11.1426 12.9667 11.1261 13.0491 11.094 13.1257C11.062 13.2024 11.015 13.272 10.9559 13.3303C10.8349 13.4486 10.6722 13.5143 10.5031 13.5132ZM14.5193 10.0098H13.9859C13.8166 10.0108 13.6537 9.94475 13.5328 9.82595C13.4737 9.7676 13.4268 9.69806 13.3948 9.62138C13.3627 9.54469 13.3462 9.46239 13.3462 9.37926C13.3462 9.29613 13.3627 9.21384 13.3948 9.13715C13.4268 9.06047 13.4737 8.99093 13.5328 8.93258C13.6537 8.81378 13.8166 8.74769 13.9859 8.74873H14.5193C14.6886 8.74769 14.8515 8.81378 14.9724 8.93258C15.0315 8.99093 15.0784 9.06047 15.1104 9.13715C15.1424 9.21384 15.1589 9.29613 15.1589 9.37926C15.1589 9.46239 15.1424 9.54469 15.1104 9.62138C15.0784 9.69806 15.0315 9.7676 14.9724 9.82595C14.8515 9.94475 14.6886 10.0108 14.5193 10.0098ZM10.5031 10.0098H9.96973C9.80041 10.0108 9.63755 9.94472 9.51664 9.82595C9.45751 9.76762 9.41055 9.69809 9.37849 9.6214C9.34643 9.54472 9.32993 9.46241 9.32993 9.37926C9.32993 9.29612 9.34643 9.21381 9.37849 9.13713C9.41055 9.06044 9.45751 8.99091 9.51664 8.93258C9.63755 8.81381 9.80041 8.74773 9.96973 8.74873H10.5028C10.6721 8.74773 10.835 8.81381 10.9559 8.93258C11.015 8.99091 11.062 9.06044 11.094 9.13713C11.1261 9.21381 11.1426 9.29612 11.1426 9.37926C11.1426 9.46241 11.1261 9.54472 11.094 9.6214C11.062 9.69809 11.015 9.76762 10.9559 9.82595C10.835 9.94464 10.6723 10.0107 10.5031 10.0098Z" fill="black"/>
<path d="M5.89819 21.8458C5.89819 21.8458 8.46353 21.871 8.4861 21.8458C9.59866 20.0545 14.2443 19.3579 15.3427 19.2545C16.441 19.1511 18.7696 19.6222 19.0905 19.5359C20.2111 18.7906 22.1473 18.4284 22.1473 18.4284C22.1473 18.4284 26.4227 18.228 31.4744 22.1366L35.6518 22.2167H38.0381" stroke="black"/>
</g>
<defs>
<clipPath id="clip0_1_8597">
<rect width="36.7611" height="42.3309" fill="white" transform="translate(0.325928 0.62146)"/>
</clipPath>
</defs>
</svg>
