<svg width="36" height="36" viewBox="0 0 36 36" fill="none" xmlns="http://www.w3.org/2000/svg">
    <circle cx="17.9995" cy="18.0957" r="17" stroke="url(#paint0_linear_1_1227)"/>
    <path d="M14.3039 25.5957C12.1664 25.5957 10.1757 24.969 8.49951 23.891C9.49084 24.0114 10.4962 23.9351 11.4579 23.6663C12.4197 23.3976 13.319 22.9417 14.1043 22.3248C13.3139 22.3103 12.5479 22.0487 11.9137 21.5768C11.2795 21.1048 10.809 20.4461 10.5683 19.6931C10.7998 19.7384 11.0372 19.7619 11.2797 19.7619C11.6253 19.7619 11.9609 19.7149 12.2805 19.631C11.4236 19.4575 10.6531 18.9932 10.0994 18.3167C9.54565 17.6402 9.24274 16.7931 9.24195 15.9189V15.8694C9.7669 16.1618 10.3544 16.3241 10.955 16.3425C10.436 15.9967 10.0106 15.5279 9.71666 14.9778C9.42275 14.4278 9.26947 13.8136 9.27047 13.1899C9.27047 12.4986 9.45923 11.846 9.78388 11.2872C10.7346 12.457 11.9208 13.4137 13.2653 14.0951C14.6099 14.7766 16.0828 15.1676 17.5883 15.2427C17.3996 14.4309 17.4839 13.5795 17.828 12.8205C18.1721 12.0614 18.7569 11.4369 19.4918 11.0438C20.2267 10.6506 21.0707 10.5107 21.8931 10.6458C22.7156 10.7808 23.4705 11.1831 24.0412 11.7906C24.8887 11.6228 25.7017 11.3125 26.4455 10.8728C26.1625 11.7495 25.5715 12.4939 24.7819 12.9684C25.5323 12.8788 26.2651 12.6781 26.9564 12.3728C26.4466 13.1322 25.8071 13.7958 25.0672 14.3333C25.0739 14.4952 25.0789 14.6588 25.0789 14.8224C25.0781 19.824 21.2686 25.5965 14.3039 25.5957Z" fill="url(#paint1_linear_1_1227)"/>
    <defs>
    <linearGradient id="paint0_linear_1_1227" x1="0.499512" y1="18.0957" x2="35.4995" y2="18.0957" gradientUnits="userSpaceOnUse">
    <stop stop-color="#F04B12"/>
    <stop offset="1" stop-color="#FB8843"/>
    </linearGradient>
    <linearGradient id="paint1_linear_1_1227" x1="8.49951" y1="18.0957" x2="26.9564" y2="18.0957" gradientUnits="userSpaceOnUse">
    <stop stop-color="#F04B12"/>
    <stop offset="1" stop-color="#FB8843"/>
    </linearGradient>
    </defs>
    </svg>
    